<?xml version="1.0" encoding="utf-8"?>
<!-- Generator: Adobe Illustrator 26.1.0, SVG Export Plug-In . SVG Version: 6.00 Build 0)  -->
<svg version="1.1"
	 id="Слой_1" image-rendering="optimizeQuality" shape-rendering="geometricPrecision" text-rendering="geometricPrecision" xmlns:cc="http://creativecommons.org/ns#" xmlns:dc="http://purl.org/dc/elements/1.1/" xmlns:rdf="http://www.w3.org/1999/02/22-rdf-syntax-ns#"
	 xmlns="http://www.w3.org/2000/svg" xmlns:xlink="http://www.w3.org/1999/xlink" x="0px" y="0px" viewBox="0 0 141.7 141.7"
	 style="enable-background:new 0 0 141.7 141.7;" xml:space="preserve">
<style type="text/css">
	.st0{fill:#1E1E1E;}
	.st1{fill:#484544;}
</style>
<path class="st0" d="M56.9,66.3c-1.9-1.6-3.6-3.4-5-5.4c-5.6-8.4-4.5-19.9,2.5-27.2c3.9-4.1,8.7-6.5,14.4-7
	c12.6-1.1,22.7,7.7,24.3,18.7c1.2,8.4-1.6,15.3-8,20.7c-0.1,0.1-0.1,0.1-0.2,0.2c1.3,0.4,2.6,0.8,3.8,1.4c2.2,1.1,4.3,2.5,5.7,4.7
	c1,1.5,1.5,3.2,1.3,5c-0.4,2.6-2.1,4.1-4.8,4.6c-1.5,0.2-3,0.3-4.5,0.3c-0.4,0-0.5,0.1-0.4,0.5c0.7,3.9,2.3,7.5,4.4,10.9
	c3.5,5.7,8.2,10.2,13.5,14.1c2.2,1.6,4.2,3.3,5.5,5.7c1.5,2.7,2,5.5,1.3,8.5c-0.5,2.3-2.5,3.8-4.8,3.9c-2.6,0.1-5.3,0-7.9,0
	c-8.9,0-17.8,0-26.6,0c-6.8,0-13.5,0-20.3,0c-4.5,0-9,0-13.5,0.1c-0.9,0-1.9-0.1-2.8-0.4c-2.3-0.8-3.5-2.8-3.6-5.4
	c-0.2-4.7,1.9-8.2,5.4-11.1c2.2-1.8,4.5-3.4,6.6-5.3c4.9-4.4,8.9-9.6,11.5-15.7c0.7-1.7,1.2-3.4,1.6-5.2c0.1-0.5,0-0.7-0.5-0.6
	c-1.7,0-3.4,0-5-0.4c-3.1-0.7-4.8-3.4-4.1-6.6c0.5-2.4,1.9-4.2,3.8-5.7c1.9-1.5,4-2.5,6.3-3.2c0.2,0,0.3-0.1,0.5-0.1
	C56.8,66.4,56.8,66.3,56.9,66.3z"/>
<g>
	<path class="st1" d="M36.8,122.9c-0.2,0-0.5,0-0.7-0.1c-1.3-0.3-1.9-1.2-2-2.8c0-2.6,0.8-4.8,2.5-6.7c1.2-1.3,2.6-2.4,4-3.4
		c0.5-0.4,1-0.7,1.5-1.1c2.5-2,5-4.3,7.3-6.8c1.8-2,3.5-4.2,5-6.8c2.3-3.7,3.8-7.4,4.6-11.2c0-0.2,0-0.3,0.1-0.5
		c0-0.5,0.1-1.2,0.6-1.5c0.3-0.2,0.7-0.2,0.9-0.2c0.2,0,0.3,0,0.5,0c0.1,0,0.3,0,0.4,0l0.1,0c1-0.1,1.9-0.1,2.9-0.1
		c0.9,0,1.9,0,2.9-0.1c1.1-0.1,2.2-0.1,3.5-0.1c0.9,0,1.7,0,2.6,0c1,0,2.1,0.1,3.1,0.1c1.6,0.1,3.3,0.1,5,0.1c0.2,0,0.9,0,1,0.8
		c0.4,2.6,1.2,5.3,2.3,7.9c1.4,3.2,3.3,6.3,5.5,9.2c2,2.6,4.3,4.9,6.7,7c1.3,1.1,2.7,2.2,4.1,3.3c0.6,0.5,1.2,0.9,1.8,1.4
		c2.1,1.7,3.4,3.3,4.1,5.2c0.5,1.3,0.6,2.7,0.5,4.4c-0.1,1.2-1.1,2-2.4,2l-34.3,0c0,0,0,0-0.1,0L36.8,122.9z"/>
	<path class="st0" d="M70.9,82c0.9,0,1.7,0,2.6,0c2.7,0.1,5.4,0.2,8.1,0.2c0.3,0,0.5,0,0.5,0.4c0.4,2.8,1.2,5.4,2.3,8
		c1.5,3.3,3.4,6.4,5.6,9.3c2,2.6,4.3,4.9,6.8,7.1c1.9,1.6,3.9,3.1,5.9,4.7c1.7,1.3,3.2,2.9,4,5c0.5,1.4,0.6,2.8,0.5,4.2
		c-0.1,1-0.9,1.6-1.9,1.6c-1.2,0-2.4,0-3.6,0c-1.8,0-3.5,0-5.3,0c-3.6,0-7.3,0-10.9,0c-4.8,0-9.7,0-14.5,0c0,0,0,0,0,0c-3,0-6,0-9,0
		c-8.2,0-16.4,0-24.6,0c0,0,0,0,0,0c-0.2,0-0.3,0-0.5,0c-0.2,0-0.4,0-0.6-0.1c-1.1-0.2-1.5-0.9-1.6-2.4c0-2.4,0.8-4.6,2.4-6.4
		c1.6-1.8,3.6-3,5.4-4.5c2.6-2.1,5.1-4.4,7.3-6.9c1.9-2.1,3.6-4.4,5.1-6.9c2.2-3.5,3.8-7.3,4.6-11.4c0.1-0.6,0-1.4,0.4-1.7
		c0.2-0.1,0.4-0.1,0.6-0.1c0.3,0,0.6,0.1,0.9,0.1c0.1,0,0.1,0,0.2,0c1.9-0.1,3.8,0,5.7-0.2C68.6,82.1,69.7,82,70.9,82 M70.9,81
		c-1.3,0-2.5,0-3.6,0.1c-0.9,0.1-1.9,0.1-2.8,0.1c-1,0-1.9,0-2.9,0.1c0,0-0.1,0-0.1,0c-0.1,0-0.3,0-0.4,0c-0.2,0-0.4,0-0.5,0
		c-0.3,0-0.7,0-1.2,0.3c-0.7,0.5-0.8,1.3-0.8,1.9c0,0.2,0,0.3,0,0.4c-0.8,3.8-2.3,7.4-4.5,11.1c-1.5,2.5-3.2,4.7-5,6.7
		c-2.3,2.5-4.7,4.8-7.2,6.7c-0.5,0.4-1,0.7-1.4,1.1c-1.4,1.1-2.9,2.1-4.1,3.5c-1.8,2-2.7,4.4-2.7,7.1c0,0.7,0,2.8,2.4,3.3
		c0.3,0.1,0.6,0.1,0.8,0.1l0.3,0l0.2,0l24.6,0l4.5,0l4.5,0c0,0,0.1,0,0.1,0l7.2,0h7.3l10.9,0l2.6,0l2.7,0c1.2,0,2.4,0,3.6,0
		c1.6,0,2.8-1,2.9-2.5c0.2-1.7,0-3.2-0.5-4.6c-0.7-2-2.1-3.7-4.3-5.4c-0.6-0.5-1.2-0.9-1.8-1.4c-1.4-1.1-2.8-2.1-4.1-3.3
		c-2.4-2.1-4.6-4.4-6.6-6.9c-2.2-2.8-4.1-5.9-5.5-9.1c-1.2-2.6-1.9-5.1-2.3-7.7c-0.1-0.5-0.3-1.2-1.5-1.2c-1.7,0-3.3-0.1-5-0.1
		c-1,0-2-0.1-3.1-0.1C72.7,81,71.8,81,70.9,81L70.9,81z"/>
</g>
<g>
	<path class="st1" d="M70.6,67.9c-4.5-0.1-8.5-1.5-11.8-4.2c-3.4-2.8-5.7-6.2-6.7-10.3c-0.4-1.6-0.6-3.2-0.6-4.8
		c0.1-4.2,1.5-8,4-11.3c3.1-4,7.3-6.5,12.5-7.4c0.6-0.1,1.5-0.2,2.1-0.2c0.2,0,0.3,0,0.5,0c4.9,0.1,9.1,1.5,12.6,4.4
		C87,37.2,89.3,41.2,90,46c0.6,3.7,0.1,7.3-1.5,10.7c-1.1,2.4-2.7,4.4-4.5,6.1c-3,2.6-6.1,4.2-9.5,4.7c-1.2,0.2-2.4,0.4-3.6,0.4
		L70.6,67.9z"/>
	<path class="st0" d="M70.1,30.2c0.1,0,0.3,0,0.4,0c4.9,0.1,8.9,1.5,12.4,4.3c3.7,3,5.9,6.9,6.7,11.6c0.6,3.6,0.1,7.1-1.5,10.4
		c-1.1,2.3-2.5,4.3-4.4,5.9c-2.7,2.4-5.7,4-9.3,4.6c-1.2,0.2-2.3,0.3-3.5,0.3c-0.1,0-0.2,0-0.3,0c-4.3-0.1-8.1-1.3-11.5-4.1
		c-3.3-2.6-5.5-6-6.6-10.1c-0.4-1.5-0.6-3.1-0.6-4.6c0.1-4.1,1.4-7.8,3.9-11c3.1-4,7.2-6.3,12.2-7.2C68.8,30.3,69.6,30.2,70.1,30.2
		 M70.1,29.2C70.1,29.2,70.1,29.2,70.1,29.2c-0.7,0-1.6,0.1-2.2,0.2c-5.4,0.9-9.7,3.4-12.9,7.6c-2.6,3.4-4,7.2-4.1,11.6
		c0,1.6,0.2,3.2,0.6,4.9c1.1,4.2,3.4,7.8,6.9,10.6c3.4,2.7,7.4,4.2,12.1,4.3c0.1,0,0.2,0,0.3,0c1.2,0,2.4-0.2,3.6-0.4
		c3.6-0.5,6.8-2.1,9.8-4.8c1.9-1.7,3.4-3.8,4.6-6.3c1.6-3.5,2.2-7.2,1.6-11c-0.8-4.9-3.1-9-7-12.2c-3.6-2.9-7.8-4.4-12.9-4.5
		C70.4,29.2,70.3,29.2,70.1,29.2L70.1,29.2z"/>
</g>
<g>
	<path class="st1" d="M81.4,79.2c-0.6,0-1.1,0-1.7,0c-3.1-0.2-6-0.3-8.8-0.3c-1.4,0-2.8,0-4.1,0.1c-4.3,0.1-8.3,0.2-12.1,0.2l-1,0
		c-0.9,0-1.8-0.1-2.9-0.4c-0.8-0.2-1.4-0.9-1.4-1.8c-0.1-1.3,0.3-2.4,1.4-3.6c1.8-1.9,4.2-3.2,7.5-4.1c0.7-0.2,1.4-0.3,2.2-0.3
		c1.6,0,3.1,0.4,4.6,0.8c1.4,0.4,2.8,0.5,4.1,0.6c0.6,0.1,1.2,0.1,1.8,0.1c3,0,5.8-0.7,8-1.3c0.6-0.2,1.3-0.3,2-0.3
		c0.6,0,1.2,0.1,1.9,0.2c2.4,0.4,4.6,1.4,6.5,2.7c1.6,1.1,2.6,2.4,3,3.9c0.2,0.8,0.2,1.6-0.2,2.2c-0.3,0.5-0.9,0.9-1.7,1
		c-0.9,0.1-1.9,0.3-2.9,0.3l-0.3,0c-0.4,0-0.8,0-1.2,0l-1.9,0c0,0,0,0-0.1,0c-0.4,0-0.9,0-1.3,0C82.3,79.2,81.9,79.2,81.4,79.2z"/>
	<path class="st0" d="M80.9,69.5c0.6,0,1.2,0.1,1.8,0.2c2.3,0.4,4.4,1.3,6.3,2.6c1.3,0.9,2.3,2.1,2.8,3.6c0.3,1,0.1,2.3-1.5,2.5
		c-0.9,0.1-1.9,0.3-2.8,0.3c-0.1,0-0.2,0-0.3,0c-0.4,0-0.8,0-1.2,0c-0.6,0-1.2,0-1.9,0c0,0,0,0,0,0c-0.9,0-1.8,0-2.8,0
		c-0.5,0-1.1,0-1.6,0c-2.9-0.2-5.9-0.3-8.8-0.3c-1.4,0-2.8,0-4.1,0.1c-4,0.1-8.1,0.2-12.1,0.2c-0.3,0-0.7,0-1,0
		c-1,0-1.9-0.2-2.8-0.4c-0.6-0.2-1-0.7-1.1-1.4c-0.1-1.3,0.5-2.3,1.3-3.2c2-2.2,4.5-3.2,7.3-3.9c0.7-0.2,1.4-0.2,2.1-0.2
		c1.5,0,3,0.4,4.4,0.8c1.4,0.4,2.8,0.5,4.2,0.6c0.6,0.1,1.2,0.1,1.8,0.1c2.8,0,5.5-0.6,8.1-1.3C79.6,69.5,80.3,69.5,80.9,69.5
		 M80.9,68.5c-0.8,0-1.5,0.1-2.2,0.3c-2.1,0.6-5,1.2-7.9,1.2c-0.6,0-1.2,0-1.7-0.1c-1.3-0.1-2.7-0.2-4-0.6c-1.5-0.4-3-0.8-4.7-0.8
		c-0.8,0-1.6,0.1-2.3,0.3c-2.2,0.5-5.4,1.6-7.8,4.2c-1.2,1.3-1.7,2.6-1.5,4c0.1,1.1,0.8,2,1.8,2.3c1.2,0.3,2.1,0.4,3.1,0.4l1,0
		c3.9,0,7.8-0.1,12.2-0.2c1.3,0,2.7-0.1,4.1-0.1c2.8,0,5.6,0.1,8.7,0.3c0.5,0,1,0,1.7,0c0.5,0,0.9,0,1.4,0c0.4,0,0.9,0,1.3,0
		c0,0,0.1,0,0.1,0c0.3,0,0.6,0,0.9,0c0.3,0,0.6,0,0.9,0c0.4,0,0.8,0,1.2,0c0.1,0,0.2,0,0.3,0c1.1,0,2.1-0.1,3-0.3
		c1.2-0.2,1.8-0.8,2.1-1.2c0.4-0.7,0.5-1.6,0.2-2.6c-0.5-1.6-1.5-3-3.2-4.2c-1.9-1.4-4.2-2.3-6.7-2.8C82.2,68.5,81.6,68.5,80.9,68.5
		L80.9,68.5z"/>
</g>
</svg>
