<?xml version="1.0" encoding="utf-8"?>
<!-- Generator: Adobe Illustrator 26.1.0, SVG Export Plug-In . SVG Version: 6.00 Build 0)  -->
<svg version="1.1"
	 id="Слой_1" image-rendering="optimizeQuality" shape-rendering="geometricPrecision" text-rendering="geometricPrecision" xmlns:cc="http://creativecommons.org/ns#" xmlns:dc="http://purl.org/dc/elements/1.1/" xmlns:rdf="http://www.w3.org/1999/02/22-rdf-syntax-ns#"
	 xmlns="http://www.w3.org/2000/svg" xmlns:xlink="http://www.w3.org/1999/xlink" x="0px" y="0px" viewBox="0 0 141.7 141.7"
	 style="enable-background:new 0 0 141.7 141.7;" xml:space="preserve">
<style type="text/css">
	.st0{display:none;}
	.st1{display:inline;}
	.st2{clip-path:url(#SVGID_00000143607904237658764380000016235103969084378763_);}
	.st3{fill:#EBEBEB;}
	.st4{fill:#3C3C3C;}
	.st5{clip-path:url(#SVGID_00000168098446756911413240000009173189400249438881_);}
	.st6{display:inline;fill:#3F3F3F;}
	.st7{display:inline;fill:#E9E9E9;}
	.st8{fill:#1E1E1E;}
</style>
<g class="st0">
	<g id="_x3C_Зеркальный_повтор_x3E__00000009577455279175984950000015746791915536263052_" class="st1">
		<g>
			<defs>
				<rect id="SVGID_1_" x="14.2" y="14.2" width="56.7" height="113.4"/>
			</defs>
			<clipPath id="SVGID_00000181773365963692640730000007290211081048882577_">
				<use xlink:href="#SVGID_1_"  style="overflow:visible;"/>
			</clipPath>
			<g style="clip-path:url(#SVGID_00000181773365963692640730000007290211081048882577_);">
				<path class="st3" d="M99.6,102.3c-2.2,0-4.1-0.4-5.4-0.7l-0.3-0.1c-8.3-1.8-17.1-2.2-23-2.2c-8.5,0-15.4,0.8-18.2,1.5
					c-0.8,0.2-2.6,0.7-5.1,0.7c-0.3,0-0.7,0-1,0c-2-0.1-4.2-0.6-6.4-1.5C33,97.1,28,93,25,90c-0.7-0.7-3.8-4.1-4.8-6l0,0
					C18.5,81,16,76.7,16,70.8C16.1,57.2,27,46.6,40.8,46.6c4.1,0,8.1,1,11.8,2.8c7.7,3.9,13.6,10.1,18,19c0.1,0.2,0.1,0.3,0.2,0.5
					c0.1-0.2,0.1-0.3,0.2-0.5c4.3-9.3,10.6-15.7,19.1-19.5c3.6-1.6,7.3-2.4,11-2.4c6,0,11.6,2.1,16.2,6.2c7.8,6.9,9.9,15.5,6.5,25.7
					c-1.7,5.1-5,9.1-8.2,13c-1,1.2-2.1,2.5-3,3.8c-2.5,3.3-4.9,5.3-7.8,6.3C103.1,102,101.4,102.3,99.6,102.3L99.6,102.3z M79,87.6
					c0.5,0.2,1.9,0.4,3.2,0.5c0.4,0,0.8,0.1,1.2,0.1c1.2,0.1,2.5,0.2,3.8,0.7c1.9,0.8,3.6,1.2,5.2,1.2c4.8,0,8.1-3.9,11.5-8
					c3.2-3.8,5-7,5-9.2c0-4-1.1-9.2-6.5-10.9c-1.2-0.4-2.4-0.5-3.5-0.5c-3,0-6,1.2-9.5,3.8c-6.9,5.2-8.9,12.8-10,19.5
					C79.1,85.8,78.9,87.1,79,87.6z M43.4,63.5c-1.2,0-2.3,0.3-3.2,0.8c-2.9,1.8-3,6.1-3,7.3c0.1,2.6,1.2,4.5,1.7,5.3
					c3.5,5.9,10.8,7,12.2,7.2c0.9,0.1,2.1,0.2,3.3,0.2c2.4,0,3.9-0.5,4.8-1.6c1.6-2,0.6-5.6,0.1-7.2c-1.3-4.4-4.7-7-6.9-8.7
					c-1.6-1.2-3.2-2.4-5.7-3C45.9,63.8,44.7,63.5,43.4,63.5z"/>
				<path class="st4" d="M101.1,48.3c5.5,0,10.7,1.9,15,5.7c7.5,6.6,9,14.7,5.9,23.7c-2.2,6.3-7,11-11,16.3c-2.2,2.9-4.3,4.7-7,5.7
					c-1.6,0.6-3.1,0.8-4.6,0.8c-2.1,0-4-0.4-5.3-0.7c-7.5-1.7-16-2.2-23.4-2.2c-8.4,0-15.5,0.7-18.6,1.5c-0.6,0.1-2.3,0.6-4.6,0.6
					c-0.3,0-0.6,0-0.9,0c-0.9,0-3-0.2-5.8-1.4C27.5,93,21.8,83,21.8,83c-1.8-3.1-3.9-7-3.9-12.2c0.1-13.4,10.9-22.4,22.9-22.4
					c3.6,0,7.4,0.8,11,2.6c8.2,4.1,13.4,10.5,17.2,18.2c0.4,0.9,0.4,2.4,1.7,2.4c0,0,0.1,0,0.1,0c1.3-0.1,1.5-1.5,1.9-2.4
					c3.8-8.2,9.5-14.7,18.2-18.6C94.3,49,97.7,48.3,101.1,48.3 M92.3,92c5.6,0,9.2-4.3,12.9-8.7c3-3.6,5.4-7.4,5.4-10.3
					c0-6.8-3-11.2-7.8-12.7c-1.4-0.4-2.8-0.6-4.1-0.6c-3.9,0-7.4,1.8-10.6,4.2c-7,5.3-9.4,12.8-10.7,20.7c-0.8,4.7-0.6,4.7,4.5,5.3
					c1.5,0.2,3.2,0.1,4.5,0.7C88.6,91.6,90.5,92,92.3,92 M54.4,86.3c2.3,0,4.7-0.5,6.2-2.3c2.2-2.8,1-7,0.4-8.9
					c-1.5-5-5.2-7.8-7.6-9.6c-1.7-1.3-3.5-2.7-6.4-3.3c-0.9-0.2-2.3-0.5-3.7-0.5c-1.4,0-2.8,0.3-4.2,1.1c-3.8,2.4-3.9,7.6-3.9,8.9
					c0.1,3,1.4,5.2,2,6.2c4.1,6.8,12.3,7.9,13.5,8.1C51.9,86.1,53.1,86.3,54.4,86.3 M101.1,44.6c-4,0-7.9,0.9-11.8,2.6
					c-8.1,3.6-14.2,9.3-18.6,17.6c-4.4-7.8-10.1-13.4-17.3-17c-4-2-8.3-3-12.6-3c-14.8,0-26.5,11.4-26.6,26.1c0,6.4,2.6,11,4.4,14.1
					c0.3,0.5,6.6,11.2,20.9,16.8c2.4,1,4.8,1.5,7,1.6c0.4,0,0.8,0,1.1,0c2.7,0,4.7-0.5,5.4-0.7l0.1,0c2.7-0.7,9.7-1.4,17.7-1.4
					c5.9,0,14.6,0.4,22.7,2.2l0.3,0.1c1.4,0.3,3.4,0.8,5.8,0.8c2,0,4-0.3,5.8-1c3.2-1.2,6-3.4,8.6-6.9c0.9-1.3,1.9-2.5,3-3.8
					c3.3-4,6.7-8.2,8.6-13.6c3.7-10.8,1.3-20.3-7-27.6C113.7,46.9,107.6,44.6,101.1,44.6L101.1,44.6z M80.9,86.1
					c0-0.3,0.1-0.6,0.1-0.9c1.1-6.7,2.9-13.6,9.3-18.4c3.1-2.4,5.8-3.5,8.4-3.5c1,0,2,0.2,3,0.5c4.4,1.3,5.3,5.7,5.2,9.1
					c0,0.7-0.5,3.2-4.6,8.1c-3.7,4.4-6.4,7.3-10.1,7.3c-1.3,0-2.8-0.4-4.4-1.1c-1.5-0.7-3.1-0.8-4.4-0.9c-0.4,0-0.8,0-1.1-0.1
					C81.9,86.2,81.4,86.2,80.9,86.1L80.9,86.1z M54.4,82.6c-1.1,0-2.2-0.1-3.1-0.2c-1.3-0.1-7.7-1.1-10.8-6.3
					c-0.4-0.7-1.4-2.3-1.4-4.4c0-0.4-0.1-4.3,2.1-5.7c0.6-0.4,1.3-0.6,2.2-0.6c1,0,2.1,0.2,2.9,0.4c2.1,0.5,3.5,1.6,5,2.7
					c2.2,1.6,5.1,3.9,6.3,7.7c0.3,1.2,1.3,4.2,0.2,5.5C57.2,82.4,55.6,82.6,54.4,82.6L54.4,82.6z"/>
			</g>
			<g style="clip-path:url(#SVGID_00000181773365963692640730000007290211081048882577_);">
				<path class="st3" d="M38.5,125.7c-1.8,0-4-0.2-5.1-1.9c-1.1-1.7-0.5-3.8,0.1-5.5c0.6-1.7,1.7-2.9,2.7-4.2
					c1.3-1.5,2.3-2.9,2.5-4.6c0.1-1.7,2-2.2,3.5-2.6c9.5-2.6,19.1-3.9,28.5-3.9c9.5,0,19.2,1.3,28.7,4l0.3,0.1
					c1.2,0.3,2.7,0.7,2.9,2.2c0.2,1.9,1.4,3.4,2.6,5c1,1.3,2,2.7,2.7,4.4c0.7,1.9,1.3,3.8,0.2,5.4c-1,1.5-3,1.7-5.1,1.7
					C103,125.7,38.5,125.7,38.5,125.7z"/>
				<path class="st4" d="M70.7,104.8c9.4,0,18.8,1.3,28.2,3.9c0.7,0.2,1.8,0.4,1.9,0.8c0.5,4,4,6.3,5.4,9.8c1.4,3.7,0.7,4.6-3.1,4.6
					c0,0,0,0,0,0c-10.7,0-21.5,0-32.2,0c-10.7,0-21.5,0-32.2,0c-3.8,0-4.7-1.2-3.3-4.9c1.3-3.3,5-5.3,5.3-9.3c0-0.4,1.4-0.8,2.1-1
					C52,106.1,61.4,104.8,70.7,104.8 M70.7,101.1v3.7V101.1C70.7,101.1,70.7,101.1,70.7,101.1c-9.6,0-19.4,1.3-29,4
					c-1.6,0.4-4.6,1.3-4.9,4.2c-0.1,1.1-0.8,2.1-2.1,3.6c-1.1,1.3-2.3,2.8-3,4.7c-0.5,1.2-1.8,4.5,0.1,7.2c1.8,2.7,5.3,2.7,6.6,2.7
					l9.8,0c7.5,0,15,0,22.5,0c5.1,0,10.1,0,15.2,0c5.7,0,11.4,0,17.1,0c1.6,0,4.9,0,6.6-2.5c1.7-2.5,0.6-5.6,0-7.1
					c-0.7-1.9-1.9-3.5-2.9-4.8c-1.1-1.5-2.1-2.7-2.2-4.1c-0.4-2.7-3-3.4-4.3-3.8l-0.3-0.1C90.2,102.5,80.4,101.1,70.7,101.1
					L70.7,101.1z"/>
			</g>
			<g style="clip-path:url(#SVGID_00000181773365963692640730000007290211081048882577_);">
				<path class="st3" d="M77,44.8c-0.3,0-0.6-0.1-0.8-0.2c-1.9-1-3.7-1.5-5.4-1.5c-1.7,0-3.4,0.4-5.4,1.3c-0.2,0.1-0.5,0.2-0.7,0.2
					c-0.5,0-0.9-0.2-1.2-0.5c-0.5-0.5-0.7-1.3-0.5-2c0.3-0.8,0.5-1.6,0.8-2.3c0.6-1.6,1.1-3,1.5-4.4l-6,2.2
					c-0.2,0.1-0.4,0.1-0.6,0.1c-0.4,0-0.7-0.1-1.1-0.3c-0.5-0.3-0.8-0.9-0.8-1.5V24.1c0-0.6,0.3-1.2,0.8-1.5
					c0.3-0.2,0.7-0.3,1.1-0.3c0.2,0,0.4,0,0.6,0.1c0.7,0.3,1.5,0.5,2.2,0.8c1.3,0.5,2.5,1,3.8,1.4c-0.4-1.2-2.2-6.2-2.2-6.2
					c-0.2-0.6-0.1-1.2,0.2-1.7c0.3-0.5,0.9-0.8,1.5-0.8h12c0.5,0,1,0.2,1.3,0.5c0.3,0.4,0.5,0.8,0.5,1.3c0,1.7-0.6,3.1-1.2,4.3
					c-0.3,0.7-0.5,1.3-0.7,1.9c0,0.2-0.1,0.4-0.2,0.5c0.1,0,0.1-0.1,0.2-0.1l5.9-2c0.2-0.1,0.4-0.1,0.6-0.1c0.4,0,0.8,0.1,1.1,0.3
					c0.5,0.3,0.8,0.9,0.8,1.5v11.6c0,0.6-0.3,1.2-0.8,1.5c-0.3,0.2-0.7,0.3-1.1,0.3c-0.2,0-0.4,0-0.6-0.1l-1.9-0.7
					c-1.4-0.5-2.8-1-4.1-1.5c0.5,1.4,2.4,7,2.4,7c0.2,0.7,0,1.5-0.5,2C77.8,44.6,77.4,44.8,77,44.8z"/>
				<path class="st4" d="M76.5,17.9L76.5,17.9 M76.5,17.9c0,2.1-1.3,3.8-1.8,5.7c-0.3,1-1.3,2-0.5,2.9c0.3,0.3,0.6,0.4,0.9,0.4
					c0.7,0,1.4-0.5,2-0.7c1.9-0.6,3.7-1.3,5.9-2c0,3.8,0,7.5,0,11.6c-2.3-0.8-4.5-1.7-6.7-2.5c-0.4-0.1-0.8-0.3-1.2-0.3
					c-0.3,0-0.5,0.1-0.8,0.3c-0.7,0.6-0.1,1.3,0.1,1.9c0.8,2.3,1.5,4.6,2.6,7.6c-2.2-1.1-4.2-1.7-6.3-1.7c-2,0-4,0.5-6.2,1.5
					c0.9-2.7,1.8-4.9,2.4-7.1c0.2-0.7,0.9-1.6,0.1-2.3c-0.2-0.2-0.5-0.3-0.7-0.3c-0.5,0-1.1,0.3-1.6,0.5c-2,0.7-3.9,1.4-6.2,2.3
					c0-3.9,0-7.7,0-11.7c2.4,0.9,4.7,1.8,7,2.6c0.4,0.1,0.7,0.2,1,0.2c0.8,0,1.2-0.6,0.7-1.9c-0.8-2.3-1.7-4.6-2.6-7.2
					C68.7,17.9,72.5,17.9,76.5,17.9 M76.5,14.2L76.5,14.2h-12c-1.2,0-2.3,0.6-3,1.6c-0.7,1-0.9,2.2-0.4,3.4l0.8,2.3c0,0,0,0.1,0,0.1
					c0,0,0,0,0,0c-0.7-0.3-1.5-0.5-2.2-0.8c-0.4-0.2-0.8-0.2-1.3-0.2c-0.7,0-1.5,0.2-2.1,0.7c-1,0.7-1.6,1.8-1.6,3v11.7
					c0,1.2,0.6,2.3,1.6,3c0.6,0.4,1.4,0.7,2.1,0.7c0.4,0,0.8-0.1,1.3-0.2l2-0.7l0.5-0.2c-0.1,0.3-0.2,0.5-0.3,0.8
					c-0.3,0.7-0.5,1.5-0.8,2.3c-0.5,1.4-0.1,2.9,1,3.9c0.7,0.6,1.6,1,2.5,1c0.5,0,1-0.1,1.5-0.3c1.8-0.8,3.3-1.2,4.7-1.2
					c1.5,0,2.9,0.4,4.6,1.3c0.5,0.3,1.1,0.4,1.7,0.4c0.9,0,1.7-0.3,2.4-0.9c1.1-1,1.6-2.6,1.1-4l-0.8-2.5c-0.1-0.3-0.2-0.6-0.3-0.8
					c0.2,0.1,0.3,0.1,0.5,0.2l1.9,0.7c0.4,0.2,0.8,0.2,1.3,0.2c0.7,0,1.5-0.2,2.1-0.7c1-0.7,1.6-1.8,1.6-3V24.2c0-1.2-0.6-2.3-1.5-3
					c-0.6-0.5-1.4-0.7-2.1-0.7c-0.4,0-0.8,0.1-1.2,0.2L80,21.4l-0.5,0.2c0.4-1,0.7-2.2,0.8-3.5c0-0.1,0-0.2,0-0.2
					C80.2,15.8,78.6,14.2,76.5,14.2L76.5,14.2z M76.5,21.5L76.5,21.5L76.5,21.5L76.5,21.5z"/>
			</g>
			<g style="clip-path:url(#SVGID_00000181773365963692640730000007290211081048882577_);">
				<path class="st3" d="M70.8,65.7c-0.7,0-1.3-0.4-1.6-1.1c-2-4.5-4.7-8.5-8.4-12.8c-1.3-1.5-1.8-3.5-1.4-5.8
					c0.5-3.2,2.8-6.4,5.7-8.1c1.9-1.1,3.9-1.6,5.9-1.6c2.1,0,4.1,0.6,6.1,1.8c3.9,2.4,5.8,5.9,5.5,10.3c0,0.1,0,0.3,0,0.4
					c0,0.8,0,2-1.2,3.1c-3.5,3.3-6,7.4-8.8,12.8C72.2,65.4,71.5,65.7,70.8,65.7C70.8,65.7,70.8,65.7,70.8,65.7z"/>
				<path class="st4" d="M70.9,38.3c1.7,0,3.5,0.5,5.1,1.5c3.1,1.9,4.9,4.7,4.6,8.6c-0.1,0.8,0.1,1.6-0.6,2.3
					c-3.8,3.7-6.5,8.2-9.2,13.3c-2.4-5.1-5.3-9.3-8.7-13.2c-2.5-2.8-0.4-8.6,3.8-11C67.6,38.7,69.3,38.3,70.9,38.3 M70.9,34.6
					C70.9,34.6,70.9,34.6,70.9,34.6c-2.3,0-4.6,0.6-6.8,1.9c-3.4,2-5.9,5.5-6.6,9.3c-0.5,2.8,0.2,5.4,1.8,7.3
					c3.6,4.1,6.2,8,8.1,12.3c0.6,1.3,1.8,2.1,3.2,2.1c0,0,0.1,0,0.1,0c1.4,0,2.6-0.8,3.3-2c2.8-5.3,5.2-9.1,8.5-12.3
					c1.7-1.6,1.7-3.5,1.7-4.4c0-0.1,0-0.2,0-0.3c0.4-5-1.9-9.2-6.4-12C75.7,35.3,73.4,34.6,70.9,34.6L70.9,34.6z"/>
			</g>
			<g style="clip-path:url(#SVGID_00000181773365963692640730000007290211081048882577_);">
				<path class="st3" d="M102.1,109.6c-0.8,0-1.6-0.2-2.3-0.4l-0.3-0.1c-9.6-2.7-19.4-4.1-29.2-4.1c-2.3,0-4.6,0.1-7,0.2
					c-6.4,0.4-13,1.6-21.6,3.8l-0.5,0.1c-0.7,0.2-1.5,0.4-2.3,0.4c-1.8,0-3.1-1.1-3.6-3.1c-0.8-3.6,2.4-4.5,3.8-4.9l0.3-0.1
					c9.7-2.8,19.1-4.2,28.8-4.2c0.8,0,1.6,0,2.4,0c1,0,2-0.1,3.1-0.1c8.5,0,17.6,1.4,27.8,4.3c1.5,0.4,4.9,1.4,3.9,5.2
					C105.2,108.5,103.9,109.6,102.1,109.6z"/>
				<path class="st4" d="M74,99.1c9.1,0,18.3,1.7,27.3,4.2c1.6,0.5,3.1,0.9,2.6,2.9c-0.3,1.2-1,1.5-1.8,1.5c-0.7,0-1.4-0.3-2-0.4
					c-9.7-2.8-19.6-4.2-29.7-4.2c-2.4,0-4.7,0.1-7.1,0.2c-7.4,0.5-14.7,2-21.9,3.8c-0.8,0.2-1.6,0.5-2.3,0.5c-0.8,0-1.5-0.4-1.8-1.6
					c-0.5-2,1.3-2.4,2.8-2.8c9.2-2.7,18.5-4.1,28.3-4.1c0.8,0,1.6,0,2.4,0C71.9,99.1,72.9,99.1,74,99.1 M74,95.4c-1,0-2.1,0-3.1,0.1
					c-0.8,0-1.6,0-2.4,0c-9.9,0-19.5,1.4-29.3,4.3l-0.3,0.1c-5.2,1.5-5.6,4.7-5.1,7.1c0.6,2.8,2.7,4.5,5.3,4.5c1,0,2-0.3,2.7-0.5
					c0.1,0,0.3-0.1,0.4-0.1c8.4-2.2,15-3.3,21.2-3.7c2.3-0.1,4.6-0.2,6.8-0.2c9.6,0,19.2,1.4,28.7,4l0.3,0.1
					c0.7,0.2,1.7,0.5,2.8,0.5c2.6,0,4.6-1.6,5.3-4.3c0.6-2.3,0-4.4-1.7-5.8c-1.1-0.9-2.5-1.3-3.5-1.6C91.9,96.8,82.6,95.4,74,95.4
					L74,95.4z"/>
			</g>
		</g>
	</g>
	<g id="_x3C_Зеркальный_повтор_x3E__00000135668386535763377090000005304057644981269126_" class="st1">
		<g>
			<defs>
				<rect id="SVGID_00000029740704105530508770000006434888038374605235_" x="70.9" y="14.2" width="56.7" height="113.4"/>
			</defs>
			<clipPath id="SVGID_00000060712768365446277480000006784282205142249873_">
				<use xlink:href="#SVGID_00000029740704105530508770000006434888038374605235_"  style="overflow:visible;"/>
			</clipPath>
			<g style="clip-path:url(#SVGID_00000060712768365446277480000006784282205142249873_);">
				<path class="st3" d="M42.2,102.3c-1.8,0-3.6-0.3-5.2-0.9c-2.9-1-5.3-3-7.8-6.3c-1-1.3-2-2.6-3-3.8c-3.2-3.9-6.5-8-8.2-13
					c-3.5-10.2-1.3-18.8,6.5-25.7c4.6-4.1,10.2-6.2,16.2-6.2c3.7,0,7.4,0.8,11.1,2.4c8.5,3.8,14.8,10.2,19.1,19.5
					c0.1,0.2,0.1,0.3,0.2,0.5c0.1-0.1,0.1-0.3,0.2-0.5c4.4-8.9,10.3-15.2,18-19c3.7-1.9,7.7-2.8,11.8-2.8
					c13.8,0,24.7,10.6,24.7,24.2c0,5.9-2.5,10.2-4.2,13.1l0,0c-1,1.9-4.1,5.3-4.8,6c-3,3-8,7.2-15.2,10c-2.2,0.9-4.4,1.4-6.4,1.5
					c-0.3,0-0.7,0-1,0c-2.5,0-4.3-0.5-5-0.7c-2.9-0.7-9.7-1.5-18.2-1.5c-6,0-14.8,0.4-23,2.2l-0.3,0.1
					C46.2,101.9,44.4,102.3,42.2,102.3z M43,61.5c-1.2,0-2.4,0.2-3.5,0.5c-5.5,1.7-6.6,6.8-6.5,10.9c0.1,2.1,1.8,5.4,5,9.2
					c3.5,4.1,6.7,8,11.5,8c0,0,0,0,0,0c1.6,0,3.3-0.4,5.2-1.2c1.2-0.5,2.6-0.6,3.8-0.7c0.4,0,0.8,0,1.2-0.1c1.3-0.2,2.7-0.3,3.2-0.5
					c0-0.5-0.2-1.8-0.3-2.7c-1.1-6.7-3.1-14.3-10-19.5C49,62.7,46,61.5,43,61.5z M98.3,63.5c-1.2,0-2.4,0.3-3.3,0.5
					c-2.5,0.6-4.1,1.8-5.7,3c-2.2,1.7-5.6,4.2-6.9,8.7c-0.5,1.5-1.5,5.1,0.1,7.2c0.9,1.1,2.5,1.6,4.8,1.6l0,0c1.2,0,2.4-0.1,3.3-0.2
					c1.4-0.2,8.6-1.3,12.2-7.2c0.5-0.8,1.6-2.7,1.7-5.3c0-1.3-0.1-5.5-3-7.3C100.6,63.8,99.6,63.5,98.3,63.5z"/>
				<path class="st4" d="M40.6,48.3c3.4,0,6.9,0.7,10.3,2.3c8.7,3.9,14.4,10.4,18.2,18.6c0.4,0.9,0.6,2.4,1.9,2.4c0,0,0.1,0,0.1,0
					c1.4,0,1.3-1.5,1.7-2.4c3.8-7.7,9-14.1,17.2-18.2c3.6-1.8,7.3-2.6,11-2.6c12,0,22.8,9,22.9,22.4c0,5.2-2.1,9.1-3.9,12.2
					c0,0-5.7,10-19.1,15.3c-2.8,1.1-5,1.3-5.8,1.4c-0.3,0-0.6,0-0.9,0c-2.3,0-4-0.5-4.6-0.6c-3.1-0.8-10.2-1.5-18.6-1.5
					c-7.5,0-15.9,0.6-23.4,2.2c-1.3,0.3-3.2,0.7-5.3,0.7c-1.4,0-3-0.2-4.6-0.8c-2.6-0.9-4.8-2.8-7-5.7c-4-5.3-8.8-10-11-16.3
					c-3.1-9-1.6-17.1,5.9-23.7C29.9,50.2,35.1,48.3,40.6,48.3 M49.4,92c1.8,0,3.7-0.4,5.9-1.4c1.3-0.6,3-0.5,4.5-0.7
					c5.1-0.6,5.2-0.6,4.5-5.3c-1.3-7.9-3.7-15.4-10.7-20.7c-3.2-2.4-6.7-4.2-10.6-4.2c-1.3,0-2.7,0.2-4.1,0.6
					C34,61.8,31,66.1,31.1,73c0.1,3,2.4,6.8,5.4,10.3C40.2,87.7,43.8,92,49.4,92 M87.3,86.3c1.3,0,2.6-0.1,3.5-0.3
					c1.3-0.1,9.4-1.2,13.5-8.1c0.6-1,1.9-3.2,2-6.2c0-1.4,0-6.5-3.9-8.9c-1.4-0.9-2.8-1.1-4.2-1.1c-1.5,0-2.8,0.3-3.7,0.5
					c-2.8,0.7-4.7,2-6.4,3.3c-2.3,1.8-6.1,4.6-7.6,9.6c-0.6,1.9-1.8,6.1,0.4,8.9C82.6,85.8,85,86.3,87.3,86.3 M40.6,44.6
					C40.6,44.6,40.6,44.6,40.6,44.6c-6.5,0-12.5,2.3-17.4,6.7c-8.3,7.3-10.7,16.9-7,27.6c1.8,5.4,5.3,9.6,8.6,13.6
					c1.1,1.3,2,2.5,3,3.8c2.7,3.6,5.4,5.8,8.6,6.9c1.8,0.7,3.8,1,5.8,1c2.4,0,4.5-0.5,5.8-0.8l0.3-0.1c8.1-1.8,16.8-2.2,22.7-2.2
					c8,0,14.9,0.7,17.7,1.4l0.1,0c0.8,0.2,2.8,0.7,5.4,0.7c0.4,0,0.7,0,1.1,0c2.2-0.1,4.6-0.7,7-1.6c14.3-5.7,20.6-16.4,20.9-16.8
					c1.8-3.1,4.4-7.7,4.4-14.1c-0.1-14.6-11.7-26.1-26.6-26.1c-4.4,0-8.6,1-12.6,3c-7.2,3.6-12.9,9.2-17.3,17
					c-4.4-8.2-10.6-14-18.6-17.6C48.5,45.5,44.6,44.6,40.6,44.6L40.6,44.6z M34.7,72.9c0-3.4,0.9-7.7,5.2-9.1c1-0.3,2-0.5,3-0.5
					c2.6,0,5.3,1.1,8.4,3.5c6.4,4.8,8.2,11.7,9.3,18.4c0,0.3,0.1,0.6,0.1,0.9c-0.4,0.1-0.9,0.1-1.4,0.2c-0.3,0-0.7,0.1-1.1,0.1
					c-1.3,0.1-2.9,0.2-4.4,0.9c-1.6,0.7-3.1,1.1-4.4,1.1c-3.7,0-6.4-2.9-10.1-7.3C35.2,76.1,34.8,73.6,34.7,72.9L34.7,72.9z
					 M87.3,82.6c-1.2,0-2.8-0.2-3.4-0.9c-1-1.3-0.1-4.3,0.2-5.5c1.2-3.9,4.1-6.1,6.3-7.7c1.5-1.1,2.9-2.2,5-2.7
					c0.8-0.2,1.9-0.4,2.9-0.4c0.9,0,1.6,0.2,2.2,0.6c2.2,1.4,2.1,5.3,2.1,5.7c-0.1,2.1-1,3.7-1.4,4.4c-3.1,5.2-9.5,6.2-10.8,6.3
					C89.5,82.5,88.4,82.6,87.3,82.6L87.3,82.6z"/>
			</g>
			<g style="clip-path:url(#SVGID_00000060712768365446277480000006784282205142249873_);">
				<path class="st3" d="M38.7,125.7c-2,0-4-0.2-5.1-1.7c-1-1.5-0.5-3.5,0.2-5.4c0.7-1.7,1.7-3.1,2.7-4.4c1.2-1.6,2.4-3.1,2.6-5
					c0.2-1.5,1.7-1.9,2.9-2.2l0.3-0.1c9.5-2.6,19.1-4,28.7-4c9.4,0,19,1.3,28.5,3.9c1.5,0.4,3.4,0.9,3.5,2.6
					c0.1,1.8,1.2,3.1,2.5,4.6c1,1.2,2.1,2.5,2.7,4.2c0.7,1.7,1.3,3.9,0.1,5.5c-1.1,1.7-3.3,1.9-5.1,1.9L38.7,125.7
					C38.7,125.7,38.7,125.7,38.7,125.7z"/>
				<path class="st4" d="M71,104.8c9.3,0,18.7,1.3,28,3.8c0.8,0.2,2.1,0.6,2.1,1c0.3,4,4,6,5.3,9.3c1.4,3.7,0.5,4.9-3.3,4.9
					c-10.7,0-21.5,0-32.2,0c-10.7,0-21.5,0-32.2,0c0,0,0,0,0,0c-3.8,0-4.5-0.9-3.1-4.6c1.3-3.5,4.9-5.8,5.4-9.8
					c0-0.3,1.2-0.6,1.9-0.8C52.2,106.1,61.6,104.8,71,104.8 M71,101.1c-9.7,0-19.5,1.4-29.2,4l-0.3,0.1c-1.3,0.3-3.9,1-4.3,3.8
					c-0.2,1.4-1.1,2.6-2.2,4.1c-1,1.4-2.2,2.9-2.9,4.8c-0.6,1.5-1.7,4.5,0,7.1c1.7,2.5,5,2.5,6.6,2.5c5.7,0,11.4,0,17.1,0
					c5.1,0,10.1,0,15.2,0c7.5,0,15,0,22.5,0l9.8,0c1.3,0,4.8,0,6.6-2.7c1.8-2.7,0.6-6,0.1-7.2c-0.7-1.9-1.9-3.4-3-4.7
					c-1.2-1.5-2-2.5-2.1-3.6c-0.2-3-3.2-3.8-4.9-4.2C90.4,102.5,80.6,101.1,71,101.1L71,101.1z"/>
			</g>
			<g style="clip-path:url(#SVGID_00000060712768365446277480000006784282205142249873_);">
				<path class="st3" d="M64.8,44.8c-0.4,0-0.9-0.2-1.2-0.4c-0.6-0.5-0.8-1.3-0.5-2c0,0,1.9-5.6,2.4-7c-1.4,0.5-2.7,1-4.1,1.5
					l-1.9,0.7c-0.2,0.1-0.4,0.1-0.6,0.1c-0.4,0-0.7-0.1-1.1-0.3c-0.5-0.3-0.8-0.9-0.8-1.5V24.2c0-0.6,0.3-1.2,0.8-1.5
					c0.3-0.2,0.7-0.3,1.1-0.3c0.2,0,0.4,0,0.6,0.1l5.9,2c0.1,0,0.1,0.1,0.2,0.1c-0.1-0.2-0.1-0.3-0.2-0.5c-0.2-0.6-0.4-1.2-0.7-1.9
					c-0.5-1.3-1.1-2.7-1.2-4.3c0-0.5,0.2-1,0.5-1.3c0.3-0.4,0.8-0.5,1.3-0.5h12c0.6,0,1.2,0.3,1.5,0.8c0.3,0.5,0.4,1.1,0.2,1.7
					c0,0-1.8,4.9-2.2,6.2c1.2-0.4,2.5-0.9,3.8-1.4c0.7-0.3,1.4-0.5,2.2-0.8c0.2-0.1,0.4-0.1,0.6-0.1c0.4,0,0.7,0.1,1.1,0.3
					c0.5,0.3,0.8,0.9,0.8,1.5v11.7c0,0.6-0.3,1.2-0.8,1.5c-0.3,0.2-0.7,0.3-1.1,0.3c-0.2,0-0.4,0-0.6-0.1l-6-2.2
					c0.4,1.4,0.9,2.8,1.5,4.4c0.3,0.7,0.5,1.5,0.8,2.3c0.2,0.7,0,1.5-0.5,2c-0.3,0.3-0.8,0.5-1.2,0.5c-0.3,0-0.5-0.1-0.7-0.2
					c-2-0.9-3.7-1.3-5.4-1.3c-1.8,0-3.5,0.5-5.4,1.5C65.4,44.7,65.1,44.8,64.8,44.8z"/>
				<path class="st4" d="M77.2,17.9c-0.9,2.6-1.8,4.9-2.6,7.2c-0.5,1.3-0.2,1.9,0.7,1.9c0.3,0,0.6-0.1,1-0.2c2.3-0.8,4.6-1.7,7-2.6
					c0,4,0,7.8,0,11.7c-2.3-0.8-4.2-1.5-6.2-2.3c-0.5-0.2-1-0.5-1.6-0.5c-0.3,0-0.5,0.1-0.7,0.3c-0.8,0.7-0.1,1.6,0.1,2.3
					c0.6,2.2,1.5,4.3,2.4,7.1c-2.1-1-4.1-1.5-6.2-1.5c-2,0-4.1,0.5-6.3,1.7c1-3,1.8-5.3,2.6-7.6c0.2-0.6,0.8-1.3,0.1-1.9
					c-0.2-0.2-0.5-0.3-0.8-0.3c-0.4,0-0.8,0.2-1.2,0.3c-2.2,0.8-4.5,1.6-6.7,2.5c0-4.1,0-7.8,0-11.6c2.1,0.7,4,1.4,5.9,2
					c0.6,0.2,1.4,0.7,2,0.7c0.3,0,0.6-0.1,0.9-0.4c0.8-0.9-0.2-2-0.5-2.9c-0.5-1.9-1.8-3.7-1.8-5.7C69.3,17.9,73.1,17.9,77.2,17.9
					 M77.2,14.2h-12c-1,0-1.9,0.4-2.6,1.1c-0.7,0.7-1.1,1.7-1.1,2.6c0,1.4,0.4,2.6,0.8,3.7l-0.5-0.2l-1.8-0.6
					c-0.4-0.1-0.8-0.2-1.2-0.2c-0.8,0-1.5,0.2-2.1,0.7c-1,0.7-1.5,1.8-1.5,3v11.6c0,1.2,0.6,2.3,1.6,3c0.6,0.4,1.4,0.7,2.1,0.7
					c0.4,0,0.9-0.1,1.3-0.2l1.9-0.7c0.2-0.1,0.3-0.1,0.5-0.2c-0.1,0.3-0.2,0.6-0.3,0.8l-0.8,2.5c-0.5,1.4,0,3,1.1,4
					c0.7,0.6,1.5,0.9,2.4,0.9c0.6,0,1.2-0.1,1.7-0.4c1.6-0.9,3.1-1.3,4.6-1.3c1.4,0,2.9,0.4,4.7,1.2c0.5,0.2,1,0.3,1.5,0.3
					c0.9,0,1.8-0.3,2.5-1c1.1-1,1.5-2.5,1-3.9c-0.3-0.8-0.5-1.6-0.8-2.3c-0.1-0.3-0.2-0.5-0.3-0.8l0.5,0.2l2,0.7
					c0.4,0.1,0.8,0.2,1.3,0.2c0.7,0,1.5-0.2,2.1-0.7c1-0.7,1.6-1.8,1.6-3V24.1c0-1.2-0.6-2.3-1.6-3c-0.6-0.4-1.4-0.7-2.1-0.7
					c-0.4,0-0.9,0.1-1.3,0.2c-0.7,0.3-1.5,0.6-2.2,0.8c0,0,0,0,0,0c0,0,0-0.1,0-0.1l0.8-2.3c0.4-1.1,0.2-2.4-0.4-3.4
					C79.5,14.8,78.4,14.2,77.2,14.2L77.2,14.2z M77.2,21.5L77.2,21.5L77.2,21.5L77.2,21.5z"/>
			</g>
			<g style="clip-path:url(#SVGID_00000060712768365446277480000006784282205142249873_);">
				<path class="st3" d="M70.9,65.7c-0.7,0-1.3-0.4-1.6-1c-2.9-5.4-5.4-9.4-8.8-12.8c-1.1-1.1-1.1-2.4-1.2-3.1c0-0.1,0-0.2,0-0.4
					c-0.3-4.3,1.6-7.9,5.5-10.3c1.9-1.2,4-1.8,6.1-1.8c2,0,4,0.6,5.9,1.6c2.9,1.7,5.1,4.8,5.7,8.1c0.4,2.3-0.1,4.3-1.4,5.8
					c-3.7,4.3-6.4,8.3-8.4,12.8C72.2,65.3,71.6,65.7,70.9,65.7C70.9,65.7,70.9,65.7,70.9,65.7z"/>
				<path class="st4" d="M70.8,38.3c1.7,0,3.3,0.5,4.9,1.4c4.2,2.4,6.3,8.2,3.8,11c-3.4,3.9-6.4,8.1-8.7,13.2
					c-2.7-5.1-5.4-9.6-9.2-13.3c-0.7-0.7-0.6-1.5-0.6-2.3c-0.3-3.8,1.5-6.6,4.6-8.6C67.3,38.8,69.1,38.3,70.8,38.3 M70.8,34.6
					c-2.4,0-4.8,0.7-7.1,2.1c-4.5,2.7-6.7,7-6.4,12c0,0.1,0,0.2,0,0.3c0,0.9,0.1,2.8,1.7,4.4c3.3,3.2,5.7,7.1,8.5,12.3
					c0.6,1.2,1.9,2,3.3,2c0,0,0.1,0,0.1,0c1.4,0,2.7-0.9,3.2-2.1c2-4.3,4.6-8.2,8.1-12.3c1.6-1.9,2.3-4.5,1.8-7.3
					c-0.6-3.8-3.2-7.4-6.6-9.3C75.4,35.2,73.1,34.6,70.8,34.6L70.8,34.6z"/>
			</g>
			<g style="clip-path:url(#SVGID_00000060712768365446277480000006784282205142249873_);">
				<path class="st3" d="M39.6,109.6c-1.8,0-3.1-1.1-3.5-2.9c-1-3.8,2.4-4.8,3.9-5.2c10.2-2.9,19.3-4.3,27.8-4.3c1,0,2,0,3.1,0.1
					c0.8,0,1.6,0,2.4,0c9.7,0,19.1,1.4,28.8,4.2l0.3,0.1c1.4,0.4,4.6,1.3,3.8,4.9c-0.5,1.9-1.7,3.1-3.6,3.1l0,0
					c-0.8,0-1.6-0.2-2.3-0.4l-0.5-0.1c-8.5-2.2-15.2-3.4-21.6-3.8c-2.3-0.2-4.7-0.2-7-0.2c-9.7,0-19.6,1.4-29.2,4.1l-0.3,0.1
					C41.2,109.4,40.4,109.6,39.6,109.6z"/>
				<path class="st4" d="M67.8,99.1c1,0,2,0,3,0.1c0.8,0,1.6,0,2.4,0c9.8,0,19.1,1.4,28.3,4.1c1.6,0.5,3.3,0.8,2.8,2.8
					c-0.3,1.3-1,1.6-1.8,1.6c-0.7,0-1.5-0.3-2.3-0.5c-7.2-1.9-14.5-3.3-21.9-3.8c-2.4-0.2-4.7-0.2-7.1-0.2c-10,0-19.9,1.4-29.7,4.2
					c-0.6,0.2-1.4,0.4-2,0.4c-0.8,0-1.4-0.3-1.8-1.5c-0.5-2,1-2.5,2.6-2.9C49.5,100.7,58.6,99.1,67.8,99.1 M67.8,95.4
					C67.8,95.4,67.8,95.4,67.8,95.4c-8.7,0-17.9,1.4-28.3,4.3c-1,0.3-2.3,0.7-3.5,1.6c-1.7,1.4-2.3,3.5-1.7,5.8
					c0.7,2.7,2.7,4.3,5.3,4.3c1.1,0,2.1-0.3,2.8-0.5l0.3-0.1c9.4-2.7,19.1-4,28.7-4c2.3,0,4.6,0.1,6.8,0.2
					c6.3,0.4,12.8,1.6,21.2,3.7c0.1,0,0.3,0.1,0.4,0.1c0.8,0.2,1.7,0.5,2.7,0.5c2.7,0,4.7-1.7,5.3-4.5c0.6-2.4,0.1-5.6-5.1-7.1
					l-0.3-0.1c-9.8-2.9-19.4-4.3-29.3-4.3c-0.8,0-1.6,0-2.4,0C69.8,95.4,68.8,95.4,67.8,95.4L67.8,95.4z"/>
			</g>
		</g>
	</g>
</g>
<g class="st0">
	<path class="st6" d="M81.2,39.4c1.5,2.2,2.7,4.5,3,7.2c0.1,1.1-0.1,2.2-0.1,3.4c2.2-1.3,4.3-2.5,6.6-3.4c12.8-5,27.2,0,33.5,12
		c4.3,8.1,4.2,16.3-0.2,24.4c-4.1,7.5-10.3,12.8-17.7,16.9c-0.4,0.2-0.9,0.5-1.5,0.7c1.9,1.1,3.2,2.6,3.1,5
		c-0.1,1.9-0.7,3.6-2.2,4.8c-0.5,0.4-0.4,0.7-0.1,1.1c0.9,1.1,1.8,2.2,2.6,3.3c1.4,1.9,2.3,4,2.4,6.3c0.2,3.6-2,6.1-5.6,6.4
		c-0.5,0-0.9,0-1.4,0c-21.8,0-43.6,0-65.5,0c-0.7,0-1.5,0-2.1-0.1c-3.9-0.8-5.7-3.9-4.7-7.9c0.5-2,1.4-3.8,2.7-5.4
		c0.6-0.7,1.1-1.5,1.7-2.2c0.6-0.7,0.8-1.1-0.1-1.9c-2.1-1.8-3.2-6.7,0.5-9c0.2-0.1,0.3-0.2,0.6-0.4c-4.1-2-7.8-4.5-11.1-7.5
		c-5.1-4.7-9.1-10.1-10.6-17c-2.9-12.5,4.5-25.5,16.7-29.7c8.2-2.8,16.1-1.9,23.6,2.4c0.8,0.4,1.5,0.9,2.4,1.4
		c-0.9-4.1,0.5-7.5,2.8-10.7c0.1,0,0.2-0.1,0.1-0.2c0,0-0.2,0-0.3,0c-0.8,0.2-1.5,0.5-2.4,0.4c-1.8-0.3-3.1-1.7-3.1-3.6
		c0-4,0-7.9,0-11.9c0-2.6,2.3-4.3,4.8-3.5c0.7,0.2,1.3,0.5,2.2,0.8c-0.3-0.9-0.5-1.5-0.8-2.2c-0.8-2.6,0.7-5,3.5-5.1
		c4.2-0.1,8.4-0.1,12.6,0c2.7,0.1,4.3,2.5,3.4,5.1c-0.2,0.6-0.4,1.3-0.7,2c0.8,0,1.4-0.4,2-0.6c2.6-0.9,5,0.8,5,3.5
		c0,3.6-0.2,7.2,0.1,10.8c0.2,3.4-2.6,5.5-5.5,4.2c-0.1,0-0.3-0.1-0.3,0C81,39.3,81.1,39.4,81.2,39.4z M41,48.5
		c-1.5,0.1-2.9,0.1-4.2,0.4C21.1,51.7,14,68.1,20.6,80.4c4.7,8.8,12.1,14.5,21.2,18.1c0.6,0.2,1.2,0.1,1.9,0
		c6.7-1.7,13.4-2.7,20.3-3c11.6-0.4,23.2,0,34.5,3.1c0.6,0.2,1.2,0.1,1.9-0.2c7.2-2.8,13.3-7.2,18-13.4c4.7-6.2,6.7-13.1,4.3-20.8
		c-3.8-12.4-17.8-19-30.2-14.1c-9.6,3.8-16,11-20,20.4c-0.3,0.8-0.7,1.2-1.6,1.2c-0.8,0-1.3-0.2-1.6-1c-2.1-5.4-5.3-10-9.5-13.9
		C54.4,51.7,48.3,48.5,41,48.5z M70.8,123.8c10.7,0,21.3,0,32,0c0.8,0,1.5-0.1,2.3-0.2c1.4-0.3,1.9-1.2,1.7-2.6
		c-0.3-1.8-1.1-3.4-2.3-4.8c-0.9-1.2-2-2.2-2.6-3.6c-0.4-1-1.1-1.4-2.1-1.7c-9.1-2.4-18.3-4-27.8-4.1c-10-0.1-19.7,1.4-29.3,3.9
		c-1.5,0.4-2.7,0.9-3.3,2.4c-0.4,0.9-1.2,1.6-1.8,2.4c-0.8,1-1.6,2-2.1,3.2c-1.6,3.7-0.7,5,3.3,5C49.5,123.8,60.2,123.8,70.8,123.8z
		 M70.7,63.6c0.2-0.2,0.3-0.3,0.4-0.4c2.2-4.5,5-8.6,8.3-12.4c1.1-1.2,1.3-2.7,1-4.3c-0.9-4.4-4.6-7.7-9-8.1
		c-4.2-0.3-8.4,2.6-9.8,6.8C61,47,60.8,49,62.1,50.6C65.5,54.5,68.5,58.8,70.7,63.6z M77,18c-0.5,0-0.8-0.1-1.1-0.1
		c-3.3,0-6.6,0-9.9,0c-1.4,0-1.4,0-0.9,1.4c0.7,1.9,1.4,3.9,2.1,5.9c0.2,0.5,0.4,1.1,0,1.6c-0.4,0.5-1,0.2-1.6,0.1
		c-0.3,0-0.6-0.2-0.8-0.3c-1.8-0.7-3.7-1.3-5.5-2c-0.7-0.3-0.9-0.2-0.9,0.6c0,3.5,0,7,0,10.7c2.2-0.8,4.2-1.5,6.3-2.3
		c2-0.8,2.4-0.6,2.8,1.5c2.3-0.7,4.6-0.6,6.9,0c-0.2-1.8,0.5-2.3,2.1-1.7c1.9,0.7,3.8,1.4,5.7,2.1c0.5,0.2,1,0.4,1-0.5
		c0-3.3,0-6.6,0-9.9c0-0.8-0.3-0.7-0.9-0.5c-1.8,0.7-3.6,1.3-5.3,2c-0.5,0.2-1,0.3-1.5,0.4c-1.1,0.1-1.4-0.3-1.2-1.3
		c0.1-0.5,0.3-1,0.5-1.6C75.6,22,76.3,20.1,77,18z M70.7,99.1c-6.4-0.2-12.9,0.4-19.3,1.5c-4.2,0.7-8.4,1.7-12.4,3
		c-1.4,0.5-1.8,1.3-1.4,2.6c0.3,1.1,1,1.5,2.4,1.3c0.5-0.1,1.1-0.3,1.6-0.4c9.2-2.5,18.6-4,28.2-4.1c8.5-0.1,16.9,0.9,25.2,2.8
		c2.1,0.5,4.3,1.1,6.4,1.6c1.9,0.4,3.1-0.5,2.8-2.3c-0.2-1.3-1.3-1.5-2.2-1.8C91.8,100.4,81.5,98.9,70.7,99.1z"/>
	<path class="st7" d="M41,48.5c7.4,0.1,13.5,3.3,18.8,8.2c4.2,3.9,7.4,8.6,9.5,13.9c0.3,0.8,0.8,1,1.6,1c0.9,0,1.2-0.4,1.6-1.2
		c4-9.4,10.3-16.6,20-20.4c12.4-4.9,26.4,1.8,30.2,14.1c2.4,7.7,0.4,14.6-4.3,20.8c-4.7,6.2-10.8,10.6-18,13.4
		c-0.6,0.2-1.2,0.3-1.9,0.2c-11.3-3-22.9-3.5-34.5-3.1c-6.9,0.3-13.6,1.3-20.3,3c-0.6,0.2-1.2,0.3-1.9,0
		c-9.1-3.6-16.4-9.3-21.2-18.1C14,68.1,21.1,51.7,36.7,48.8C38.1,48.6,39.5,48.5,41,48.5z M35.5,71.7c0,3.5,1.7,6.8,4.6,9.5
		c4.4,4.1,9.8,5.4,15.6,5c4.8-0.3,7-3.3,6.2-8.1c-1.2-7.6-8.1-14.7-15.7-16.2c-3.1-0.6-6.1-0.4-8.4,2.2C36,66.1,35.5,68.6,35.5,71.7
		z M87.3,86.3c3.3,0,6.6-0.6,9.6-1.9c6.4-2.8,10.3-9.2,9.1-15.6c-1-5.1-4.5-7.7-9.7-7c-4.1,0.6-7.3,2.8-10.3,5.3
		c-3.4,2.8-5.4,6.4-6.2,10.7c-0.9,5,1.2,7.9,6,8.5C86.3,86.3,86.8,86.3,87.3,86.3z"/>
	<path class="st7" d="M70.8,123.8c-10.7,0-21.3,0-32,0c-4,0-4.9-1.4-3.3-5c0.5-1.2,1.3-2.2,2.1-3.2c0.6-0.8,1.4-1.5,1.8-2.4
		c0.7-1.6,1.8-2.1,3.3-2.4c9.6-2.5,19.4-4,29.3-3.9c9.5,0.1,18.7,1.7,27.8,4.1c1,0.3,1.7,0.7,2.1,1.7c0.6,1.4,1.7,2.4,2.6,3.6
		c1.1,1.4,2,3,2.3,4.8c0.2,1.4-0.3,2.3-1.7,2.6c-0.7,0.2-1.5,0.2-2.3,0.2C92.2,123.8,81.5,123.8,70.8,123.8z"/>
	<path class="st7" d="M70.7,63.6c-2.3-4.8-5.2-9.1-8.6-13C60.8,49,61,47,61.6,45.1c1.4-4.2,5.6-7.1,9.8-6.8c4.4,0.3,8.1,3.7,9,8.1
		c0.3,1.6,0.1,3.1-1,4.3c-3.3,3.8-6.1,7.9-8.3,12.4C71.1,63.3,71,63.4,70.7,63.6z"/>
	<path class="st7" d="M77,18c-0.7,2.1-1.5,4.1-2.2,6c-0.2,0.5-0.4,1-0.5,1.6c-0.2,1,0.1,1.4,1.2,1.3c0.5-0.1,1-0.2,1.5-0.4
		c1.8-0.6,3.6-1.3,5.3-2c0.5-0.2,0.9-0.3,0.9,0.5c0,3.3,0,6.6,0,9.9c0,0.9-0.5,0.7-1,0.5c-1.9-0.7-3.8-1.4-5.7-2.1
		c-1.6-0.6-2.3-0.1-2.1,1.7c-2.3-0.6-4.6-0.7-6.9,0c-0.4-2.1-0.7-2.2-2.8-1.5c-2,0.8-4.1,1.5-6.3,2.3c0-3.7,0-7.2,0-10.7
		c0-0.7,0.2-0.9,0.9-0.6c1.8,0.7,3.6,1.4,5.5,2c0.3,0.1,0.6,0.2,0.8,0.3c0.5,0.1,1.1,0.3,1.6-0.1c0.4-0.5,0.2-1.1,0-1.6
		c-0.7-2-1.4-3.9-2.1-5.9c-0.5-1.4-0.5-1.4,0.9-1.4c3.3,0,6.6,0,9.9,0C76.2,17.9,76.6,18,77,18z"/>
	<path class="st7" d="M70.7,99.1c10.7-0.2,21.1,1.2,31.2,4.3c1,0.3,2,0.5,2.2,1.8c0.2,1.7-1,2.7-2.8,2.3c-2.1-0.5-4.3-1.1-6.4-1.6
		c-8.3-2-16.7-2.9-25.2-2.8c-9.6,0.1-18.9,1.6-28.2,4.1c-0.5,0.1-1.1,0.3-1.6,0.4c-1.4,0.2-2.1-0.2-2.4-1.3c-0.4-1.3,0-2.1,1.4-2.6
		c4.1-1.3,8.2-2.3,12.4-3C57.9,99.5,64.3,99,70.7,99.1z"/>
	<path class="st6" d="M35.5,71.7c0.1-3.1,0.6-5.6,2.3-7.6c2.3-2.6,5.3-2.8,8.4-2.2c7.6,1.5,14.5,8.6,15.7,16.2
		c0.8,4.8-1.4,7.8-6.2,8.1c-5.8,0.3-11.2-1-15.6-5C37.2,78.5,35.5,75.2,35.5,71.7z M54.1,82.5c0.3,0,0.5,0,0.8,0
		c2.9-0.1,3.7-0.9,3.3-3.9c-0.7-5.2-6.1-11.3-11.4-12.7c-0.9-0.2-1.8-0.4-2.7-0.5c-2.4-0.2-3.8,0.8-4.4,3.1
		c-1.1,4.1,0.3,7.4,3.3,10.1C46.1,81.5,50,82.4,54.1,82.5z"/>
	<path class="st6" d="M87.3,86.3c-0.5,0-0.9,0-1.4,0c-4.8-0.6-6.9-3.5-6-8.5c0.8-4.3,2.8-7.9,6.2-10.7c3.1-2.5,6.2-4.8,10.3-5.3
		c5.1-0.7,8.7,1.9,9.7,7c1.2,6.3-2.7,12.7-9.1,15.6C93.8,85.7,90.6,86.2,87.3,86.3z M88.2,82.5c3-0.1,6.7-0.8,9.7-3.2
		c3.3-2.5,5.2-5.7,4.3-10c-0.7-3.3-2.4-4.3-5.7-3.8c-3.3,0.5-5.7,2.5-8.1,4.5c-2.5,2.1-4.1,4.7-4.8,7.9
		C82.9,81.5,83.8,82.6,88.2,82.5z"/>
</g>
<g>
	<path class="st3" d="M42.4,100.7c-0.6,0-1.1-0.2-1.4-0.3l-0.1,0c-4.6-1.7-8.8-4.1-12.5-7.2c-5.9-4.9-9.7-10.3-11.5-16.4
		c-0.8-2.6-1-5.2-0.7-8.1c0.3-2.7,0.9-5.1,1.9-7.5c1.7-3.8,4.2-7,7.7-9.6c3.6-2.6,7.7-4.2,12.2-4.7c0.9-0.1,1.8-0.1,2.8-0.1
		c4.9,0,9.7,1.4,14.4,4.3c3.1,1.9,6,4.3,8.5,7.1c2.7,3.1,5,6.7,6.9,10.7c0.1,0.3,0.2,0.6,0.3,0.8c1.1-3.1,2.9-5.7,4.4-8
		c3.7-5.4,8.6-9.6,14.5-12.4c3-1.4,6.2-2.2,9.5-2.5c0.6,0,1.2-0.1,1.8-0.1c5.2,0,10,1.5,14.3,4.5c5.3,3.7,8.6,8.8,9.8,15.2
		c0.3,1.7,0.4,3.1,0.4,4.4c0.2,4.7-1.6,8.7-3.6,12.2c-1.4,2.6-3.3,5-5.9,7.5c-4.2,4.1-9.3,7.4-15,9.7c-0.6,0.2-1.2,0.4-1.8,0.4
		c-0.8,0-1.5-0.2-2.1-0.3c-0.2,0-0.4-0.1-0.5-0.1c-4.5-1-8.6-1.7-12.5-2.2c-2-0.2-4-0.3-5.9-0.5l-1-0.1c-1.7-0.1-3.6-0.2-5.8-0.2
		c-1.8,0-3.5,0-5.3,0.1l-0.4,0c-3,0.1-6,0.3-8.2,0.6c-4.8,0.5-9.7,1.4-14.6,2.7C42.9,100.7,42.7,100.7,42.4,100.7z M98.8,63.5
		c-0.1,0-0.2,0-0.3,0c-2.6,0.1-4.8,0.7-6.7,1.8c-1.5,0.9-2.9,1.9-4.4,3.2c-1.5,1.3-3.1,2.8-4,4.8c-1.1,2.1-1.7,4.1-1.8,6.1
		c-0.2,3,0.9,4.6,3.8,5.1c0.6,0.1,1.2,0.2,1.9,0.2c1.2,0,2.4-0.2,3.5-0.3c3.7-0.5,6.7-1.7,9.1-3.8c4.2-3.5,5.6-7.6,4.4-12.4
		C103.7,66.1,102,63.5,98.8,63.5z M37.2,73.1c1,4.3,3.3,7.3,7.3,9.3c3,1.5,6.3,2.3,9.6,2.3c0,0,0,0,0,0c0.8,0,1.6,0,2.4-0.1
		c2-0.2,3.7-2,3.8-3.9c0.1-2.1-0.4-4.4-1.5-6.8c-1.3-2.9-3.7-5-6.1-6.8c-3-2.4-6.1-3.6-9.3-3.6c-0.1,0-0.3,0-0.4,0
		c-1.7,0.1-3.1,0.8-4.2,2.3c-1.1,1.4-1.6,3.2-1.5,5.6L37.2,73.1L37.2,73.1z"/>
	<path class="st8" d="M40.8,48.5c4.8,0,9.3,1.5,13.5,4c3.1,1.9,5.8,4.1,8.1,6.8c2.7,3.1,4.9,6.6,6.7,10.3c0.2,0.4,0.3,0.8,0.4,1.2
		c0.2,0.7,0.8,1,1.4,1c0.8,0,1.3-0.3,1.5-1.1c0.9-3,2.6-5.5,4.4-8c3.5-5.1,8.1-9.1,13.8-11.8c2.8-1.3,5.8-2.1,8.9-2.3
		c0.6,0,1.1-0.1,1.7-0.1c4.8,0,9.3,1.4,13.3,4.2c4.9,3.4,8,8.1,9.1,14c0.3,1.4,0.4,2.7,0.3,4.1c0.2,4.2-1.4,7.9-3.3,11.4
		c-1.5,2.7-3.4,5-5.5,7.1c-4.2,4.1-9,7.1-14.4,9.3c-0.4,0.2-0.8,0.2-1.2,0.2c-0.8,0-1.5-0.3-2.3-0.4c-4.2-1-8.4-1.7-12.7-2.2
		c-2.3-0.2-4.6-0.4-6.9-0.5c-2-0.1-4-0.2-6-0.2c-1.9,0-3.8,0-5.7,0.1c-2.8,0.1-5.6,0.3-8.4,0.6c-5,0.5-9.9,1.5-14.8,2.7
		c-0.1,0-0.2,0-0.3,0c-0.3,0-0.6-0.1-0.9-0.2c-4.4-1.6-8.4-3.9-12-6.9c-5-4.2-9.1-9.1-11-15.5c-0.7-2.4-0.9-4.9-0.7-7.5
		c0.2-2.4,0.8-4.7,1.8-7c1.6-3.6,3.9-6.5,7.1-8.8c3.4-2.5,7.2-3.9,11.4-4.4C39.1,48.6,39.9,48.5,40.8,48.5 M87.2,86.5
		c1.2,0,2.5-0.2,3.7-0.3c3.7-0.5,7.2-1.7,10-4.2c4.4-3.7,6.4-8.3,5-14.2c-0.9-3.4-3.5-6.1-7.2-6.1c-0.1,0-0.3,0-0.4,0
		c-2.7,0.1-5.2,0.7-7.5,2c-1.7,1-3.2,2.1-4.6,3.4c-1.7,1.5-3.4,3.2-4.4,5.3c-1.1,2.2-1.8,4.4-2,6.8c-0.2,3.8,1.4,6.2,5.2,7
		C85.7,86.5,86.5,86.5,87.2,86.5 M54,86.5c0.9,0,1.7,0,2.6-0.1c2.9-0.3,5.3-2.8,5.4-5.6c0.1-2.7-0.6-5.2-1.6-7.6
		c-1.4-3.2-3.9-5.4-6.6-7.5c-3.1-2.4-6.5-3.9-10.4-3.9c-0.2,0-0.3,0-0.5,0c-2.3,0.1-4.2,1.1-5.6,3c-1.5,2-1.9,4.3-1.8,6.7
		c0,0.6,0,1.2,0,1.8c0,0.1,0,0.2,0,0.3c1.1,4.8,3.8,8.3,8.2,10.5C46.9,85.7,50.4,86.5,54,86.5 M40.8,45c-1,0-2,0.1-2.9,0.2
		c-4.8,0.5-9.2,2.2-13.1,5c-3.7,2.7-6.5,6.2-8.2,10.3c-1.1,2.5-1.8,5.2-2.1,8c-0.3,3.2,0,6,0.8,8.8c1.9,6.4,5.9,12.1,12.1,17.2
		c3.8,3.2,8.2,5.7,13,7.5l0.1,0c0.4,0.1,1.1,0.4,2,0.4c0.4,0,0.8-0.1,1.2-0.1c4.8-1.2,9.6-2.1,14.3-2.6c2.2-0.2,5.1-0.5,8.1-0.6
		l0.4,0c1.7,0,3.5-0.1,5.3-0.1c2.2,0,4,0.1,5.7,0.2l1,0.1c2,0.1,3.9,0.2,5.8,0.4c3.8,0.4,7.8,1.1,12.3,2.1c0.2,0,0.3,0.1,0.5,0.1
		c0.7,0.2,1.5,0.4,2.6,0.4c0.9,0,1.7-0.2,2.5-0.5c5.9-2.4,11.2-5.8,15.5-10c2.7-2.6,4.7-5.2,6.2-7.9c2-3.6,4-7.9,3.8-13.1
		c0.1-1.4-0.1-2.9-0.4-4.7c-1.3-6.8-4.8-12.3-10.5-16.3c-4.6-3.2-9.7-4.8-15.3-4.8c-0.6,0-1.3,0-1.9,0.1c-3.6,0.2-7,1.1-10.2,2.6
		c-6.1,2.9-11.2,7.3-15.2,13c-1,1.4-2.1,3-3.1,4.8c-1.7-3.2-3.7-6-5.9-8.5c-2.6-3-5.6-5.5-8.9-7.5C51.1,46.6,46,45,40.8,45L40.8,45z
		 M87.2,83c-0.6,0-1.1,0-1.5-0.1c-1.8-0.4-2.6-0.9-2.4-3.3c0.1-1.8,0.6-3.5,1.6-5.4c0.9-1.7,2.3-3.1,3.7-4.3c1.4-1.2,2.7-2.2,4.1-3
		c1.7-1,3.6-1.5,5.9-1.6c0,0,0.1,0,0.1,0c0.1,0,0.2,0,0.2,0c2.2,0,3.4,1.9,3.8,3.5c1,4.1-0.2,7.5-3.8,10.6c-2.1,1.8-4.8,2.9-8.2,3.4
		C89.4,82.9,88.3,83,87.2,83L87.2,83z M38.9,72.9c0-0.3,0-0.7,0-1l0-0.4c0,0,0-0.1,0-0.1c0-1.9,0.3-3.4,1.1-4.5
		c0.8-1.1,1.6-1.5,2.9-1.6c0.1,0,0.3,0,0.4,0c2.9,0,5.5,1,8.3,3.2c2.2,1.7,4.5,3.7,5.6,6.2c1,2.2,1.4,4.1,1.3,6
		c0,1.1-1.1,2.1-2.3,2.2C55.5,82.9,54.8,83,54,83c-3.1,0-6-0.7-8.8-2.1C41.8,79.1,39.8,76.5,38.9,72.9L38.9,72.9z"/>
</g>
<g>
	<path class="st3" d="M103.9,125.8c-7.1,0-14.2,0-21.3,0l-44.7,0l-0.3,0c-0.2,0-0.5,0-0.7,0c-1.5-0.2-2.6-0.8-3.2-1.7
		c-0.7-1-0.8-2.2-0.5-3.7c0.5-2.4,1.9-4.2,3.1-5.7l0.2-0.2c0.8-1,1.6-2,2.1-3.1c0.4-0.9,1-1.4,1.9-1.6c1.2-0.3,2.4-0.6,3.6-0.9
		c2.4-0.6,4.8-1.2,7.2-1.6c2.5-0.5,5.2-0.9,8.5-1.3c3-0.4,6.2-0.5,10.3-0.5c1.9,0,3.7,0,5.6,0.1l0.9,0c3.3,0.1,6.6,0.5,9.4,0.9
		c4,0.6,8.2,1.5,13.6,2.8c0.7,0.2,1.4,0.4,2.1,0.5c0.4,0.1,1.4,0.4,1.9,1.6c0.5,1.2,1.3,2.2,2.2,3.3c0.4,0.5,0.9,1,1.3,1.6
		c1.1,1.4,1.7,3.2,2.1,5.2c0.3,1.7-0.7,3.3-2.4,3.9C105.7,125.6,104.8,125.8,103.9,125.8C103.9,125.8,103.9,125.8,103.9,125.8z"/>
	<path class="st8" d="M69.9,107.1c2.2,0,4.3,0,6.5,0.1c3.1,0.1,6.1,0.5,9.2,0.9c4.5,0.7,9,1.7,13.4,2.8c0.7,0.2,1.4,0.3,2.1,0.5
		c0.3,0.1,0.6,0.2,0.7,0.5c0.8,2,2.4,3.5,3.7,5.3c1,1.3,1.5,2.9,1.7,4.5c0.1,0.9-0.4,1.7-1.2,2c-0.7,0.2-1.4,0.4-2.1,0.4
		c0,0,0,0,0,0c-6.8,0-13.7,0-20.5,0c-4.1,0-8.2,0-12.4,0c0,0-0.1,0-0.1,0c-10.9,0-21.9,0-32.8,0c-0.2,0-0.4,0-0.5,0
		c-0.2,0-0.3,0-0.5,0c-2-0.3-2.7-1.3-2.3-3.3c0.4-1.9,1.5-3.5,2.8-5c1-1.2,1.9-2.3,2.5-3.7c0.1-0.3,0.3-0.5,0.7-0.6
		c3.6-0.8,7.1-1.8,10.7-2.5c2.8-0.5,5.6-0.9,8.4-1.3C63.2,107.2,66.5,107.1,69.9,107.1 M69.9,103.6c-4.2,0-7.4,0.2-10.5,0.6
		c-3.3,0.4-6.1,0.8-8.6,1.3c-2.5,0.5-4.9,1.1-7.3,1.7c-1.2,0.3-2.4,0.6-3.5,0.8c-0.8,0.2-2.3,0.8-3.1,2.6c-0.4,0.8-1,1.7-1.8,2.6
		l-0.2,0.2c-1.4,1.7-2.9,3.7-3.5,6.5c-0.4,2-0.2,3.7,0.7,5.1c0.9,1.4,2.4,2.2,4.4,2.5c0.3,0,0.6,0.1,1,0.1c0.1,0,0.2,0,0.3,0l0.2,0
		l27.5,0h5.3H71l6.2,0l6.2,0c6.8,0,13.7,0,20.5,0c1.2,0,2.3-0.2,3.3-0.6c2.4-0.9,3.9-3.3,3.5-5.8c-0.4-2.4-1.1-4.3-2.4-6
		c-0.4-0.6-0.9-1.1-1.3-1.7c-0.8-1-1.6-1.9-2-2.9c-0.4-0.9-1.2-2.1-3.1-2.6c-0.7-0.2-1.4-0.4-2.1-0.6c-5.5-1.4-9.7-2.2-13.8-2.8
		c-2.9-0.4-6.2-0.9-9.6-1l-0.9,0C73.7,103.6,71.8,103.6,69.9,103.6L69.9,103.6z"/>
</g>
<g>
	<path class="st3" d="M70.9,65.7c-0.7,0-1.3-0.4-1.6-1c-0.9-1.9-1.8-3.5-2.8-5.2c-1.5-2.5-3.3-4.9-5.2-7.1c-1.8-2-2.3-4.5-1.5-7.3
		c1.4-5,6-8.5,11.1-8.5c0.3,0,0.6,0,1,0c3.3,0.3,6.2,1.9,8.2,4.6c1.5,2,2.3,4.1,2.3,6.4c0,2.3-1.1,3.8-2,4.9
		c-3,3.4-5.5,7.2-7.5,11.3c-0.1,0.1-0.1,0.3-0.2,0.4l-0.2,0.3C72.2,65.3,71.6,65.7,70.9,65.7C70.9,65.7,70.9,65.7,70.9,65.7z"/>
	<path class="st8" d="M70.9,38.4c0.3,0,0.5,0,0.8,0c2.9,0.3,5.2,1.6,7,3.9c1.2,1.6,1.9,3.4,2,5.4c0,1.5-0.7,2.7-1.6,3.7
		c-3.1,3.5-5.7,7.5-7.8,11.7c-0.1,0.2-0.2,0.3-0.4,0.7C70,62,69,60.3,68,58.6c-1.6-2.6-3.4-5.1-5.4-7.4c-1.5-1.7-1.7-3.6-1.1-5.6
		C62.7,41.4,66.6,38.4,70.9,38.4 M70.9,34.9C70.9,34.9,70.9,34.9,70.9,34.9c-5.9,0-11.1,4-12.8,9.7c-1,3.4-0.4,6.4,1.9,8.9
		c1.9,2.2,3.6,4.5,5.1,6.8c1,1.6,1.8,3.2,2.7,5c0.6,1.2,1.8,1.9,3.1,2c0,0,0,0,0,0c1.3,0,2.5-0.7,3.1-1.9l0.2-0.3
		c0.1-0.2,0.2-0.3,0.3-0.5c1.9-4,4.3-7.6,7.2-10.9c1.1-1.2,2.5-3.2,2.5-6.1c-0.1-2.6-0.9-5.1-2.7-7.4c-2.3-3.1-5.6-5-9.5-5.3
		C71.6,34.9,71.2,34.9,70.9,34.9L70.9,34.9z"/>
</g>
<g>
	<path class="st3" d="M83,37.5c-0.4,0-0.7-0.1-1-0.2c-1.9-0.7-3.9-1.4-5.8-2.2c0,0.5-0.3,0.9-0.7,1.3c-0.3,0.2-0.7,0.4-1.1,0.4
		c0,0-0.1,0-0.1,0c-0.6,0-1.1-0.1-1.6-0.2c-0.5-0.1-1.1-0.2-1.5-0.2c-0.1,0-0.2,0-0.2,0c-0.2,0-0.4,0-0.7,0c-0.6,0-1.2,0.1-1.8,0.2
		c-0.3,0.1-0.5,0.1-0.9,0.1c-0.6,0-1.2-0.3-1.5-0.7c-0.2-0.3-0.4-0.6-0.4-1c-1.6,0.6-3.3,1.2-5.3,2c-0.7,0.3-1.2,0.4-1.7,0.4
		c-1,0-1.8-0.7-2-1.7c-0.1-0.4-0.1-0.7-0.1-1.3l0-2.6c0-2.3,0-4.6,0-6.9c0-0.3,0-1.2,0.6-1.9c0.4-0.4,0.9-0.6,1.5-0.6
		c0.4,0,0.8,0.1,1.1,0.3c1.5,0.6,3,1.1,4.5,1.7l0.9,0.3c-0.2-0.5-0.4-1-0.6-1.5c-0.2-0.4-0.3-0.9-0.5-1.3l-0.4-1
		c-0.2-0.6-0.4-1.2-0.7-1.8c-0.1-0.3-0.5-1.3,0.1-2.2c0.3-0.4,0.9-0.9,2-0.9c1.8,0,3.7,0,5.5,0c1.8,0,3.7,0,5.5,0
		c1.1,0,1.7,0.5,2,0.9c0.6,0.9,0.3,1.9,0.1,2.2c-0.7,1.8-1.4,3.7-2,5.5c1.9-0.7,3.7-1.3,5.6-2c0.3-0.1,0.6-0.2,1-0.2
		c0.5,0,1,0.2,1.4,0.6c0.6,0.6,0.6,1.4,0.6,1.7c0,3.4,0,6.9,0,10.3c0,0.3,0,1.1-0.6,1.7C84.1,37.3,83.6,37.5,83,37.5z"/>
	<path class="st8" d="M65.4,18C65.4,18,65.4,18,65.4,18c1.8,0,3.7,0,5.5,0c1.8,0,3.7,0,5.5,0c0,0,0,0,0,0c0.6,0,0.7,0.3,0.5,0.8
		c-0.8,2.2-1.6,4.4-2.4,6.5c-0.2,0.5-0.4,1,0.1,1.4C74.8,27,75,27,75.3,27c0.2,0,0.5-0.1,0.7-0.2c2.2-0.8,4.4-1.6,6.6-2.4
		c0.2-0.1,0.3-0.1,0.4-0.1c0.2,0,0.3,0.2,0.3,0.5c0,3.4,0,6.9,0,10.3c0,0.4-0.1,0.6-0.3,0.6c-0.1,0-0.2,0-0.4-0.1
		c-2-0.8-4.1-1.5-6.1-2.3c-0.3-0.1-0.6-0.3-0.9-0.3c-0.1,0-0.2,0-0.4,0.1c-0.9,0.3-1,1-0.7,1.8c-1.1-0.1-2.2-0.4-3.3-0.4
		c-0.1,0-0.2,0-0.4,0c-0.9,0.1-1.9,0-2.8,0.3c-0.1,0-0.3,0.1-0.4,0.1c-0.2,0-0.3-0.1-0.2-0.6c0.1-0.7-0.5-1.3-1.2-1.3
		c-0.2,0-0.4,0-0.5,0.1c-2,0.7-3.9,1.4-5.9,2.2c-0.5,0.2-0.8,0.3-1,0.3c-0.3,0-0.3-0.3-0.3-1.2c0-3.2,0-6.3,0-9.5
		c0-0.5,0.1-0.7,0.3-0.7c0.1,0,0.3,0.1,0.5,0.1c2,0.8,4,1.5,6,2.2c0.2,0.1,0.5,0.2,0.7,0.2c0.2,0,0.3,0,0.5,0c0.9,0,1.2-0.6,0.9-1.6
		c-0.4-1.3-1-2.6-1.4-3.9c-0.3-0.9-0.7-1.9-1-2.8C64.7,18.2,64.7,18,65.4,18 M74.5,35C74.5,35,74.5,35,74.5,35L74.5,35
		C74.5,35,74.5,35,74.5,35 M65.4,14.5c-2,0-3,1.1-3.4,1.7c-0.5,0.8-1,2.1-0.3,3.9c0.2,0.6,0.4,1.2,0.6,1.7c0,0.1,0.1,0.1,0.1,0.2
		c-0.6-0.2-1.2-0.5-1.8-0.7c-0.4-0.2-1.1-0.4-1.8-0.4c-1,0-2,0.4-2.7,1.1c-0.8,0.8-1.2,1.8-1.1,3.1c0,2.3,0,4.6,0,6.9
		c0,0.9,0,1.7,0,2.6c0,0.6,0,1.1,0.1,1.7c0.4,1.8,1.9,3,3.7,3c0.8,0,1.5-0.2,2.2-0.5l0.1,0c1.4-0.5,2.7-1,3.8-1.4
		c0.7,0.8,1.7,1.2,2.8,1.2c0.6,0,1.1-0.1,1.4-0.2c0.3-0.1,0.8-0.1,1.3-0.1c0.2,0,0.5,0,0.7,0c0,0,0.1,0,0.1,0c0.3,0,0.8,0.1,1.3,0.1
		c0.5,0.1,1.1,0.2,1.7,0.2c0.1,0,0.2,0,0.3,0c0.9,0,1.8-0.4,2.5-1c0,0,0.1-0.1,0.1-0.1c1.4,0.5,2.9,1.1,4.3,1.6
		c0.4,0.1,0.9,0.3,1.6,0.3c1,0,2-0.4,2.7-1.1c0.5-0.5,1.1-1.5,1.1-3c0-3.5,0-7,0-10.3c0-1.2-0.4-2.2-1.1-2.9
		c-0.7-0.7-1.6-1.1-2.6-1.1c-0.7,0-1.2,0.2-1.6,0.3c-0.7,0.3-1.4,0.5-2,0.8c0.2-0.7,0.5-1.3,0.7-2c0.7-1.8,0.2-3.1-0.3-3.8
		c-0.4-0.6-1.5-1.7-3.4-1.7c-1.9,0-3.7,0-5.5,0C69,14.5,67.2,14.5,65.4,14.5C65.4,14.5,65.4,14.5,65.4,14.5L65.4,14.5z"/>
</g>
<g>
	<path class="st3" d="M39.1,109.6c-1.3,0-2-0.6-2.5-1.2c-1.3-1.7-1.2-3.2-0.8-4.1c0.6-1.6,2.1-2,2.9-2.3c4.7-1.4,9.4-2.5,14.1-3.3
		c2.1-0.3,4.3-0.6,6.5-0.8c3.8-0.3,7.2-0.5,10.7-0.5c0.4,0,0.8,0,1.2,0c0.6,0,1.3-0.1,2-0.1c1.5,0,3.2,0.1,4.7,0.2l1.3,0.1
		c4.4,0.2,9,0.8,13.6,1.8c3.4,0.7,6.8,1.6,9.7,2.4c0.2,0.1,0.5,0.1,0.7,0.2l0.2,0.1c2.2,0.7,3.2,2.6,2.6,4.6
		c-0.7,2.4-2.5,2.8-3.5,2.8c-0.4,0-0.8-0.1-1.3-0.2c-0.8-0.2-1.6-0.4-2.4-0.6c-1.4-0.4-2.8-0.7-4.2-1c-4-0.9-7.7-1.6-11.3-2
		c-3.2-0.4-6.4-0.6-9.6-0.7c-0.5,0-1,0-1.5-0.1c-0.6,0-1.2-0.1-1.8-0.1c-0.3,0-0.5,0-0.8,0c-1.2,0.1-2.5,0.1-3.7,0.2
		c-2,0.1-4.2,0.2-6.2,0.4c-5.7,0.6-11.7,1.8-19.4,3.8C40.1,109.5,39.6,109.6,39.1,109.6z"/>
	<path class="st8" d="M73.2,99.3c1.9,0,3.9,0.1,5.9,0.3c4.5,0.2,8.9,0.8,13.3,1.7c3.2,0.7,6.4,1.5,9.6,2.4c0.3,0.1,0.5,0.2,0.8,0.3
		c1.3,0.4,1.8,1.3,1.5,2.5c-0.3,1-0.9,1.5-1.8,1.5c-0.3,0-0.5,0-0.8-0.1c-2.2-0.5-4.4-1.1-6.6-1.6c-3.8-0.9-7.6-1.6-11.5-2.1
		c-3.2-0.4-6.5-0.6-9.7-0.7c-1.1,0-2.2-0.1-3.3-0.1c-0.3,0-0.6,0-0.9,0c-3.3,0.2-6.7,0.2-10,0.6c-6.7,0.7-13.2,2.2-19.7,3.9
		c-0.3,0.1-0.6,0.2-1,0.2c-0.4,0-0.8-0.1-1.1-0.5c-0.5-0.7-0.9-1.5-0.5-2.4c0.3-0.8,1.1-1,1.8-1.3c4.5-1.4,9.2-2.5,13.9-3.2
		c2.1-0.3,4.2-0.6,6.4-0.8c3.4-0.3,6.8-0.5,10.5-0.5c0.4,0,0.8,0,1.3,0C71.9,99.3,72.6,99.3,73.2,99.3 M73.2,95.8
		c-0.7,0-1.4,0-2,0.1c-0.4,0-0.8,0-1.1,0c-3.5,0-6.9,0.2-10.8,0.5c-2.2,0.2-4.5,0.5-6.6,0.8c-4.8,0.7-9.6,1.9-14.4,3.3
		c-0.9,0.3-3.1,0.9-4,3.3c-0.5,1.1-0.9,3.4,1,5.9c0.9,1.2,2.3,1.8,3.8,1.8c0.7,0,1.4-0.1,1.8-0.3c7.6-2,13.5-3.2,19.2-3.8
		c2-0.2,4-0.3,6.1-0.4c1.2-0.1,2.5-0.1,3.7-0.2c0.2,0,0.4,0,0.7,0c0.5,0,1.1,0,1.7,0.1c0.5,0,1.1,0.1,1.6,0.1
		c3.1,0.1,6.2,0.3,9.4,0.7c3.5,0.4,7.2,1.1,11.1,2c1.4,0.3,2.8,0.7,4.1,1c0.8,0.2,1.6,0.4,2.4,0.6c0.6,0.1,1.1,0.2,1.7,0.2
		c2.5,0,4.4-1.5,5.1-4c0.9-3-0.6-5.7-3.7-6.7l-0.2-0.1c-0.2-0.1-0.5-0.2-0.8-0.3c-2.9-0.8-6.4-1.7-9.9-2.4
		c-4.7-0.9-9.3-1.5-13.8-1.8c-0.4,0-0.9,0-1.3-0.1C76.5,95.9,74.8,95.8,73.2,95.8L73.2,95.8z"/>
</g>
</svg>
