<?xml version="1.0" encoding="utf-8"?>
<!-- Generator: Adobe Illustrator 26.1.0, SVG Export Plug-In . SVG Version: 6.00 Build 0)  -->
<svg version="1.1"
	 id="Слой_1" image-rendering="optimizeQuality" shape-rendering="geometricPrecision" text-rendering="geometricPrecision" xmlns:cc="http://creativecommons.org/ns#" xmlns:dc="http://purl.org/dc/elements/1.1/" xmlns:rdf="http://www.w3.org/1999/02/22-rdf-syntax-ns#"
	 xmlns="http://www.w3.org/2000/svg" xmlns:xlink="http://www.w3.org/1999/xlink" x="0px" y="0px" viewBox="0 0 141.7 141.7"
	 style="enable-background:new 0 0 141.7 141.7;" xml:space="preserve">
<style type="text/css">
	.st0{fill:#EBEBEB;}
	.st1{fill:#1E1E1E;}
</style>
<g>
	<path class="st0" d="M78.5,55c-1.3,0.2-1.3,0.9-1.5,1.5c-2.6,7.5-6.7,10.6-14.5,10c-7.1-0.6-12.4,1.9-15.8,8.1
		c-0.8,1.5-1.5,1.9-2.3,2.5c-2.3,1.5-5.1,1.1-7.2,0.5c0.1-0.1,0.3-0.3,0.5-0.6c1.7-2,2.9-2.6,4.6-4.6c0.5-0.6,1.3-1.6,1-2.2
		c-0.1-0.2-0.4-0.4-0.5-0.5c-0.1-0.1-0.5-0.4-0.7-0.5c-0.6-0.1-1.1,0.7-1.7,1.2c-3,2.8-6.1,5.2-10.4,2.5c-0.6-0.4-1.3-0.9-1.6-1.5
		c-1.6-3.4-0.1-9.8,2.8-12.3c4.3-3.6,8.1-7.6,11.8-11.8c1.9-2.1,3.6-4.3,3.9-7.2c0.3-2.7,1.9-4.2,4.2-5.3c3.9-1.9,7.6-4,11.6-5.7
		c1.9-0.8,2.4-1.8,2.2-3.7c-0.2-2.5-0.1-5-0.1-7.8c5,2,8.9,4.7,11.2,9.4c1.1,2.2,1.3,4.3,5.2,4.5c4.2,0.1,8.2,3.1,11.6,6
		c6.3,5.3,12.2,16,13.8,27.4c1.3,9-0.3,15.8-2.7,26.6c-2.3,10.4-3.5,15.6-6,18c-11.9,11.2-39.9-1.5-48.7-1.7c-0.4,0-2.2,0-2.5-0.8
		c-0.2-0.6,0.6-1.3,1.4-2.4c1.1-1.6,1.2-2.7,1.8-4.7c0.8-2.8,1.9-6.7,4.6-9.8c1.7-2,4-3.5,5-4.3c2.9-2.2,3.9-2.5,6.5-5.7
		c4.2-5.3,3-7.5,7.7-12c1.6-1.6,3-2.6,4.1-4.8C79,60.3,78.9,57.2,78.5,55z"/>
	<path class="st1" d="M64.7,17.6c5,2,8.9,4.7,11.2,9.4c1.1,2.2,1.3,4.3,5.2,4.5c4.2,0.1,8.2,3.1,11.6,6c6.3,5.3,12.2,16,13.8,27.4
		c1.3,9-0.3,15.8-2.7,26.6c-2.3,10.4-3.5,15.6-6,18c-3.6,3.4-8.7,4.6-14.4,4.6c-12.8,0-28.2-6.2-34.4-6.3c-0.4,0-2.2,0-2.5-0.8
		c-0.2-0.6,0.6-1.3,1.4-2.4c1.1-1.6,1.2-2.7,1.8-4.7c0.8-2.8,1.9-6.7,4.6-9.8c1.7-2,4-3.5,5-4.3c2.9-2.2,3.9-2.5,6.5-5.7
		c4.2-5.3,3-7.5,7.7-12c1.6-1.6,3-2.6,4.1-4.8c1.4-3,1.3-6,0.9-8.2c-1.3,0.2-1.3,0.9-1.5,1.5c-2.3,6.9-6,10-12.6,10
		c-0.6,0-1.2,0-1.9-0.1c-0.6-0.1-1.3-0.1-1.9-0.1c-6.1,0-10.8,2.6-13.9,8.2c-0.8,1.5-1.5,1.9-2.3,2.5c-1.2,0.8-2.5,1-3.8,1
		c-1.2,0-2.4-0.2-3.4-0.5c0.1-0.1,0.3-0.3,0.5-0.6c1.7-2,2.9-2.6,4.6-4.6c0.5-0.6,1.3-1.6,1-2.2c-0.1-0.2-0.4-0.4-0.5-0.5
		c-0.1-0.1-0.5-0.4-0.7-0.5c0,0,0,0-0.1,0c-0.6,0-1.1,0.7-1.6,1.2c-2.1,1.9-4.2,3.7-6.7,3.7c-1.1,0-2.3-0.4-3.7-1.2
		c-0.6-0.4-1.3-0.9-1.6-1.5c-1.6-3.4-0.1-9.8,2.8-12.3c4.3-3.6,8.1-7.6,11.8-11.8c1.9-2.1,3.6-4.3,3.9-7.2c0.3-2.7,1.9-4.2,4.2-5.3
		c3.9-1.9,7.6-4,11.6-5.7c1.9-0.8,2.4-1.8,2.2-3.7C64.6,22.9,64.7,20.4,64.7,17.6 M64.7,13.9c-0.7,0-1.5,0.2-2.1,0.7
		c-1,0.7-1.6,1.9-1.6,3.1c0,0.9,0,1.7,0,2.5c0,1.9,0,3.7,0.2,5.6c-2.6,1.1-5.1,2.4-7.5,3.7c-1.4,0.7-2.8,1.4-4.2,2.1
		c-3.8,1.8-5.8,4.5-6.3,8.2c-0.2,1.8-1.4,3.4-3,5.2c-3.5,3.8-7.3,7.9-11.5,11.4C24.5,59.9,22.7,68.2,25,73c0.8,1.6,2.2,2.5,3,3
		c1.8,1.2,3.7,1.8,5.5,1.8c0,0.3,0.1,0.7,0.2,1c0.4,1.2,1.3,2,2.5,2.4c1.5,0.4,3,0.6,4.4,0.6c2.2,0,4.2-0.6,5.9-1.6
		c1.2-0.8,2.3-1.6,3.5-3.8c2.4-4.3,5.7-6.3,10.6-6.3c0.5,0,1.1,0,1.6,0.1c0.7,0.1,1.5,0.1,2.2,0.1c1,0,1.9-0.1,2.8-0.2
		c-0.6,1-1,1.9-1.4,2.8c-0.7,1.5-1.3,3-2.9,5c-1.6,2-2.3,2.5-3.8,3.6c-0.6,0.4-1.2,0.9-2,1.5c-0.2,0.1-0.3,0.3-0.5,0.4
		c-1.2,0.9-3.3,2.4-5,4.4c-3.2,3.7-4.5,8.2-5.4,11.2c-0.1,0.5-0.2,0.9-0.3,1.3c-0.3,1.3-0.5,1.7-0.9,2.4c-0.2,0.2-0.3,0.4-0.5,0.6
		c-0.7,0.9-2.2,2.7-1.3,5.1c0.8,2.1,2.7,3.2,5.9,3.2c2.1,0,6,1.1,10.3,2.2c7.2,1.8,16.1,4.1,24.2,4.1c7.3,0,13-1.9,16.9-5.6
		c3.4-3.2,4.5-8.4,7.1-19.9c2.4-11,4.1-18.3,2.7-27.9c-1.6-11.6-7.7-23.6-15.1-29.8c-4.1-3.5-8.7-6.7-13.8-6.9
		c-0.6,0-0.8-0.1-0.9-0.1c-0.1-0.2-0.3-0.7-0.5-1c-0.2-0.4-0.3-0.8-0.6-1.3c-2.6-5.1-6.7-8.6-13.2-11.1C65.6,14,65.2,13.9,64.7,13.9
		L64.7,13.9z"/>
	<path class="st1" d="M61.4,40.7c-0.2,3-1.2,4.5-2.6,5.6c-1.8,1.4-3.5,0.6-5.2-0.3c-0.7-0.4-1.3-0.9-0.7-2.1c1-1.9,2.5-2.5,4-2.8
		C58.3,40.9,59.7,40.9,61.4,40.7z"/>
	<path class="st0" d="M75,124.8c-11.7,0-23.5-0.1-35.2,0.1c-2.7,0-3.4-0.9-3.5-3.4c-0.2-3.4,0.8-6.2,3.3-8.6c2-1.9,3.7-4,3.9-7.1
		c0.1-2.6,2.4-2.2,4.1-2.2c15.6,0,31.1,0,46.7,0c2.9,0,5.9,0.1,8.8,0c2.2-0.1,3.5,0.6,3.7,2.8c0.2,2.6,1.6,4.5,3.4,6.2
		c1.5,1.4,2.7,3,3.3,5c1.7,5.4,0.4,7.2-5.1,7.2C97.2,124.8,86.1,124.8,75,124.8z"/>
	<path class="st1" d="M103.4,103.4c1.9,0,3.1,0.8,3.3,2.8c0.2,2.6,1.6,4.5,3.4,6.2c1.5,1.4,2.7,3.1,3.3,5c1.7,5.4,0.4,7.2-5.1,7.2
		c-11.1,0-22.2,0-33.3,0c-6.3,0-12.7,0-19,0c-5.4,0-10.8,0-16.2,0.1c-0.1,0-0.1,0-0.2,0c-2.6,0-3.3-0.9-3.4-3.4
		c-0.2-3.4,0.8-6.2,3.3-8.6c2-1.9,3.7-4,3.9-7.1c0.1-2,1.4-2.2,2.8-2.2c0.4,0,0.9,0,1.3,0c0,0,0,0,0,0c5.9,0,11.9,0,17.8,0
		c9.6,0,19.3,0,28.9,0c1.7,0,3.4,0,5.1,0c1.2,0,2.5,0,3.7-0.1C103.1,103.4,103.3,103.4,103.4,103.4 M103.4,99.8c-0.2,0-0.4,0-0.6,0
		c-1,0.1-2.1,0.1-3.5,0.1c-0.8,0-1.7,0-2.5,0c-0.9,0-1.7,0-2.6,0l-12.2,0c-5.6,0-11.2,0-16.7,0c-5.9,0-11.9,0-17.8,0
		c-0.2,0-0.4,0-0.5,0c-0.2,0-0.5,0-0.7,0c-5.8,0-6.4,4.4-6.5,5.7c-0.1,1.6-0.8,2.8-2.7,4.6c-3.2,3-4.6,6.7-4.4,11.4
		c0.2,4.6,2.6,6.9,7.1,6.9l0.2,0c4.7-0.1,9.8-0.1,16.1-0.1c3.3,0,6.6,0,10,0c3,0,6,0,9.1,0c9,0,18.1,0,27.1,0l6.2,0
		c2.5,0,6.2-0.3,8.2-3.1c2-2.7,1.3-6.2,0.4-8.9c-0.7-2.4-2.2-4.6-4.3-6.6c-1.4-1.4-2.1-2.5-2.2-3.9C110,102.1,107.4,99.8,103.4,99.8
		L103.4,99.8z"/>
</g>
</svg>
