<?xml version="1.0" encoding="utf-8"?>
<!-- Generator: Adobe Illustrator 26.1.0, SVG Export Plug-In . SVG Version: 6.00 Build 0)  -->
<svg version="1.1"
	 id="Слой_1" image-rendering="optimizeQuality" shape-rendering="geometricPrecision" text-rendering="geometricPrecision" xmlns:cc="http://creativecommons.org/ns#" xmlns:dc="http://purl.org/dc/elements/1.1/" xmlns:rdf="http://www.w3.org/1999/02/22-rdf-syntax-ns#"
	 xmlns="http://www.w3.org/2000/svg" xmlns:xlink="http://www.w3.org/1999/xlink" x="0px" y="0px" viewBox="0 0 141.7 141.7"
	 style="enable-background:new 0 0 141.7 141.7;" xml:space="preserve">
<style type="text/css">
	.st0{fill:#3F3F3F;}
	.st1{fill:#EAEAEA;}
	.st2{fill:#1E1E1E;}
	.st3{fill:#EBEBEB;}
</style>
<g>
	<path class="st0" d="M56.7,67.9c-11.5-9.5-10.2-25.1-1.7-33.2c9.1-8.7,23.1-8.5,31.9,0.2c8.5,8.5,9.3,23.8-1.9,33
		c1.9,0.6,3.7,1.3,5.3,2.4c1.9,1.2,3.4,2.6,4.4,4.6c2.2,4.4,0.1,8.3-4.8,8.8c-1,0.1-2.1,0.2-3.1,0.2c-1,0-1.2,0.3-0.9,1.2
		c1.1,4.8,3.4,9.1,6.3,13.1c3.1,4.2,6.9,7.8,11.2,10.9c2.3,1.7,4.5,3.5,5.9,6c1.5,2.6,1.8,5.3,1.3,8.2c-0.4,2.4-2.6,4.2-5.3,4.2
		c-4,0-8,0-12,0c-10.7,0-21.4,0-32.1,0c-7.7,0-15.4-0.1-23.1,0.1c-5.6,0.1-7.5-3.4-6.8-8.1c0.5-3.7,2.4-6.5,5.3-8.8
		c3.2-2.6,6.6-5,9.4-8c4.8-5.1,8.5-10.8,10.1-17.7C56,84.3,56,84,55.1,84c-1.4,0-2.9-0.1-4.3-0.4c-3.5-0.7-5.3-3.5-4.3-7
		c1-3.7,3.7-5.7,6.9-7.3C54.4,68.8,55.6,68.4,56.7,67.9z M70.9,123.9c9.2,0,18.4,0,27.6,0c2.1,0,4.3,0.1,6.4,0
		c1.6,0,2.1-0.7,2.2-2.3c0.1-3-1.1-5.6-3.1-7.8c-1.3-1.4-2.9-2.5-4.4-3.6c-8.7-6.8-15.4-14.9-17.5-26.1c-0.1-0.6-0.5-0.8-1.1-0.8
		c-6.2-0.3-12.5-0.3-18.7,0c-2.3,0.1-2.3,0.1-2.8,2.3c-1.7,7.3-5.6,13.4-10.7,18.8c-3,3.2-6.6,5.9-10.1,8.6c-2.7,2.2-4,5.1-3.9,8.5
		c0,1.9,0.6,2.4,2.5,2.5c1.7,0,3.4-0.1,5.1-0.1C51.8,123.9,61.3,123.9,70.9,123.9z M70.9,68.9c10.9,0.3,18.8-9,18.8-18.2
		c0.1-9.3-7.4-18.7-18.9-18.8C60.5,31.7,52.1,40.2,52,50.3C52,60,60.2,69.1,70.9,68.9z M57.5,80.3c0.7,0,1.3,0,2,0
		c6.4-0.2,12.8-0.4,19.2-0.1c3.4,0.1,6.8,0.3,10.2,0c3.1-0.3,3.7-1.6,2-4.3c-0.1-0.1-0.2-0.3-0.3-0.4c-2-3-8.5-5.6-12.3-4.5
		c-4.9,1.5-9.9,1.6-14.9,0.2c-3.9-1.1-7.4,0-10.7,2.2c-1.5,1-2.7,2.2-3,4.1c-0.3,1.7,0.2,2.4,1.9,2.7C53.7,80.3,55.6,80.3,57.5,80.3
		z"/>
	<path class="st1" d="M70.9,123.9c-9.5,0-19,0-28.5,0c-1.7,0-3.4,0.1-5.1,0.1c-1.9,0-2.5-0.6-2.5-2.5c-0.1-3.5,1.2-6.4,3.9-8.5
		c3.4-2.8,7-5.4,10.1-8.6c5.1-5.4,9-11.5,10.7-18.8c0.5-2.2,0.5-2.2,2.8-2.3c6.2-0.2,12.5-0.3,18.7,0c0.6,0,1,0.2,1.1,0.8
		c2.1,11.2,8.8,19.3,17.5,26.1c1.5,1.2,3.1,2.2,4.4,3.6c2,2.2,3.2,4.7,3.1,7.8c0,1.6-0.6,2.2-2.2,2.3c-2.1,0-4.3,0-6.4,0
		C89.3,123.9,80.1,123.9,70.9,123.9z"/>
	<path class="st1" d="M70.9,68.9C60.2,69.1,52,60,52,50.3c0-10.1,8.5-18.6,18.7-18.5c11.6,0.1,19,9.5,18.9,18.8
		C89.6,59.9,81.7,69.2,70.9,68.9z"/>
	<path class="st1" d="M57.5,80.3c-1.9,0-3.8,0.1-5.7-0.2c-1.6-0.3-2.2-1-1.9-2.7c0.3-1.9,1.6-3.1,3-4.1c3.2-2.2,6.8-3.3,10.7-2.2
		c5,1.4,10,1.3,14.9-0.2c3.8-1.1,10.3,1.5,12.3,4.5c0.1,0.1,0.2,0.3,0.3,0.4c1.6,2.7,1,4-2,4.3c-3.4,0.4-6.8,0.2-10.2,0
		C72.4,79.9,66,80,59.5,80.3C58.9,80.3,58.2,80.3,57.5,80.3z"/>
</g>
<g>
	<path class="st2" d="M56.9,67.9c-1.9-1.6-3.6-3.4-5-5.4c-5.6-8.4-4.5-19.9,2.5-27.2c3.9-4.1,8.7-6.5,14.4-7
		c12.6-1.1,22.7,7.7,24.3,18.7c1.2,8.4-1.6,15.3-8,20.8c-0.1,0.1-0.1,0.1-0.2,0.2c1.3,0.4,2.6,0.8,3.8,1.4c2.2,1.1,4.3,2.5,5.7,4.7
		c1,1.5,1.5,3.2,1.3,5c-0.4,2.6-2.1,4.1-4.8,4.6c-1.5,0.2-3,0.3-4.5,0.3c-0.4,0-0.5,0.1-0.4,0.5c0.7,3.9,2.3,7.5,4.4,10.9
		c3.5,5.7,8.2,10.2,13.5,14.1c2.2,1.6,4.2,3.3,5.5,5.7c1.5,2.7,2,5.5,1.3,8.5c-0.5,2.3-2.5,3.8-4.8,3.9c-2.6,0.1-5.3,0-7.9,0
		c-8.9,0-17.8,0-26.6,0c-6.8,0-13.5,0-20.3,0c-4.5,0-9,0-13.5,0.1c-0.9,0-1.9-0.1-2.8-0.4c-2.3-0.8-3.5-2.8-3.6-5.4
		c-0.2-4.7,1.9-8.2,5.4-11.1c2.2-1.8,4.5-3.4,6.6-5.3c4.9-4.4,8.9-9.6,11.5-15.7c0.7-1.7,1.2-3.4,1.6-5.2c0.1-0.5,0-0.7-0.5-0.6
		c-1.7,0-3.4,0-5-0.4c-3.1-0.7-4.8-3.4-4.1-6.6c0.5-2.4,1.9-4.2,3.8-5.7c1.9-1.5,4-2.5,6.3-3.2c0.2,0,0.3-0.1,0.5-0.1
		C56.8,68,56.8,68,56.9,67.9z"/>
	<path class="st3" d="M70.8,124.1c-11.2,0-22.4,0-33.6,0c-0.4,0-0.8,0-1.1,0c-1.1-0.2-1.5-0.9-1.6-2.4c0-2.4,0.8-4.6,2.4-6.4
		c1.6-1.8,3.6-3,5.4-4.5c2.6-2.1,5.1-4.4,7.3-6.9c1.9-2.1,3.6-4.4,5.1-6.9c2.2-3.5,3.8-7.3,4.7-11.4c0.1-0.6,0-1.4,0.4-1.7
		c0.4-0.3,1.1-0.1,1.7-0.1c1.9-0.1,3.8,0,5.8-0.2c2-0.1,4.1-0.1,6.1-0.1c2.7,0.1,5.4,0.2,8.1,0.2c0.3,0,0.5,0,0.5,0.4
		c0.4,2.8,1.2,5.4,2.3,8c1.5,3.3,3.4,6.4,5.6,9.3c2,2.6,4.3,4.9,6.8,7.1c1.9,1.6,3.9,3.1,5.9,4.7c1.7,1.3,3.2,2.9,4,5
		c0.5,1.4,0.6,2.8,0.5,4.2c-0.1,1-0.9,1.6-1.9,1.6c-3,0-5.9,0-8.9,0C87.8,124.1,79.3,124.1,70.8,124.1
		C70.8,124.1,70.8,124.1,70.8,124.1z"/>
	<path class="st3" d="M70.5,31.9c4.9,0.1,8.9,1.5,12.4,4.3c3.7,3,5.9,6.9,6.7,11.6c0.6,3.6,0.1,7.1-1.5,10.4
		c-1.1,2.3-2.5,4.3-4.4,5.9c-2.7,2.4-5.7,4-9.3,4.6c-1.3,0.2-2.5,0.4-3.8,0.3c-4.3-0.1-8.1-1.4-11.5-4.1c-3.3-2.6-5.5-6-6.6-10.1
		c-0.4-1.5-0.6-3.1-0.6-4.6c0.1-4.1,1.4-7.8,3.9-11c3.1-4,7.3-6.4,12.2-7.2C69,31.9,70,31.8,70.5,31.9z"/>
	<path class="st3" d="M84.2,80.3c-1.5,0-2.9,0.1-4.4,0c-4.3-0.3-8.6-0.3-12.9-0.2c-4.4,0.1-8.8,0.2-13.1,0.2c-1,0-1.9-0.2-2.8-0.4
		c-0.6-0.2-1-0.7-1.1-1.4c-0.1-1.3,0.5-2.3,1.3-3.2c2-2.2,4.5-3.2,7.3-3.9c2.2-0.6,4.4-0.1,6.5,0.5c1.4,0.4,2.8,0.5,4.2,0.6
		c3.4,0.3,6.7-0.3,10-1.2c1.2-0.3,2.5-0.3,3.7-0.1c2.3,0.4,4.4,1.3,6.3,2.6c1.3,0.9,2.3,2.1,2.8,3.6c0.3,1,0.1,2.3-1.5,2.5
		c-1,0.2-2.1,0.3-3.1,0.3C86.2,80.3,85.2,80.3,84.2,80.3C84.2,80.3,84.2,80.3,84.2,80.3z"/>
</g>
</svg>
