<?xml version="1.0" encoding="utf-8"?>
<!-- Generator: Adobe Illustrator 26.1.0, SVG Export Plug-In . SVG Version: 6.00 Build 0)  -->
<svg version="1.1"
	 id="Слой_1" image-rendering="optimizeQuality" shape-rendering="geometricPrecision" text-rendering="geometricPrecision" xmlns:cc="http://creativecommons.org/ns#" xmlns:dc="http://purl.org/dc/elements/1.1/" xmlns:rdf="http://www.w3.org/1999/02/22-rdf-syntax-ns#"
	 xmlns="http://www.w3.org/2000/svg" xmlns:xlink="http://www.w3.org/1999/xlink" x="0px" y="0px" viewBox="0 0 141.7 141.7"
	 style="enable-background:new 0 0 141.7 141.7;" xml:space="preserve">
<style type="text/css">
	.st0{fill:#EBEBEB;}
	.st1{fill:#1E1E1E;}
</style>
<g>
	<path class="st0" d="M98.4,56.6c0,4,0,7.9,0,11.9c0,0.6-0.1,1.2-0.1,1.9c-0.1,0.8,0,1.5,0.8,1.9c0.9,0.4,1.5-0.1,2-0.8
		c4.1-5.9,8.7-11.4,12.9-17.2c0.4-0.5,0.7-0.8,1-0.8c0.1,0,0.3,0,0.5,0.1c0.3,0.1,0.4,0.2,0.8,0.4c0.7,0.4,0.9,0.4,1.2,0.7
		c0.2,0.2,0.3,0.2,0.3,0.4c0.1,0.3,0,0.6-0.3,1.2c-0.3,0.6-0.4,0.9-0.4,0.9c-0.7,1.4-10.8,32.9-11.9,36.3c-0.3,1-0.7,1.2-1.7,1
		c-13.3-3.3-26.9-4.3-40.6-3.6c-8.4,0.4-16.7,1.7-24.9,3.7c-0.9,0.2-1.3,0.1-1.6-0.9C32.4,80.8,28.2,68.2,24,55.6
		c-0.2-0.6-0.3-0.9,0.4-1.1c0.2,0,0.3-0.1,0.5-0.2c0.7-0.2,1.4-1.1,2-0.9c0.7,0.3,1.1,1.2,1.6,1.9c3.5,4.5,7,9.1,10.5,13.6
		c0.6,0.9,1.2,1.8,1.9,2.6c0.4,0.6,1,1,1.8,0.7c0.8-0.3,0.9-1,0.9-1.7c-0.3-7.9-0.1-15.7-0.1-23.6c0-1,0.1-2-0.1-3
		c-0.1-0.5-0.1-0.9,0.6-0.9c1.1,0,2.2-0.3,3.2-0.7c0.5-0.2,0.7-0.1,0.9,0.4c2.9,7.8,6.9,15.1,10.1,22.8c0.4,0.9,0.8,1.7,1.1,2.6
		c0.3,0.7,0.8,1,1.5,0.9c0.8-0.1,1-0.6,1.1-1.3c1.8-9.4,4-18.7,6.1-28c0.2-1,0.1-2.2,0.6-2.9c0.3-0.3,0.7-0.3,0.7-0.3
		c0.2,0,0.3,0,0.4,0c0.6,0,1.1,0,1.2,0c0.4,0,1.3,0,1.8,0c0.1,0,0.2,0,0.3,0.1c0,0,0.2,0.1,0.3,0.3c0.3,0.6,0.2,1.4,0.4,2.1
		c1.6,7.4,3.3,14.7,4.9,22.1c0.5,2.1,0.9,4.3,1.3,6.5c0.1,0.7,0.3,1.2,1.1,1.3c0.8,0.1,1.3-0.2,1.6-1c1.8-4.4,3.9-8.7,5.8-13
		c1.4-3.1,2.8-6.1,4.2-9.1c0.5-1,0.8-2,1.1-3c0.2-0.6,0.4-0.8,1-0.5c1,0.4,2,0.7,3.1,0.7c0.2,0,0.4,0.1,0.5,0.2
		c0.2,0.2,0.1,0.5,0.1,0.6C98.4,44.5,98.4,49.5,98.4,56.6z"/>
	<path class="st1" d="M71.7,36.8c0.3,0,0.7,0,1,0c0.1,0,0.2,0,0.3,0.1c0,0,0.2,0.1,0.3,0.3c0.3,0.6,0.2,1.4,0.4,2.1
		c1.6,7.4,3.3,14.7,4.9,22.1c0.5,2.1,0.9,4.3,1.3,6.5c0.1,0.7,0.3,1.2,1.1,1.3c0.1,0,0.2,0,0.3,0c0.6,0,1.1-0.3,1.3-1
		c1.8-4.4,3.9-8.7,5.8-13c1.4-3.1,2.8-6.1,4.2-9.1c0.5-1,0.8-2,1.1-3c0.1-0.4,0.3-0.7,0.6-0.7c0.1,0,0.3,0,0.5,0.1
		c1,0.4,2,0.7,3.1,0.7c0.2,0,0.4,0.1,0.5,0.2c0.2,0.2,0.1,0.5,0.1,0.6c-0.1,0.6-0.1,5.6-0.1,12.7c0,4,0,7.9,0,11.9
		c0,0.6-0.1,1.2-0.1,1.9c-0.1,0.8,0,1.5,0.8,1.9c0.2,0.1,0.4,0.1,0.6,0.1c0.6,0,1-0.4,1.4-0.9c4.1-5.9,8.7-11.4,12.9-17.2
		c0.4-0.5,0.7-0.8,1-0.8c0,0,0,0,0,0c0.1,0,0.3,0.1,0.5,0.1c0.3,0.1,0.4,0.2,0.8,0.4c0.7,0.4,0.9,0.4,1.2,0.7
		c0.2,0.2,0.3,0.2,0.3,0.4c0.1,0.3,0,0.6-0.3,1.2c-0.3,0.6-0.4,0.9-0.4,0.9c-0.7,1.4-10.8,32.9-11.9,36.3c-0.2,0.8-0.5,1.1-1.1,1.1
		c-0.2,0-0.4,0-0.6-0.1c-10.8-2.7-21.8-3.8-32.8-3.8c-2.6,0-5.2,0.1-7.8,0.2c-8.4,0.4-16.7,1.7-24.9,3.7c-0.2,0.1-0.5,0.1-0.6,0.1
		c-0.5,0-0.8-0.3-1-1C32.4,80.8,28.2,68.2,24,55.6c-0.2-0.6-0.3-0.9,0.4-1.1c0.2,0,0.3-0.1,0.5-0.2c0.6-0.2,1.2-0.9,1.8-0.9
		c0.1,0,0.2,0,0.2,0c0.7,0.3,1.1,1.2,1.6,1.9c3.5,4.5,7,9.1,10.5,13.6c0.6,0.9,1.2,1.8,1.9,2.6c0.3,0.5,0.7,0.8,1.3,0.8
		c0.2,0,0.3,0,0.5-0.1c0.8-0.3,0.9-1,0.9-1.7c-0.3-7.9-0.1-15.7-0.1-23.6c0-1,0.1-2-0.1-3c-0.1-0.5-0.1-0.9,0.6-0.9c0,0,0,0,0,0
		c0,0,0.1,0,0.1,0c1.1,0,2.1-0.3,3.1-0.7c0.1-0.1,0.3-0.1,0.4-0.1c0.3,0,0.4,0.2,0.6,0.5c2.9,7.8,6.9,15.1,10.1,22.8
		c0.4,0.9,0.8,1.7,1.1,2.6c0.3,0.6,0.7,0.9,1.3,0.9c0.1,0,0.1,0,0.2,0c0.8-0.1,1-0.6,1.1-1.3c1.8-9.4,4-18.7,6.1-28
		c0.2-1,0.1-2.2,0.6-2.9c0.2-0.3,0.6-0.3,0.7-0.3c0,0,0,0,0,0c0.2,0,0.3,0,0.4,0c0.2,0,0.4,0,0.6,0c0.3,0,0.6,0,0.7,0c0,0,0,0,0,0
		C71.1,36.8,71.4,36.8,71.7,36.8 M71.7,33.1c-0.2,0-0.4,0-0.5,0l-0.3,0l-0.1,0l-0.5,0c-0.2,0-0.4,0-0.6,0c-0.2,0-0.4,0-0.7,0
		c-1.1,0.1-2.2,0.6-2.9,1.4c-1.2,1.3-1.3,3-1.4,4c0,0.2,0,0.5-0.1,0.6c-0.4,1.6-0.7,3.2-1.1,4.8c-1.2,5.5-2.5,11.1-3.7,16.7
		c-0.9-2-1.8-4-2.8-6c-2-4.3-4.1-8.7-5.7-13.1c-0.8-2.1-2.5-2.8-3.8-2.8c-0.6,0-1.2,0.1-1.7,0.4c-0.7,0.3-1.2,0.4-1.7,0.4
		c0,0-0.1,0-0.1,0c-1.8,0-2.8,0.9-3.3,1.5c-0.8,1-1,2.3-0.7,3.7c0.1,0.4,0.1,1,0.1,1.6c0,0.2,0,0.4,0,0.6c0,2.2,0,4.5,0,6.7
		c0,3.5,0,7,0,10.5c-2.5-3.3-5.1-6.7-7.6-10l-0.9-1.2c-0.1-0.1-0.2-0.2-0.3-0.4c-0.5-0.8-1.3-2-2.7-2.6c-0.5-0.2-1-0.3-1.6-0.3
		c-1.4,0-2.4,0.7-2.9,1.1c0,0-0.1,0.1-0.1,0.1c-0.1,0-0.1,0.1-0.2,0.1c-1.4,0.4-2.2,1.2-2.6,1.9c-1,1.6-0.4,3.3-0.2,3.8
		c4,12.1,8.3,25,12.5,37.9c1,3.1,3.4,3.5,4.3,3.5c0.4,0,0.9-0.1,1.4-0.2c8.5-2,16.4-3.2,24.2-3.6c2.6-0.1,5.1-0.2,7.6-0.2
		c11.4,0,21.9,1.2,32,3.7c0.5,0.1,1,0.2,1.5,0.2c1.2,0,3.4-0.5,4.4-3.5c0.2-0.6,0.7-2.1,1.3-4.1c2.4-7.3,9.5-29.5,10.4-31.7
		c0.1-0.1,0.2-0.3,0.5-1.1c0.3-0.8,0.9-2.2,0.3-3.9c-0.4-1-1-1.5-1.3-1.8c-0.6-0.5-1.1-0.8-1.5-1c-0.1-0.1-0.3-0.1-0.4-0.2l-0.2-0.1
		c-0.3-0.2-0.6-0.3-1.2-0.5l-0.1,0c-0.3-0.1-0.8-0.3-1.4-0.3c-0.1,0-0.2,0-0.4,0c-1.4,0.1-2.5,0.9-3.5,2.2c-1.7,2.3-3.5,4.7-5.3,6.9
		c-1.3,1.7-2.6,3.4-3.9,5.1c0-1.5,0-3.1,0-4.6l0-2.9c0-9.3,0-11.9,0.1-12.4c0.2-1.8-0.6-2.9-1.1-3.5c-0.5-0.6-1.5-1.2-3-1.3
		c-0.6,0-1.2-0.1-1.7-0.4c-0.6-0.3-1.2-0.4-1.8-0.4c-1.5,0-3.4,0.9-4,3.4c-0.2,0.8-0.5,1.5-0.9,2.3c-1.3,2.7-2.8,5.9-4.3,9.2
		c-0.6,1.3-1.2,2.6-1.8,4c-0.5,1-0.9,2-1.4,3.1c0,0,0,0,0-0.1c-0.8-3.8-1.7-7.7-2.6-11.5c-0.8-3.5-1.6-7.1-2.4-10.6
		c0-0.1,0-0.2,0-0.3c0-0.6-0.1-1.7-0.7-2.8c-0.4-0.7-1-1.4-1.8-1.8l0,0c-0.5-0.2-1-0.4-1.5-0.4C72.7,33.2,72.3,33.1,71.7,33.1
		L71.7,33.1z"/>
	<path class="st0" d="M70.9,123.1c-11.5,0-23,0-34.4,0c-0.9,0-1.8-0.1-2.7-0.2c-2.4-0.4-3.4-2-2.6-4.4c0.5-1.7,1.5-3.2,2.6-4.6
		c1.5-1.9,3.1-3.8,3.7-6.2c0.1-0.4,0.4-0.4,0.7-0.5c9-2.4,18.1-3.9,27.3-4.3c12.4-0.6,24.6,0.9,36.6,3.9c1.3,0.3,2.2,0.8,2.6,2.2
		c0.6,1.8,1.9,3.2,3.1,4.7c1.2,1.5,2.3,3,2.8,4.9c0.6,2.2-0.2,3.6-2.3,4.2c-1.1,0.3-2.2,0.3-3.4,0.3
		C93.6,123.1,82.3,123.1,70.9,123.1z"/>
	<path class="st1" d="M70.8,102.6c10.6,0,21,1.4,31.3,4c1.3,0.3,2.2,0.8,2.6,2.2c0.6,1.8,1.9,3.2,3.1,4.7c1.2,1.5,2.3,3,2.8,4.9
		c0.6,2.2-0.2,3.6-2.3,4.2c-1.1,0.3-2.2,0.3-3.4,0.3c-6.4,0-12.8,0-19.2,0c-5,0-9.9,0-14.9,0c-4.6,0-9.2,0-13.8,0
		c-6.9,0-13.8,0-20.7,0c-0.9,0-1.8-0.1-2.7-0.2c-2.4-0.4-3.4-2-2.6-4.4c0.5-1.7,1.5-3.2,2.6-4.6c1.5-1.9,3.1-3.8,3.7-6.2
		c0.1-0.4,0.4-0.4,0.7-0.5c9-2.4,18.1-3.9,27.3-4.3C67.3,102.7,69.1,102.6,70.8,102.6 M70.8,99L70.8,99c-1.8,0-3.6,0-5.5,0.1
		c-9.1,0.4-18.5,1.9-28,4.4c-2.2,0.5-3,2.1-3.2,3.1c-0.4,1.5-1.4,2.8-2.6,4.3l-0.5,0.6c-1.3,1.6-2.5,3.4-3.2,5.8
		c-0.8,2.8-0.2,4.8,0.5,5.9c0.7,1.2,2.1,2.7,4.9,3.1c1.1,0.2,2.2,0.3,3.2,0.3c6.9,0,13.8,0,20.7,0l6.9,0l6.9,0h7.4h7.4l19.2,0
		c1.3,0,2.8-0.1,4.3-0.5c2.5-0.7,3.7-2.1,4.3-3.2c0.6-1.1,1.2-2.9,0.5-5.5c-0.7-2.5-2.1-4.4-3.4-6.2c-0.3-0.3-0.5-0.7-0.8-1
		c-0.8-0.9-1.5-1.8-1.7-2.6c-1.1-3.6-4-4.3-5.1-4.6C92.1,100.4,81.3,99,70.8,99L70.8,99z"/>
	<path class="st0" d="M70.8,94.4c11.5-0.3,22.6,1.3,33.5,4c0.5,0.1,1.1,0.3,1.6,0.6c1.1,0.6,1.4,1.5,1,2.8c-0.4,1.3-1.1,1.9-2.3,1.7
		c-2.1-0.4-4.1-0.9-6.2-1.4c-7.5-1.7-15.1-2.7-22.7-3c-12.6-0.5-25.1,1-37.3,4.1c-1.1,0.3-2.2,0.6-3.1-0.3c-1.3-1.4-0.9-3.6,1-4.2
		c2.5-0.8,5-1.3,7.6-1.8C52.9,95.1,61.9,94.1,70.8,94.4z"/>
	<path class="st1" d="M67.7,94.3c1,0,2.1,0,3.1,0.1c1,0,2,0,2.9,0c10.5,0,20.6,1.6,30.6,4c0.5,0.1,1.1,0.3,1.6,0.6
		c1.1,0.6,1.4,1.5,1,2.8c-0.3,1.1-0.9,1.7-1.9,1.7c-0.1,0-0.3,0-0.5,0c-2.1-0.4-4.1-0.9-6.2-1.4c-7.5-1.7-15.1-2.7-22.7-3
		c-1.7-0.1-3.3-0.1-5-0.1c-10.9,0-21.7,1.5-32.3,4.2c-0.5,0.1-1.1,0.3-1.6,0.3c-0.5,0-1-0.2-1.5-0.6c-1.3-1.4-0.9-3.6,1-4.2
		c2.5-0.8,5-1.3,7.6-1.8C51.8,95.3,59.8,94.3,67.7,94.3 M67.7,90.7C67.7,90.7,67.7,90.7,67.7,90.7c-7.6,0-15.5,0.9-24.4,2.6
		l-1.1,0.2c-2.2,0.4-4.5,0.9-6.9,1.7c-2,0.7-3.6,2.3-4,4.4c-0.5,2,0.1,4.2,1.6,5.8c1.1,1.1,2.5,1.7,4,1.7c0.9,0,1.7-0.2,2.3-0.4
		l0.1,0c10.6-2.7,21.2-4.1,31.5-4.1c1.6,0,3.2,0,4.8,0.1c7.5,0.3,15,1.3,22.1,2.9c0.6,0.1,1.3,0.3,1.9,0.4c1.4,0.3,2.9,0.7,4.4,1
		c0.4,0.1,0.7,0.1,1.1,0.1c2.5,0,4.4-1.6,5.2-4.3c0.9-3-0.2-5.7-2.8-7.1c-0.7-0.4-1.4-0.6-2.4-0.9c-11.3-2.8-21.6-4.1-31.4-4.1
		c-1,0-2,0-2.9,0C69.8,90.7,68.7,90.7,67.7,90.7L67.7,90.7z"/>
	<path class="st0" d="M63.5,25.8c0-4,3.4-7.5,7.3-7.5c4,0,7.4,3.5,7.4,7.7c0,4-3.4,7.4-7.4,7.3C66.8,33.3,63.5,29.9,63.5,25.8z"/>
	<path class="st1" d="M70.9,18.3c4,0,7.4,3.5,7.3,7.7c0,4-3.4,7.3-7.4,7.3c0,0,0,0-0.1,0c-4,0-7.2-3.4-7.2-7.5
		C63.6,21.8,66.9,18.3,70.9,18.3C70.8,18.3,70.9,18.3,70.9,18.3 M70.9,14.7C70.9,14.7,70.8,14.7,70.9,14.7
		c-5.9,0-10.8,5.1-10.8,11.1c0,6.1,4.8,11.1,10.7,11.1l0.1,0c5.9,0,10.8-4.9,10.9-10.9c0-3-1.1-5.9-3.2-8
		C76.4,15.9,73.7,14.7,70.9,14.7L70.9,14.7z"/>
	<path class="st0" d="M43.2,39.5c-3.8,0-7.2-3.7-7.1-7.7c0.1-4.1,3.2-7.3,7.3-7.3c4.1,0,7,3,7,7.3C50.4,36,47.1,39.5,43.2,39.5z"/>
	<path class="st1" d="M43.4,24.5C43.4,24.5,43.4,24.5,43.4,24.5c4.1,0,7,3,7,7.3c0,4.1-3.2,7.6-7.1,7.6c0,0,0,0,0,0
		c-3.8,0-7.2-3.7-7.1-7.7C36.2,27.7,39.3,24.5,43.4,24.5 M43.4,20.9c-5.9,0-10.7,4.7-10.8,10.8c0,2.9,1.1,5.8,3.2,8
		c2,2.1,4.7,3.3,7.4,3.4c0,0,0.1,0,0.1,0c2.8,0,5.4-1.1,7.4-3.2c2.1-2.1,3.2-5.1,3.2-8C53.9,25.5,49.4,21,43.4,20.9
		C43.4,20.9,43.4,20.9,43.4,20.9L43.4,20.9z"/>
	<path class="st0" d="M98.3,39.5c-3.9,0-7-3.5-7-7.7c0-4.2,3-7.3,7.1-7.2c4.2,0.1,7.2,3.3,7.1,7.5C105.5,36.1,102.1,39.5,98.3,39.5z
		"/>
	<path class="st1" d="M98.3,24.5c0.1,0,0.1,0,0.2,0c4.2,0.1,7.2,3.3,7.1,7.5c-0.1,4-3.4,7.4-7.1,7.4c0,0-0.1,0-0.1,0
		c-3.9,0-7-3.5-7-7.7C91.4,27.5,94.3,24.5,98.3,24.5 M98.3,20.9C98.3,20.9,98.3,20.9,98.3,20.9c-5.9,0-10.4,4.6-10.4,10.8
		c-0.1,6.2,4.6,11.3,10.4,11.4l0.1,0c5.7,0,10.6-5,10.7-11c0.1-6.3-4.4-11.1-10.6-11.2L98.3,20.9L98.3,20.9z"/>
	<path class="st0" d="M127.8,44c0,4.3-3,7.5-7.1,7.5c-3.9,0-7-3.4-7-7.5c0-4.1,3.2-7.3,7.2-7.3C125.1,36.7,127.9,39.7,127.8,44z"/>
	<path class="st1" d="M120.8,36.7C120.9,36.7,120.9,36.7,120.8,36.7c4.3,0,7,3,7,7.3c0,4.3-3,7.5-7.1,7.5c0,0,0,0,0,0
		c-3.9,0-7-3.4-7-7.5C113.7,39.9,116.9,36.7,120.8,36.7 M120.8,33.1L120.8,33.1c-2.9,0-5.6,1.1-7.6,3.2c-2,2-3.1,4.8-3.1,7.7
		c0,6.1,4.7,11.1,10.6,11.1c6.1,0,10.6-4.8,10.6-11.1c0-6.4-4.3-10.9-10.4-10.9L120.8,33.1L120.8,33.1z"/>
	<path class="st0" d="M13.9,44c0-4.4,2.7-7.2,6.9-7.3c4,0,7.2,3.2,7.2,7.3c0,4.1-3.2,7.5-7.1,7.5C16.8,51.5,13.9,48.4,13.9,44z"/>
	<path class="st1" d="M20.9,36.7c4,0,7.2,3.2,7.2,7.3c0,4.1-3.2,7.5-7,7.5c0,0,0,0,0,0c-4.1,0-7.1-3.1-7.1-7.5
		C13.9,39.6,16.6,36.7,20.9,36.7C20.8,36.7,20.9,36.7,20.9,36.7 M20.9,33.1L20.9,33.1c-6.2,0-10.5,4.5-10.5,10.9
		c0,6.4,4.4,11.1,10.6,11.1c0,0,0.1,0,0.1,0c5.8,0,10.5-5,10.6-11.1c0-2.9-1.1-5.6-3.1-7.7C26.5,34.2,23.8,33.1,20.9,33.1L20.9,33.1
		z"/>
</g>
</svg>
