<?xml version="1.0" encoding="utf-8"?>
<!-- Generator: Adobe Illustrator 26.1.0, SVG Export Plug-In . SVG Version: 6.00 Build 0)  -->
<svg version="1.1"
	 id="Слой_1" image-rendering="optimizeQuality" text-rendering="geometricPrecision" shape-rendering="geometricPrecision" xmlns:cc="http://creativecommons.org/ns#" xmlns:dc="http://purl.org/dc/elements/1.1/" xmlns:rdf="http://www.w3.org/1999/02/22-rdf-syntax-ns#"
	 xmlns="http://www.w3.org/2000/svg" xmlns:xlink="http://www.w3.org/1999/xlink" x="0px" y="0px" viewBox="0 0 141.7 141.7"
	 style="enable-background:new 0 0 141.7 141.7;" xml:space="preserve">
<style type="text/css">
	.st0{fill:#EBEBEB;}
	.st1{fill:#1E1E1E;}
</style>
<g>
	<path class="st0" d="M95.2,57c0,3.5,0,7,0,10.5c0,0.5-0.1,1.1-0.1,1.7c-0.1,0.7,0,1.3,0.7,1.7c0.8,0.4,1.3-0.1,1.8-0.7
		c3.6-5.2,7.7-10.1,11.4-15.2c0.4-0.4,0.6-0.7,0.9-0.7c0.1,0,0.3,0,0.4,0.1c0.3,0.1,0.4,0.2,0.7,0.4c0.6,0.4,0.8,0.4,1.1,0.6
		c0.2,0.2,0.3,0.2,0.3,0.4c0.1,0.3,0,0.5-0.3,1.1c-0.3,0.5-0.4,0.8-0.4,0.8c-0.6,1.2-9.6,29.1-10.5,32.1c-0.3,0.9-0.6,1.1-1.5,0.9
		c-11.8-2.9-23.8-3.8-35.9-3.2c-7.4,0.4-14.8,1.5-22,3.3c-0.8,0.2-1.2,0.1-1.4-0.8c-3.5-11.4-7.3-22.6-11-33.7
		c-0.2-0.5-0.3-0.8,0.4-1c0.2,0,0.3-0.1,0.4-0.2c0.6-0.2,1.2-1,1.8-0.8c0.6,0.3,1,1.1,1.4,1.7c3.1,4,6.2,8.1,9.3,12
		c0.5,0.8,1.1,1.6,1.7,2.3c0.4,0.5,0.9,0.9,1.6,0.6c0.7-0.3,0.8-0.9,0.8-1.5c-0.3-7-0.1-13.9-0.1-20.9c0-0.9,0.1-1.8-0.1-2.7
		c-0.1-0.4-0.1-0.8,0.5-0.8c1,0,1.9-0.3,2.8-0.6c0.4-0.2,0.6-0.1,0.8,0.4c2.6,6.9,6.1,13.4,8.9,20.2c0.4,0.8,0.7,1.5,1,2.3
		c0.3,0.6,0.7,0.9,1.3,0.8c0.7-0.1,0.9-0.5,1-1.2c1.6-8.3,3.5-16.6,5.4-24.8c0.2-0.9,0.1-1.9,0.5-2.6c0.3-0.3,0.6-0.3,0.6-0.3
		c0.2,0,0.3,0,0.4,0c0.5,0,1,0,1.1,0c0.4,0,1.2,0,1.6,0c0.1,0,0.2,0,0.3,0.1c0,0,0.2,0.1,0.3,0.3c0.3,0.5,0.2,1.2,0.4,1.9
		c1.4,6.5,2.9,13,4.3,19.6c0.4,1.9,0.8,3.8,1.2,5.8c0.1,0.6,0.3,1.1,1,1.2c0.7,0.1,1.2-0.2,1.4-0.9c1.6-3.9,3.5-7.7,5.1-11.5
		c1.2-2.7,2.5-5.4,3.7-8.1c0.4-0.9,0.7-1.8,1-2.7c0.2-0.5,0.4-0.7,0.9-0.4c0.9,0.4,1.8,0.6,2.7,0.6c0.2,0,0.4,0.1,0.4,0.2
		c0.2,0.2,0.1,0.4,0.1,0.5C95.2,46.2,95.2,50.7,95.2,57z"/>
	<path class="st1" d="M71.6,39.4c0.3,0,0.6,0,0.9,0c0.1,0,0.2,0,0.3,0.1c0,0,0.2,0.1,0.3,0.3c0.3,0.5,0.2,1.2,0.4,1.9
		c1.4,6.5,2.9,13,4.3,19.6c0.4,1.9,0.8,3.8,1.2,5.8c0.1,0.6,0.3,1.1,1,1.2c0.1,0,0.2,0,0.3,0c0.5,0,1-0.3,1.2-0.9
		c1.6-3.9,3.5-7.7,5.1-11.5c1.2-2.7,2.5-5.4,3.7-8.1c0.4-0.9,0.7-1.8,1-2.7c0.1-0.4,0.3-0.6,0.5-0.6c0.1,0,0.3,0,0.4,0.1
		c0.9,0.4,1.8,0.6,2.7,0.6c0.2,0,0.4,0.1,0.4,0.2c0.2,0.2,0.1,0.4,0.1,0.5c-0.1,0.5-0.1,5-0.1,11.2c0,3.5,0,7,0,10.5
		c0,0.5-0.1,1.1-0.1,1.7c-0.1,0.7,0,1.3,0.7,1.7C96,71,96.2,71,96.4,71c0.5,0,0.9-0.4,1.2-0.8c3.6-5.2,7.7-10.1,11.4-15.2
		c0.4-0.4,0.6-0.7,0.9-0.7l0,0c0.1,0,0.3,0.1,0.4,0.1c0.3,0.1,0.4,0.2,0.7,0.4c0.6,0.4,0.8,0.4,1.1,0.6c0.2,0.2,0.3,0.2,0.3,0.4
		c0.1,0.3,0,0.5-0.3,1.1c-0.3,0.5-0.4,0.8-0.4,0.8c-0.6,1.2-9.6,29.1-10.5,32.1c-0.2,0.7-0.4,1-1,1c-0.2,0-0.4,0-0.5-0.1
		c-9.6-2.4-19.3-3.4-29-3.4c-2.3,0-4.6,0.1-6.9,0.2c-7.4,0.4-14.8,1.5-22,3.3c-0.2,0.1-0.4,0.1-0.5,0.1c-0.4,0-0.7-0.3-0.9-0.9
		c-3.5-11.5-7.3-22.7-11-33.8c-0.2-0.5-0.3-0.8,0.4-1c0.2,0,0.3-0.1,0.4-0.2c0.5-0.2,1.1-0.8,1.6-0.8c0.1,0,0.2,0,0.2,0
		c0.6,0.3,1,1.1,1.4,1.7c3.1,4,6.2,8.1,9.3,12c0.5,0.8,1.1,1.6,1.7,2.3c0.3,0.4,0.6,0.7,1.2,0.7c0.2,0,0.3,0,0.4-0.1
		c0.7-0.3,0.8-0.9,0.8-1.5c-0.3-7-0.1-13.9-0.1-20.9c0-0.9,0.1-1.8-0.1-2.7c-0.1-0.4-0.1-0.8,0.5-0.8l0,0h0.1c1,0,1.9-0.3,2.7-0.6
		c0.1-0.1,0.3-0.1,0.4-0.1c0.3,0,0.4,0.2,0.5,0.4c2.6,6.9,6.1,13.4,8.9,20.2c0.4,0.8,0.7,1.5,1,2.3c0.3,0.5,0.6,0.8,1.2,0.8
		c0.1,0,0.1,0,0.2,0c0.7-0.1,0.9-0.5,1-1.2c1.6-8.3,3.5-16.6,5.4-24.8c0.2-0.9,0.1-1.9,0.5-2.6c0.2-0.3,0.5-0.3,0.6-0.3l0,0
		c0.2,0,0.3,0,0.4,0c0.2,0,0.4,0,0.5,0c0.3,0,0.5,0,0.6,0l0,0C71.1,39.4,71.3,39.4,71.6,39.4 M71.6,36.2c-0.2,0-0.4,0-0.4,0h-0.3
		h-0.1h-0.4c-0.2,0-0.4,0-0.5,0c-0.2,0-0.4,0-0.6,0c-1,0.1-1.9,0.5-2.6,1.2c-1.1,1.2-1.2,2.7-1.2,3.5c0,0.2,0,0.4-0.1,0.5
		c-0.4,1.4-0.6,2.8-1,4.2c-1.1,4.9-2.2,9.8-3.3,14.8c-0.8-1.8-1.6-3.5-2.5-5.3c-1.8-3.8-3.6-7.7-5-11.6c-0.7-1.9-2.2-2.5-3.4-2.5
		c-0.5,0-1.1,0.1-1.5,0.4c-0.6,0.3-1.1,0.4-1.5,0.4h-0.1c-1.6,0-2.5,0.8-2.9,1.3c-0.7,0.9-0.9,2-0.6,3.3c0.1,0.4,0.1,0.9,0.1,1.4
		c0,0.2,0,0.4,0,0.5c0,1.9,0,4,0,5.9c0,3.1,0,6.2,0,9.3c-2.2-2.9-4.5-5.9-6.7-8.9l-0.8-1.1c-0.1-0.1-0.2-0.2-0.3-0.4
		c-0.4-0.7-1.2-1.8-2.4-2.3c-0.4-0.2-0.9-0.3-1.4-0.3c-1.2,0-2.1,0.6-2.6,1l-0.1,0.1c-0.1,0-0.1,0.1-0.2,0.1
		c-1.2,0.4-1.9,1.1-2.3,1.7C26,55,26.6,56.5,26.7,57c3.5,10.7,7.3,22.1,11.1,33.5c0.9,2.7,3,3.1,3.8,3.1c0.4,0,0.8-0.1,1.2-0.2
		c7.5-1.8,14.5-2.8,21.4-3.2c2.3-0.1,4.5-0.2,6.7-0.2c10.1,0,19.4,1.1,28.3,3.3c0.4,0.1,0.9,0.2,1.3,0.2c1.1,0,3-0.4,3.9-3.1
		c0.2-0.5,0.6-1.9,1.2-3.6c2.1-6.5,8.4-26.1,9.2-28.1c0.1-0.1,0.2-0.3,0.4-1s0.8-1.9,0.3-3.5c-0.4-0.9-0.9-1.3-1.2-1.6
		c-0.5-0.4-1-0.7-1.3-0.9c-0.1-0.1-0.3-0.1-0.4-0.2l-0.2-0.1c-0.3-0.2-0.5-0.3-1.1-0.4h-0.1c-0.3-0.1-0.7-0.3-1.2-0.3
		c-0.1,0-0.2,0-0.4,0c-1.2,0.1-2.2,0.8-3.1,1.9c-1.5,2-3.1,4.2-4.7,6.1c-1.2,1.5-2.3,3-3.5,4.5c0-1.3,0-2.7,0-4.1v-2.6
		c0-8.2,0-10.5,0.1-11c0.2-1.6-0.5-2.6-1-3.1c-0.4-0.5-1.3-1.1-2.7-1.2c-0.5,0-1.1-0.1-1.5-0.4c-0.5-0.3-1.1-0.4-1.6-0.4
		c-1.3,0-3,0.8-3.5,3c-0.2,0.7-0.4,1.3-0.8,2c-1.2,2.4-2.5,5.2-3.8,8.1c-0.5,1.2-1.1,2.3-1.6,3.5c-0.4,0.9-0.8,1.8-1.2,2.7
		c0,0,0,0,0-0.1c-0.7-3.4-1.5-6.8-2.3-10.2c-0.7-3.1-1.4-6.3-2.1-9.4c0-0.1,0-0.2,0-0.3c0-0.5-0.1-1.5-0.6-2.5
		c-0.4-0.6-0.9-1.2-1.6-1.6l0,0C73.9,36.2,73.5,36,73,36C72.5,36.2,72.1,36.2,71.6,36.2L71.6,36.2z"/>
	<path class="st0" d="M70.9,115.8c-10.2,0-20.4,0-30.4,0c-0.8,0-1.6-0.1-2.4-0.2c-2.1-0.4-3-1.8-2.3-3.9c0.4-1.5,1.3-2.8,2.3-4.1
		c1.3-1.7,2.7-3.4,3.3-5.5c0.1-0.4,0.4-0.4,0.6-0.4c8-2.1,16-3.5,24.2-3.8c11-0.5,21.8,0.8,32.4,3.5c1.2,0.3,1.9,0.7,2.3,1.9
		c0.5,1.6,1.7,2.8,2.7,4.2c1.1,1.3,2,2.7,2.5,4.3c0.5,1.9-0.2,3.2-2,3.7c-1,0.3-1.9,0.3-3,0.3C91,115.8,81,115.8,70.9,115.8z"/>
	<path class="st1" d="M70.8,97.7c9.4,0,18.6,1.2,27.7,3.5c1.2,0.3,1.9,0.7,2.3,1.9c0.5,1.6,1.7,2.8,2.7,4.2c1.1,1.3,2,2.7,2.5,4.3
		c0.5,1.9-0.2,3.2-2,3.7c-1,0.3-1.9,0.3-3,0.3c-5.7,0-11.3,0-17,0c-4.4,0-8.8,0-13.2,0c-4.1,0-8.1,0-12.2,0c-6.1,0-12.2,0-18.3,0
		c-0.8,0-1.6-0.1-2.4-0.2c-2.1-0.4-3-1.8-2.3-3.9c0.4-1.5,1.3-2.8,2.3-4.1c1.3-1.7,2.7-3.4,3.3-5.5c0.1-0.4,0.4-0.4,0.6-0.4
		c8-2.1,16-3.5,24.2-3.8C67.7,97.8,69.3,97.7,70.8,97.7 M70.8,94.5L70.8,94.5c-1.6,0-3.2,0-4.9,0.1c-8.1,0.4-16.4,1.7-24.8,3.9
		c-1.9,0.4-2.7,1.9-2.8,2.7c-0.4,1.3-1.2,2.5-2.3,3.8l-0.4,0.5c-1.2,1.4-2.2,3-2.8,5.1c-0.7,2.5-0.2,4.2,0.4,5.2
		c0.6,1.1,1.9,2.4,4.3,2.7c1,0.2,1.9,0.3,2.8,0.3c6.1,0,12.2,0,18.3,0h6.1h6.1h6.5H84h17c1.2,0,2.5-0.1,3.8-0.4
		c2.2-0.6,3.3-1.9,3.8-2.8c0.5-1,1.1-2.6,0.4-4.9c-0.6-2.2-1.9-3.9-3-5.5c-0.3-0.3-0.4-0.6-0.7-0.9c-0.7-0.8-1.3-1.6-1.5-2.3
		c-1-3.2-3.5-3.8-4.5-4.1C89.7,95.7,80.1,94.5,70.8,94.5L70.8,94.5z"/>
	<path class="st0" d="M70.8,90.4c10.2-0.3,20,1.2,29.6,3.5c0.4,0.1,1,0.3,1.4,0.5c1,0.5,1.2,1.3,0.9,2.5c-0.4,1.2-1,1.7-2,1.5
		c-1.9-0.4-3.6-0.8-5.5-1.2c-6.6-1.5-13.4-2.4-20.1-2.7c-11.2-0.4-22.2,0.9-33,3.6c-1,0.3-1.9,0.5-2.7-0.3c-1.2-1.2-0.8-3.2,0.9-3.7
		c2.2-0.7,4.4-1.2,6.7-1.6C55,91,62.9,90.1,70.8,90.4z"/>
	<path class="st1" d="M68.1,90.3c0.9,0,1.9,0,2.7,0.1c0.9,0,1.8,0,2.6,0c9.3,0,18.2,1.4,27.1,3.5c0.4,0.1,1,0.3,1.4,0.5
		c1,0.5,1.2,1.3,0.9,2.5c-0.3,1-0.8,1.5-1.7,1.5c-0.1,0-0.3,0-0.4,0c-1.9-0.4-3.6-0.8-5.5-1.2c-6.6-1.5-13.4-2.4-20.1-2.7
		c-1.5-0.1-2.9-0.1-4.4-0.1c-9.6,0-19.2,1.3-28.6,3.7c-0.4,0.1-1,0.3-1.4,0.3c-0.4,0-0.9-0.2-1.3-0.5c-1.2-1.2-0.8-3.2,0.9-3.7
		c2.2-0.7,4.4-1.2,6.7-1.6C54,91.2,61.1,90.3,68.1,90.3 M68.1,87.1L68.1,87.1c-6.7,0-13.7,0.8-21.6,2.3l-1,0.2
		c-1.9,0.4-4,0.8-6.1,1.5c-1.8,0.6-3.2,2-3.5,3.9c-0.4,1.8,0.1,3.7,1.4,5.1c1,1,2.2,1.5,3.5,1.5c0.8,0,1.5-0.2,2-0.4h0.1
		c9.4-2.4,18.8-3.6,27.9-3.6c1.4,0,2.8,0,4.2,0.1c6.6,0.3,13.3,1.2,19.6,2.6c0.5,0.1,1.2,0.3,1.7,0.4c1.2,0.3,2.6,0.6,3.9,0.9
		c0.4,0.1,0.6,0.1,1,0.1c2.2,0,3.9-1.4,4.6-3.8c0.8-2.7-0.2-5-2.5-6.3c-0.6-0.4-1.2-0.5-2.1-0.8c-10-2.5-19.1-3.6-27.8-3.6
		c-0.9,0-1.8,0-2.6,0C69.9,87.1,68.9,87.1,68.1,87.1L68.1,87.1z"/>
	<path class="st0" d="M64.3,29.7c0-3.5,3-6.6,6.5-6.6c3.5,0,6.5,3.1,6.5,6.8c0,3.5-3,6.5-6.5,6.5C67.3,36.3,64.3,33.3,64.3,29.7z"/>
	<path class="st1" d="M70.9,23.1c3.5,0,6.5,3.1,6.5,6.8c0,3.5-3,6.5-6.5,6.5c0,0,0,0-0.1,0c-3.5,0-6.4-3-6.4-6.6
		C64.4,26.2,67.4,23.1,70.9,23.1C70.8,23.1,70.9,23.1,70.9,23.1 M70.9,19.9C70.9,19.9,70.8,19.9,70.9,19.9c-5.2,0-9.6,4.5-9.6,9.8
		c0,5.4,4.2,9.8,9.5,9.8h0.1c5.2,0,9.6-4.3,9.6-9.6c0-2.7-1-5.2-2.8-7.1C75.8,20.9,73.4,19.9,70.9,19.9L70.9,19.9z"/>
	<path class="st0" d="M46.4,41.8c-3.4,0-6.4-3.3-6.3-6.8c0.1-3.6,2.8-6.5,6.5-6.5s6.2,2.7,6.2,6.5C52.8,38.7,49.8,41.8,46.4,41.8z"
		/>
	<path class="st1" d="M46.6,28.5L46.6,28.5c3.6,0,6.2,2.7,6.2,6.5c0,3.6-2.8,6.7-6.3,6.7l0,0c-3.4,0-6.4-3.3-6.3-6.8
		C40.2,31.4,42.9,28.5,46.6,28.5 M46.6,25.4c-5.2,0-9.5,4.2-9.6,9.6c0,2.6,1,5.1,2.8,7.1c1.8,1.9,4.2,2.9,6.5,3h0.1
		c2.5,0,4.8-1,6.5-2.8c1.9-1.9,2.8-4.5,2.8-7.1C55.8,29.4,51.9,25.4,46.6,25.4L46.6,25.4L46.6,25.4z"/>
	<path class="st0" d="M95.1,41.8c-3.5,0-6.2-3.1-6.2-6.8s2.7-6.5,6.3-6.4c3.7,0.1,6.4,2.9,6.3,6.6C101.5,38.8,98.5,41.8,95.1,41.8z"
		/>
	<path class="st1" d="M95.1,28.5c0.1,0,0.1,0,0.2,0c3.7,0.1,6.4,2.9,6.3,6.6c-0.1,3.5-3,6.5-6.3,6.5h-0.1c-3.5,0-6.2-3.1-6.2-6.8
		C89,31.2,91.6,28.5,95.1,28.5 M95.1,25.4L95.1,25.4c-5.2,0-9.2,4.1-9.2,9.6c-0.1,5.5,4.1,10,9.2,10.1h0.1c5,0,9.4-4.4,9.5-9.7
		c0.1-5.6-3.9-9.8-9.4-9.9L95.1,25.4L95.1,25.4z"/>
	<path class="st0" d="M121.3,45.8c0,3.8-2.7,6.6-6.3,6.6c-3.5,0-6.2-3-6.2-6.6s2.8-6.5,6.4-6.5C118.9,39.3,121.3,42,121.3,45.8z"/>
	<path class="st1" d="M115.1,39.3C115.1,39.3,115.1,39.3,115.1,39.3c3.8,0,6.2,2.7,6.2,6.5c0,3.8-2.7,6.6-6.3,6.6l0,0
		c-3.5,0-6.2-3-6.2-6.6C108.8,42.2,111.6,39.3,115.1,39.3 M115.1,36.2L115.1,36.2c-2.6,0-5,1-6.7,2.8c-1.8,1.8-2.7,4.2-2.7,6.8
		c0,5.4,4.2,9.8,9.4,9.8c5.4,0,9.4-4.2,9.4-9.8C124.3,40.1,120.5,36.2,115.1,36.2L115.1,36.2L115.1,36.2z"/>
	<path class="st0" d="M20.4,45.8c0-3.9,2.4-6.4,6.1-6.5c3.5,0,6.4,2.8,6.4,6.5s-2.8,6.6-6.3,6.6C23,52.4,20.4,49.7,20.4,45.8z"/>
	<path class="st1" d="M26.6,39.3c3.5,0,6.4,2.8,6.4,6.5s-2.8,6.6-6.2,6.6l0,0c-3.6,0-6.3-2.7-6.3-6.6C20.4,41.9,22.8,39.3,26.6,39.3
		C26.6,39.3,26.6,39.3,26.6,39.3 M26.6,36.2L26.6,36.2c-5.5,0-9.3,4-9.3,9.6s3.9,9.8,9.4,9.8h0.1c5.1,0,9.3-4.4,9.4-9.8
		c0-2.6-1-5-2.7-6.8C31.6,37.1,29.2,36.2,26.6,36.2L26.6,36.2z"/>
</g>
</svg>
