<?xml version="1.0" encoding="utf-8"?>
<!-- Generator: Adobe Illustrator 26.1.0, SVG Export Plug-In . SVG Version: 6.00 Build 0)  -->
<svg version="1.1"
	 id="Слой_1" image-rendering="optimizeQuality" shape-rendering="geometricPrecision" text-rendering="geometricPrecision" xmlns:cc="http://creativecommons.org/ns#" xmlns:dc="http://purl.org/dc/elements/1.1/" xmlns:rdf="http://www.w3.org/1999/02/22-rdf-syntax-ns#"
	 xmlns="http://www.w3.org/2000/svg" xmlns:xlink="http://www.w3.org/1999/xlink" x="0px" y="0px" viewBox="0 0 141.7 141.7"
	 style="enable-background:new 0 0 141.7 141.7;" xml:space="preserve">
<style type="text/css">
	.st0{fill:#EBEBEB;}
	.st1{fill:#282828;}
	.st2{fill:#1E1E1E;}
</style>
<g>
	<path class="st0" d="M70.8,99.5c-9.5,0-19,0-28.5,0c-1.2,0-1.2,0-1.1-1c0.7-5.2,1.4-10.5,2-15.7c0.6-5.2,1.2-10.4,1.9-15.6
		c0.3-2.6,0.6-5.2,0.9-7.8c0-0.4,0.2-0.6,0.7-0.5c3.4,0.7,6.8,0.2,10.2,0.2c1.8,0,3.6-0.1,5.4-0.1c7.3-0.1,14.6,0,21.9,0.1
		c2.5,0,4.9,0.1,7.4,0.2c1.1,0,2.2,0,3.2-0.3c0.6-0.2,0.8,0,0.9,0.6c0.3,2.7,0.6,5.4,0.9,8.1c0.6,5.2,1.2,10.4,1.9,15.6
		c0.6,5.2,1.3,10.3,2,15.5c0.1,0.6-0.1,0.8-0.8,0.8C90.1,99.5,80.4,99.5,70.8,99.5z"/>
	<path class="st0" d="M70.9,48.1c-10.6,0-21.3,0-31.9,0c-2.3,0-3-0.5-3.2-2.7c-0.4-4.3-0.8-8.5-1.4-12.8c-0.3-1.9-0.5-3.9-0.8-5.8
		c-0.3-1.7,0.4-2.6,2.2-3.1c2.8-0.7,5.8-1,8.7-1.3c1.2-0.1,1.8,0.2,2.3,1.4c0.9,2,1.3,4.2,1.9,6.3c0.8,2.9,1.6,3.5,4.8,3.4
		c1.6,0,3.2-0.2,4.8-0.3c1-0.1,1.6-0.6,1.9-1.4c0.5-1.3,0.5-2.7,0.6-4c0.1-1.5,0-3,0.1-4.5c0-1.7,0.7-2.4,2.5-2.5
		c4.4-0.2,8.8-0.1,13.3-0.1c0.8,0,1.6,0,2.4,0.1c1,0.1,1.6,0.7,1.8,1.6c0.1,0.5,0.1,1,0.1,1.5c0,2.1-0.1,4.2,0.2,6.2
		c0.1,0.7,0.2,1.5,0.6,2.1c0.2,0.4,0.5,0.8,1.1,0.9c2.4,0.3,4.8,0.6,7.2,0.4c1.4-0.2,2.4-0.9,2.8-2.3c0.6-2.2,1.1-4.5,1.9-6.6
		c0.1-0.4,0.3-0.8,0.5-1.2c0.3-0.6,0.9-1,1.6-0.9c3.2,0.3,6.3,0.6,9.4,1.4c1.4,0.4,2,1.2,1.8,2.6c-0.4,3.6-0.9,7.1-1.3,10.7
		c-0.3,2.7-0.6,5.4-0.8,8.2c-0.2,2.1-0.9,2.8-3.2,2.8C92.1,48.1,81.5,48.1,70.9,48.1z"/>
	<path class="st1" d="M69.1,20.6c2.4,0,4.8,0,7.2,0c0.1,0,0.1,0,0.2,0c0,0,0,0,0,0c0.8,0,1.6,0,2.4,0.1c1,0.1,1.6,0.7,1.8,1.6
		c0.1,0.5,0.1,1,0.1,1.5c0,2.1-0.1,4.2,0.2,6.2c0.1,0.7,0.2,1.5,0.6,2.1c0.2,0.4,0.5,0.8,1.1,0.9c1.7,0.2,3.5,0.5,5.3,0.5
		c0.6,0,1.3,0,1.9-0.1c1.4-0.2,2.4-0.9,2.8-2.3c0.6-2.2,1.1-4.5,1.9-6.6c0.1-0.4,0.3-0.8,0.5-1.2c0.3-0.6,0.8-0.9,1.4-0.9
		c0.1,0,0.1,0,0.2,0c3.2,0.3,6.3,0.6,9.4,1.4c1.4,0.4,2,1.2,1.8,2.6c-0.4,3.6-0.9,7.1-1.3,10.7c-0.3,2.7-0.6,5.4-0.8,8.2
		c-0.2,2.1-0.9,2.8-3.2,2.8c-5.3,0-10.6,0-15.9,0c-5.3,0-10.6,0-15.9,0c-6.1,0-12.1,0-18.2,0c-4.6,0-9.1,0-13.7,0
		c-2.3,0-3-0.5-3.2-2.7c-0.4-4.3-0.8-8.5-1.4-12.8c-0.3-1.9-0.5-3.9-0.8-5.8c-0.3-1.7,0.4-2.6,2.2-3.1c2.8-0.7,5.8-1,8.7-1.3
		c0.2,0,0.3,0,0.4,0c0.9,0,1.4,0.4,1.8,1.4c0.9,2,1.3,4.2,1.9,6.3c0.7,2.7,1.5,3.4,4.4,3.4c0.1,0,0.3,0,0.4,0c1.6,0,3.2-0.2,4.8-0.3
		c1-0.1,1.6-0.6,1.9-1.4c0.5-1.3,0.5-2.7,0.6-4c0.1-1.5,0-3,0.1-4.5c0-1.7,0.7-2.4,2.5-2.5C65.2,20.6,67.2,20.6,69.1,20.6
		 M69.1,18.6c-2.3,0-4.2,0-6,0.1c-2,0.1-4.4,0.9-4.5,4.4c0,0.7,0,1.4,0,2c0,0.8,0,1.6,0,2.4l0,0.5c0,1.1-0.1,2.1-0.4,2.9
		c0,0.1-0.1,0.2-0.1,0.2c0,0,0,0,0,0c-0.6,0-1.1,0.1-1.7,0.1c-1.1,0.1-2.1,0.2-3.1,0.2c-0.1,0-0.2,0-0.4,0c-1.8,0-1.8,0-2.4-2
		c-0.1-0.5-0.3-1-0.4-1.5c-0.4-1.7-0.9-3.4-1.6-5c-0.3-0.7-1.1-2.6-3.7-2.6c-0.2,0-0.4,0-0.7,0l-0.5,0.1c-2.8,0.3-5.6,0.6-8.4,1.3
		c-2.8,0.6-4.1,2.5-3.7,5.2c0.3,1.9,0.5,3.8,0.8,5.7c0.5,4,0.9,8,1.3,11.9l0.1,0.8C34,48.7,35.6,50,39,50l13.7,0l9.1,0h9.1h8h8
		l15.9,0c3.4,0,5-1.4,5.3-4.6c0.2-2.7,0.5-5.4,0.8-8.1c0.2-1.9,0.5-3.9,0.7-5.9c0.2-1.6,0.4-3.2,0.6-4.8c0.3-2.4-1-4.1-3.3-4.7
		c-3.1-0.8-6.3-1.1-9.7-1.4c-0.1,0-0.3,0-0.4,0c-1.4,0-2.6,0.7-3.3,2c-0.3,0.5-0.5,1-0.7,1.5c-0.6,1.6-1,3.2-1.4,4.8
		c-0.2,0.7-0.4,1.3-0.5,2c-0.2,0.6-0.4,0.8-1,0.8c-0.5,0.1-1,0.1-1.6,0.1c-1.4,0-2.8-0.2-4.3-0.4l-0.2,0c0,0,0,0,0,0
		c-0.2-0.3-0.3-0.7-0.4-1.3c-0.2-1.4-0.2-2.9-0.2-4.5c0-0.5,0-1,0-1.6c0-0.6,0-1.2-0.2-1.9c-0.5-1.8-1.8-2.9-3.6-3.1
		c-0.9-0.1-1.8-0.1-2.7-0.1h-0.2c-1.2,0-2.4,0-3.6,0C71.6,18.7,70.3,18.6,69.1,18.6L69.1,18.6z"/>
	<path class="st0" d="M71.2,103.1c0.4,0,0.7,0,0.8,0c9.9,0,19.7,0,29.6,0c0.7,0,1.5,0,2.2,0.1c1.2,0,2,0.6,2,1.7
		c0.1,3,1.9,5.1,4.1,7.1c3,2.5,3.9,5.7,3.4,9.3c-0.2,1.3-0.8,1.8-2.2,2c-1.1,0.2-2.2,0.1-3.2,0.1c-12.3,0-24.5,0-36.8-0.1
		c-9.2,0-18.4,0-27.7,0c-3.8,0-7.7,0.1-11.5,0.1c-0.4,0-0.8,0-1.1,0c-1.6-0.2-2.4-0.9-2.5-2.4c-0.4-3.6,0.6-6.6,3.6-9.1
		c1.7-1.4,3.1-2.9,3.6-5c0.2-0.6,0.2-1.2,0.3-1.8c0.1-1.1,0.7-1.8,1.9-1.9c0.7-0.1,1.5-0.1,2.2-0.1c3.5,0,25.9-0.1,29.8,0
		C69.8,103.1,70.4,103.1,71.2,103.1z"/>
	<path class="st0" d="M100.7,51.7c-2.7,2.6-5.8,4.1-9.6,4c-4.5-0.1-9.1-0.2-13.6-0.3c-6.4-0.1-12.8,0-19.1,0.1c-3,0-6,0.2-8.9,0.1
		c-3.4,0-6.1-1.7-8.6-3.9C60.9,51.7,80.8,51.7,100.7,51.7z"/>
	<g>
		<path class="st2" d="M113.6,110.3c-0.8-0.8-1.6-1.5-2.4-2.3c-0.8-0.8-1.4-1.6-1.4-2.7c-0.2-3.1-1.9-5.1-5-5.6
			c-0.3,0-0.4-0.1-0.5-0.5c-0.1-1.1-0.2-2.1-0.4-3.2c-0.6-4.9-1.3-9.8-1.9-14.6c-0.6-5.2-1.2-10.3-1.8-15.5c-0.3-2.6-0.6-5.2-1-7.8
			c-0.1-0.5,0-0.7,0.5-1c2.5-1.6,4.9-3.3,6.5-5.8c0.1-0.1,0.2-0.2,0.4-0.3c2.2-1.2,2.9-3.1,3.1-5.2c0.5-6,1.2-12.1,2.1-18.1
			c0.6-3.8-1.2-6.4-5.2-7.3c-3.1-0.7-6.3-1.1-9.4-1.3c-2.6-0.2-4.6,1-5.7,3.2c-0.2,0.4-0.4,0.9-0.6,1.4c-0.7,1.9-1.2,3.9-1.7,5.9
			c-0.1,0.5-0.4,0.7-1,0.6c-0.7-0.1-1.5-0.1-2.2-0.2c-1.2-0.1-1.3-0.1-1.3-1.2c0-1.9,0-3.7-0.1-5.6c-0.2-3.5-2.3-5.7-6-5.9
			c-5.3-0.2-10.7-0.3-16.1,0c-3.5,0.2-5.6,2.4-5.8,5.7c-0.1,1.7-0.1,3.4-0.1,5.2c0,1.7,0,1.7-1.8,1.9c-0.2,0-0.3,0-0.5,0
			c-1.9,0.2-1.8,0.2-2.3-1.5c-0.6-2.2-1-4.4-2.1-6.4c-1.1-2.1-2.9-3.3-5.5-3.1c-3.4,0.3-6.9,0.7-10.2,1.5c-3.2,0.8-5,3.4-4.6,6.4
			c0.9,6.4,1.6,12.9,2.2,19.3c0.1,1.5,0.6,2.9,1.9,4c0.8,0.7,1.6,1.5,2.3,2.3c1.3,1.5,2.8,2.9,4.6,4c1.3,0.7,1.7,1.5,1.5,2.9
			c-0.8,5.7-1.4,11.5-2.1,17.3c-0.9,7.5-1.9,15-2.8,22.5c-0.1,0.5-0.3,0.7-0.7,0.8c-2.7,0.6-4.4,2.3-4.6,4.8
			c-0.1,1.8-1.1,3.2-2.5,4.4c-3.9,3.2-5.5,7.1-5.1,11.9c0.2,2.9,1.7,5,4.4,5.8c1,0.3,2.1,0.4,3.1,0.4c5.2,0,10.4-0.1,15.6-0.1
			c0.8,0,1.1,0,2.2,0c1.2,0,18.6,0,19.6,0c5.2,0,33,0.4,41.3,0c1,0,3.4-0.2,5-1.8c0.7-0.8,1.3-1.8,1.5-3
			C117.9,117.7,116.9,113.6,113.6,110.3z M110.4,123.3c0,0-0.2,0-0.3,0c-0.2,0-0.3,0-0.5,0c-0.3,0-0.5,0-0.8,0c-0.3,0-0.6,0-0.9,0
			c-6.1,0-12.3,0-18.4,0c-6.1,0-12.3,0-18.4,0c-4.8,0-9.7,0-14.5,0c-4.4,0-8.8,0-13.1,0c-1,0-1.9,0-2.9,0c-1.9,0-3.8,0-5.7,0
			c-1,0-1.9,0-2.9,0c0,0,0,0,0,0c-0.1,0-0.2,0-0.3,0c-0.3,0-0.6,0-0.8,0c0,0,0,0,0,0c-0.2,0-0.4-0.1-0.6-0.1c-1.2-0.3-1.8-1-2-2.3
			c0-0.4-0.1-0.9-0.1-1.3c0-0.4,0-0.9,0.1-1.3c0.1-1.2,0.5-2.4,1.1-3.5c0.6-1.1,1.4-2.1,2.5-3c0.4-0.3,0.8-0.7,1.2-1.1
			c0.9-0.9,1.7-2,2.2-3.2c0.1-0.2,0.2-0.5,0.3-0.8c0.2-0.6,0.2-1.2,0.3-1.8c0.1-0.6,0.2-1,0.5-1.3c0.3-0.3,0.8-0.5,1.4-0.6
			c0,0,0,0,0,0c0.3,0,0.7,0,1,0c0.1,0,0.2,0,0.3,0c0.3,0,0.6,0,0.8,0c0,0,0,0,0,0c0,0,0.1,0,0.1,0c9.9,0,19.8,0,29.6,0c0,0,0,0,0,0
			c0,0,0,0,0,0c0,0,0.9,0,1.5,0h0c0.3,0,0.6,0,0.7,0c0,0,0.1,0,0.1,0c9.7,0,19.3,0,29,0c0.2,0,0.4,0,0.6,0c0.4,0,0.7,0,1.1,0
			c0.4,0,0.7,0,1.1,0c0.4,0,0.8,0.1,1.2,0.3c0.2,0.1,0.4,0.3,0.5,0.4c0.2,0.3,0.3,0.6,0.4,1c0.1,3,1.9,5.1,4.1,7.1
			c2.6,2.2,3.7,4.9,3.5,7.9c0,0.4-0.1,0.9-0.1,1.3c-0.1,0.6-0.3,1.1-0.6,1.4c-0.1,0.1-0.2,0.2-0.3,0.2c-0.3,0.2-0.5,0.2-0.8,0.3
			C111.6,123.1,111.1,123.3,110.4,123.3z M42.3,99.5c-0.9,0-1.1,0-1.1-0.4c0-0.1,0-0.3,0.1-0.6c0.2-1.7,0.4-3.5,0.7-5.2
			c0.4-3.5,0.9-7,1.3-10.5c0.2-1.7,0.4-3.5,0.6-5.2c0.4-3.5,0.8-6.9,1.2-10.4c0.3-2.6,0.6-5.2,0.9-7.8c0,0,0,0,0,0
			c0-0.1,0-0.2,0.1-0.2c0,0,0,0,0-0.1c0,0,0-0.1,0.1-0.1c0,0,0,0,0.1,0c0,0,0.1,0,0.1,0c0,0,0,0,0.1,0c0.1,0,0.2,0,0.3,0
			c0.4,0.1,0.8,0.1,1.2,0.2c0.1,0,0.3,0,0.4,0c0.3,0,0.5,0.1,0.8,0.1c0.1,0,0.3,0,0.4,0c0.3,0,0.5,0,0.8,0c0.1,0,0.3,0,0.4,0
			c0.1,0,0.2,0,0.2,0c0.1,0,0.3,0,0.4,0c0.3,0,0.6,0,0.8,0c0.2,0,0.4,0,0.6,0c0.3,0,0.6,0,1,0c0.3,0,0.7,0,1,0c0.2,0,0.4,0,0.6,0
			c0.3,0,0.6,0,1,0c0.2,0,0.3,0,0.5,0c0,0,0,0,0,0c0.1,0,0.2,0,0.2,0c0.6,0,1.3,0,1.9,0c1.1,0,2.2,0,3.3-0.1c0,0,0,0,0.1,0
			c2.3,0,4.6,0,6.8,0c0.7,0,1.4,0,2.1,0c1.5,0,3.1,0,4.6,0c0.7,0,1.3,0,2,0c2,0,4,0,6.1,0.1c0,0,0.1,0,0.1,0c2.5,0,4.9,0.1,7.4,0.2
			c0.1,0,0.3,0,0.4,0c0.1,0,0.1,0,0.2,0c0.1,0,0.2,0,0.3,0c0.2,0,0.3,0,0.5,0c0.1,0,0.2,0,0.3,0c0.2,0,0.3,0,0.5-0.1
			c0.1,0,0.2,0,0.3,0c0.2,0,0.5-0.1,0.7-0.2c0,0,0,0,0,0c0.2,0,0.3-0.1,0.4-0.1c0,0,0,0,0.1,0c0.1,0,0.1,0,0.2,0.1c0,0,0,0,0.1,0
			c0,0,0.1,0.1,0.1,0.1c0,0,0,0,0,0.1c0,0.1,0.1,0.2,0.1,0.3c0.3,2.7,0.6,5.4,0.9,8.1c0.3,2.6,0.6,5.2,0.9,7.8
			c0.3,2.6,0.6,5.2,0.9,7.8c0.6,5.2,1.3,10.3,2,15.5c0,0.2,0,0.3,0,0.4c0,0,0,0,0,0.1c0,0.1,0,0.1-0.1,0.2c0,0-0.1,0-0.1,0.1
			c0,0-0.1,0.1-0.2,0.1c-0.1,0-0.1,0-0.2,0c-0.1,0-0.1,0-0.2,0c0,0,0,0,0,0c-5.8,0-11.5,0-17.3,0c-3.9,0-7.7,0-11.6,0
			C61.3,99.5,51.8,99.5,42.3,99.5z M42.8,53.2c-0.7-0.5-1.3-1-1.9-1.6c20,0,39.8,0,59.8,0c0,0,0,0,0,0c-0.3,0.3-0.6,0.6-1,0.9
			c-0.1,0.1-0.2,0.2-0.4,0.3c-0.2,0.2-0.5,0.4-0.7,0.5c-0.1,0.1-0.3,0.2-0.4,0.3c-0.2,0.1-0.4,0.3-0.7,0.4c-0.2,0.1-0.3,0.2-0.5,0.2
			c-0.2,0.1-0.4,0.2-0.7,0.3c-0.2,0.1-0.3,0.1-0.5,0.2c-0.2,0.1-0.4,0.2-0.7,0.2c-0.2,0.1-0.4,0.1-0.6,0.2c-0.2,0.1-0.5,0.1-0.7,0.2
			c-0.2,0-0.4,0.1-0.6,0.1c-0.2,0-0.5,0.1-0.7,0.1c-0.2,0-0.4,0-0.6,0c-0.3,0-0.6,0-0.9,0c-2.3,0-4.5-0.1-6.8-0.1
			c-2.3,0-4.5-0.1-6.8-0.1c0,0,0,0,0,0c-1.9,0-3.7,0-5.6,0c-0.2,0-0.3,0-0.5,0c-0.4,0-0.9,0-1.3,0c-1.5,0-3,0-4.5,0
			c-0.7,0-1.4,0-2.1,0c-1.4,0-2.7,0-4.1,0c-0.3,0-0.7,0-1,0c0,0,0,0,0,0c-1.3,0-2.7,0-4,0.1c-1.2,0-2.4,0.1-3.6,0.1
			c-0.4,0-0.8,0-1.3,0C46.9,55.6,44.8,54.6,42.8,53.2z M35.8,45.4c-0.4-4.3-0.8-8.5-1.4-12.8c-0.3-1.9-0.5-3.9-0.8-5.8
			c-0.3-1.7,0.4-2.6,2.2-3.1c2.8-0.7,5.8-1,8.7-1.3c1.2-0.1,1.8,0.2,2.3,1.4c0.9,2,1.3,4.2,1.9,6.3c0.8,2.9,1.6,3.5,4.8,3.4
			c1.6,0,3.2-0.2,4.8-0.3c1-0.1,1.6-0.6,1.9-1.4c0.5-1.3,0.5-2.7,0.6-4c0.1-1.5,0-3,0.1-4.5c0-1.7,0.7-2.4,2.5-2.5
			c4.4-0.2,8.8-0.1,13.3-0.1c0.8,0,1.6,0,2.4,0.1c1,0.1,1.6,0.7,1.8,1.6c0.1,0.5,0.1,1,0.1,1.5c0,2.1-0.1,4.2,0.2,6.2
			c0.1,0.7,0.2,1.5,0.6,2.1c0.2,0.4,0.5,0.8,1.1,0.9c2.4,0.3,4.8,0.6,7.2,0.4c1.4-0.2,2.4-0.9,2.8-2.3c0.6-2.2,1.1-4.5,1.9-6.6
			c0.1-0.4,0.3-0.8,0.5-1.2c0.3-0.6,0.9-1,1.6-0.9c3.2,0.3,6.3,0.6,9.4,1.4c1.4,0.4,2,1.2,1.8,2.6c-0.4,3.6-0.9,7.1-1.3,10.7
			c-0.3,2.7-0.6,5.4-0.8,8.2c-0.2,2.1-0.9,2.8-3.2,2.8c-10.6,0-21.3,0-31.9,0c-10.6,0-21.3,0-31.9,0C36.7,48.1,36,47.5,35.8,45.4z"
			/>
	</g>
</g>
</svg>
