<?xml version="1.0" encoding="utf-8"?>
<!-- Generator: Adobe Illustrator 26.1.0, SVG Export Plug-In . SVG Version: 6.00 Build 0)  -->
<svg version="1.1"
	 id="Слой_1" text-rendering="geometricPrecision" shape-rendering="geometricPrecision" image-rendering="optimizeQuality" xmlns:cc="http://creativecommons.org/ns#" xmlns:dc="http://purl.org/dc/elements/1.1/" xmlns:rdf="http://www.w3.org/1999/02/22-rdf-syntax-ns#"
	 xmlns="http://www.w3.org/2000/svg" xmlns:xlink="http://www.w3.org/1999/xlink" x="0px" y="0px" viewBox="0 0 141.7 141.7"
	 style="enable-background:new 0 0 141.7 141.7;" xml:space="preserve">
<style type="text/css">
	.st0{fill:#EBEBEB;}
</style>
<g>
	<path class="st0" d="M96.1,110.8H44.4c-0.5-0.4-0.9-0.9-1.3-1.3C29.8,94.1,27,77.9,37.2,60c7-12.2,15.2-23.9,23.5-35.5
		c1.8-2.6,2.6-4.5,0.5-7.6c-2.7-4-2-8.4,2.4-11.4c0.3-0.2,0.5-0.3,0.8-0.5c0.2-0.1,0.5-0.3,0.7-0.4c3.6-1.8,7.4-1.7,11,0.5
		c4.7,2.8,5.4,7.5,3.1,11.4c-2.1,3.4-1.5,5.6,0.6,8.2c2.2,2.7,2.2,5,0.9,8.3c-4.9,12.6-9.5,25.3-13.8,38.2c-2.1,6.4,0.7,11.3,6,12.4
		c4.5,1,7.6-0.2,9.8-4c0.1-0.2,0.2-0.4,0.3-0.6c0.1-0.2,0.2-0.3,0.3-0.5v0c0.1-0.2,0.2-0.4,0.2-0.6c0.2-0.6,0.5-1.2,0.7-1.9
		c0.4-1.4,0.9-2.8,1.3-4.2c0,0,0,0,0,0c1.3-4.2,2.6-8.5,3.9-12.8c1.4-4.5,2.8-9.2,4.3-14.2c7.5,10.4,13.2,20.4,15.3,31.5
		C111.4,89.8,105,100.8,96.1,110.8z"/>
	<path class="st0" d="M114.7,137.3c-0.1,0-0.1,0.1-0.2,0.1c-1.1,0.6-2.7,0.8-4.9,0.8c-12.7-0.1-25.7-0.1-38.7-0.1
		c-10.6,0-21.1-0.1-31.8,0c-3.1,0-6.3,0-9.5,0.1c-0.1,0-0.1,0-0.2,0c-0.1,0-0.2,0-0.3,0c-2.4-0.1-3.2-0.9-3.5-2.7
		c0-0.3-0.1-0.6-0.1-0.9c-0.1-3.7,1-6.7,3.8-9.2c2.4-2.1,4.4-4.3,4.5-7.7c0-0.1,0-0.3,0-0.4c0-0.2,0.1-0.4,0.2-0.6c0,0,0,0,0,0
		c0.7-1.7,2.9-1.3,4.6-1.3h54.6c1.6,0,3.3,0,4.9,0c1.8,0,3.6,0,5.4,0c2.6-0.1,4,0.6,4.3,3.1c0.2,2.8,1.8,4.8,3.9,6.7
		c1.7,1.5,3.2,3.3,3.9,5.4C116.7,134.2,116.6,136.3,114.7,137.3z"/>
</g>
</svg>
