<?xml version="1.0" encoding="utf-8"?>
<!-- Generator: Adobe Illustrator 26.1.0, SVG Export Plug-In . SVG Version: 6.00 Build 0)  -->
<svg version="1.1"
	 id="Слой_1" text-rendering="geometricPrecision" shape-rendering="geometricPrecision" image-rendering="optimizeQuality" xmlns:cc="http://creativecommons.org/ns#" xmlns:dc="http://purl.org/dc/elements/1.1/" xmlns:rdf="http://www.w3.org/1999/02/22-rdf-syntax-ns#"
	 xmlns="http://www.w3.org/2000/svg" xmlns:xlink="http://www.w3.org/1999/xlink" x="0px" y="0px" viewBox="0 0 141.7 141.7"
	 style="enable-background:new 0 0 141.7 141.7;" xml:space="preserve">
<style type="text/css">
	.st0{fill:#EBEBEB;}
</style>
<g>
	<path class="st0" d="M115.4,62.9c-2-14.2-9.4-27.6-17.2-34.2c-4.2-3.6-9.2-7.4-14.5-7.5c-4.9-0.2-5.1-2.9-6.5-5.6
		c-2.9-5.9-7.7-9.2-14-11.7v0c0,3.5-0.1,6.6,0.1,9.7c0.2,2.4-0.4,3.6-2.7,4.6c-5,2.1-9.6,4.7-14.5,7.1c-2.9,1.4-4.9,3.2-5.2,6.6
		c-0.4,3.6-2.5,6.4-4.9,9c-4.6,5.2-9.4,10.2-14.7,14.7c-3.6,3.1-5.5,11.1-3.5,15.4c0.4,0.7,1.2,1.4,2,1.9c1.1,0.7,2.2,1.1,3.3,1.3
		c1.5,0.3,2.9,0.1,4.2-0.4c0.3-0.1,0.7-0.3,1.1-0.5c0.4-0.2,0.8-0.5,1.2-0.7c1.1-0.8,2.3-1.8,3.3-2.8c0.5-0.4,1-1,1.5-1.3
		c0.1,0,0.2-0.1,0.3-0.1c0.1-0.1,0.3-0.1,0.4,0c0.2,0.1,0.7,0.5,0.9,0.6c0.1,0.1,0.5,0.4,0.6,0.6c0.4,0.7-0.6,2-1.2,2.7
		c-2.1,2.5-3.6,3.2-5.7,5.7c-0.2,0.4-0.5,0.6-0.6,0.7c0.3,0.1,0.6,0.2,1,0.2c1.9,0.5,4.2,0.7,6.3,0c0.2-0.1,0.4-0.1,0.6-0.2
		c0.4-0.2,0.8-0.4,1.1-0.6c1-0.7,1.9-1.2,2.9-3.1c3.1-5.7,7.6-8.9,13.3-9.9c0.8-0.1,1.7-0.2,2.6-0.3c1.2-0.1,2.5,0,3.9,0.1
		c9.7,0.7,14.9-3.1,18.1-12.5c0.2-0.7,0.2-1.6,1.9-1.9c0.5,2.7,0.6,6.6-0.9,10.4c-1.4,2.7-3.1,4-5.1,6c-5.9,5.6-4.4,8.4-9.6,15
		c-3.2,4-4.5,4.4-8.1,7.1c-1.2,1-4.1,2.9-6.2,5.4c-3.4,3.9-4.7,8.7-5.7,12.2h61.7c1.2,0,2.3,0,3.2,0c0,0,0.1,0,0.1,0
		c0.7-2.9,1.5-6.3,2.4-10.4C115,82.7,117,74.2,115.4,62.9z M55.6,39.7c-2.2,1.7-4.4,0.7-6.5-0.4c-0.9-0.5-1.6-1.1-0.9-2.6
		c1.2-2.4,3.1-3.1,5-3.5c1.7-0.2,3.5-0.2,5.6-0.5C58.6,36.4,57.4,38.3,55.6,39.7z"/>
	<path class="st0" d="M117.6,137.7H75.9c-14.6,0-29.4-0.1-44,0.1c-2.2,0-3.3-0.5-3.9-1.6c0,0,0,0,0,0c-0.3-0.6-0.4-1.5-0.5-2.6
		c-0.2-4.2,1-7.7,4.1-10.7c1.9-1.8,3.5-3.7,4.3-6.1v0c0.3-0.8,0.5-1.7,0.5-2.7c0.1-3.2,3-2.7,5.1-2.7H100c2.7,0,5.4,0.1,8.2,0
		c0,0,0.1,0,0.1,0c0.9,0,1.8,0,2.7,0c0.8,0,1.6,0,2.2,0.2c0.7,0.2,1.2,0.5,1.6,1c0,0,0,0,0,0c0,0,0.1,0.1,0.1,0.1
		c0.4,0.5,0.6,1.2,0.7,2.2c0.1,1,0.3,1.9,0.6,2.8c0.1,0.2,0.1,0.3,0.2,0.5c0.1,0.1,0.1,0.2,0.1,0.3c0.8,1.5,1.9,2.9,3.2,4.1
		c0.9,0.9,1.8,1.8,2.5,2.8c0.1,0.2,0.2,0.4,0.4,0.6c0.1,0.2,0.2,0.4,0.3,0.6c0.4,0.7,0.7,1.4,0.9,2.2
		C126.1,135.5,124.5,137.7,117.6,137.7z"/>
</g>
</svg>
