<?xml version="1.0" encoding="utf-8"?>
<!-- Generator: Adobe Illustrator 26.1.0, SVG Export Plug-In . SVG Version: 6.00 Build 0)  -->
<svg version="1.1"
	 id="Слой_1" text-rendering="geometricPrecision" shape-rendering="geometricPrecision" image-rendering="optimizeQuality" xmlns:cc="http://creativecommons.org/ns#" xmlns:dc="http://purl.org/dc/elements/1.1/" xmlns:rdf="http://www.w3.org/1999/02/22-rdf-syntax-ns#"
	 xmlns="http://www.w3.org/2000/svg" xmlns:xlink="http://www.w3.org/1999/xlink" x="0px" y="0px" viewBox="0 0 141.7 141.7"
	 style="enable-background:new 0 0 141.7 141.7;" xml:space="preserve">
<style type="text/css">
	.st0{fill:#EBEBEB;}
</style>
<g>
	<path class="st0" d="M128.4,53.3c-0.4,0.7-0.6,1.1-0.6,1.1c-0.8,1.7-13.4,40.6-14.7,44.8c0,0.1,0,0.2-0.1,0.2
		c-0.2,0.5-0.4,0.8-0.7,1c-0.3,0.2-0.7,0.2-1.3,0c-14.9-3.7-30-5-45.2-4.6c-0.3,0-0.5,0-0.8,0c-1.4,0-2.8,0.1-4.2,0.2
		c-10.3,0.6-20.7,2.1-30.7,4.6c-0.3,0.1-0.6,0.1-0.8,0.1c0,0-0.1,0-0.1,0c-0.2,0-0.5-0.1-0.6-0.3c-0.2-0.2-0.3-0.5-0.5-1
		C23.4,83.6,18.1,68,13,52.5c-0.1-0.3-0.2-0.6-0.2-0.8c0-0.3,0.2-0.5,0.8-0.6c0.3,0,0.4-0.1,0.6-0.3c0.8-0.3,1.7-1.4,2.5-1.1
		c0.8,0.4,1.4,1.5,2,2.4c4.3,5.6,8.7,11.3,13,16.8c0.7,1.1,1.5,2.2,2.4,3.2c0.6,0.7,1.3,1.3,2.2,0.8c0.9-0.4,1.1-1.1,1.1-1.9
		c0-0.1,0-0.2,0-0.3c-0.4-9.8-0.1-19.4-0.1-29.2c0-0.7,0.1-1.5,0-2.2c0-0.1,0-0.3,0-0.4c0-0.3-0.1-0.7-0.2-1c0-0.2-0.1-0.4-0.1-0.5
		c0,0,0-0.1,0-0.1c0-0.1,0.1-0.2,0.2-0.3c0.1-0.1,0.3-0.1,0.5-0.1c1.4,0,2.6-0.4,3.8-0.8c0,0,0.1,0,0.1-0.1c0.5-0.2,0.8-0.1,1,0.6
		c3.6,9.6,8.5,18.7,12.4,28.2c0.6,1.1,1,2.1,1.4,3.2c0.4,0.8,1,1.3,1.8,1.1c0.5-0.1,0.8-0.3,1-0.6c0.2-0.3,0.3-0.7,0.4-1.1
		c2.2-11.6,4.9-23.2,7.5-34.6c0.3-1.3,0.1-2.7,0.7-3.6c0.1-0.1,0.2-0.1,0.2-0.2c0,0,0,0,0.1,0c0.3-0.2,0.5-0.2,0.5-0.2h4.3
		c0.1,0,0.3,0,0.4,0.1c0,0,0.3,0.1,0.4,0.4c0.4,0.7,0.3,1.7,0.6,2.7c2,9.1,4.1,18.2,6,27.4c0.6,2.7,1.1,5.3,1.7,8.1
		c0.1,0.8,0.4,1.5,1.4,1.7c1,0.1,1.7-0.3,2-1.3c2.2-5.4,4.9-10.7,7.1-16c1.7-3.8,3.5-7.5,5.2-11.3c0.6-1.3,1-2.5,1.4-3.8
		c0.2-0.5,0.4-0.8,0.8-0.7c0.1,0,0.3,0.1,0.5,0.2c0.1,0,0.1,0.1,0.2,0.1c0.1,0,0.1,0.1,0.2,0.1c1.1,0.5,2.3,0.7,3.4,0.7
		c0.3,0,0.5,0.1,0.6,0.2c0,0,0,0,0,0c0.3,0.3,0.1,0.6,0.1,0.7c-0.1,0.6-0.1,6.8-0.1,15.6v14.7c0,0.7-0.1,1.5-0.1,2.4
		c-0.1,0.8,0,1.5,0.6,2.1c0.1,0.1,0.3,0.2,0.4,0.3c0.1,0.1,0.3,0.1,0.4,0.1c0.5,0.1,0.8,0,1.2-0.2c0.1,0,0.1-0.1,0.2-0.1l0.2-0.2
		c0.1-0.1,0.1-0.1,0.2-0.2c0.1-0.1,0.1-0.1,0.2-0.2c0.1-0.1,0.1-0.1,0.2-0.2c5-7.3,10.8-14.1,15.9-21.2c0.6-0.6,0.8-1,1.3-1
		c0.1,0,0.4,0,0.6,0.1c0.4,0.1,0.6,0.3,1,0.6c0.8,0.6,1.1,0.6,1.5,0.8c0.3,0.3,0.4,0.3,0.4,0.6C129,52.2,128.9,52.5,128.4,53.3z"/>
	<path class="st0" d="M117.3,135.1c-1.4,0.4-2.7,0.4-4.2,0.4H28.5c-1.1,0-2.2-0.1-3.4-0.3c-1.2-0.2-2.1-0.7-2.7-1.3c0,0,0,0,0,0l0,0
		c-0.9-1-1.1-2.3-0.5-4.1c0.6-2.1,1.8-3.9,3.2-5.7c1.8-2.4,3.8-4.7,4.6-7.7c0.1-0.6,0.6-0.6,0.8-0.6c11.2-2.9,22.3-4.9,33.8-5.3
		c15.4-0.7,30.4,1.1,45.2,4.9c1.3,0.3,2.1,0.7,2.7,1.6c0,0.1,0.1,0.1,0.1,0.2c0,0,0,0,0,0.1c0.1,0.2,0.3,0.5,0.4,0.9
		c0.1,0.3,0.2,0.5,0.3,0.8c0.1,0.2,0.2,0.4,0.3,0.6c0,0,0,0,0,0.1v0c0,0.1,0.1,0.1,0.1,0.2c0.8,1.5,2,2.8,3.1,4.3
		c0.8,0.9,1.5,1.9,2.1,2.9c0.1,0.2,0.3,0.4,0.4,0.7c0.1,0.2,0.2,0.4,0.3,0.6c0.3,0.6,0.6,1.2,0.8,1.9
		C120.8,132.6,119.8,134.4,117.3,135.1z"/>
	<path class="st0" d="M115.3,109.2c-0.3,1-0.8,1.7-1.4,2c0,0,0,0,0,0c-0.4,0.2-0.8,0.2-1.4,0.1c-2.7-0.6-5-1.1-7.7-1.7
		c-1.2-0.3-2.3-0.5-3.5-0.7c-1-0.2-2.1-0.4-3.1-0.6c-1.1-0.2-2.2-0.4-3.3-0.6c-0.4-0.1-0.8-0.1-1.1-0.2c-0.5-0.1-0.9-0.1-1.4-0.2
		c-0.3,0-0.5-0.1-0.8-0.1h0c-0.5-0.1-1-0.1-1.5-0.2c-0.5-0.1-1-0.1-1.5-0.2c-0.3,0-0.6-0.1-0.9-0.1c-0.9-0.1-1.7-0.2-2.6-0.3
		c-0.6-0.1-1.2-0.1-1.8-0.2c-0.1,0-0.2,0-0.3,0c-0.9-0.1-1.7-0.1-2.6-0.2c-0.2,0-0.4,0-0.5,0c-1.1-0.1-2.1-0.1-3.2-0.2
		c-15.6-0.6-31,1.3-46.1,5c-0.2,0.1-0.4,0.1-0.7,0.2c0,0,0,0-0.1,0c-0.1,0-0.2,0-0.3,0.1c-1,0.2-1.9,0.2-2.8-0.7
		c-0.6-0.6-0.9-1.3-1-2c0-0.1,0-0.1,0-0.2c0,0,0,0,0,0s0,0,0,0v0c0-1.3,0.8-2.5,2.2-2.9c1-0.3,1.9-0.6,2.9-0.8c0.1,0,0.2,0,0.2-0.1
		c1.4-0.4,2.8-0.7,4.2-1c0.3-0.1,0.5-0.1,0.8-0.2c0.4-0.1,0.8-0.1,1.2-0.2c4.8-0.9,9.7-1.7,14.5-2.2c0.6-0.1,1.2-0.1,1.8-0.2
		c5.7-0.5,11.3-0.8,16.9-0.6c9.6-0.3,19,0.6,28.2,2.2c0.5,0.1,1.1,0.2,1.6,0.3c0.5,0.1,0.9,0.2,1.4,0.3c0.4,0.1,0.9,0.2,1.3,0.3
		c0.7,0.1,1.5,0.3,2.2,0.4c0.7,0.1,1.3,0.3,2,0.4c1.5,0.3,3.1,0.7,4.6,1.1c0.6,0.1,1.4,0.4,2,0.7
		C115.5,106.4,115.7,107.5,115.3,109.2z"/>
	<path class="st0" d="M79.8,15.6c0,4-2.8,7.5-6.4,8.7c0,0,0,0-0.1,0c-0.5,0.2-1.1,0.3-1.6,0.3c-0.2,0-0.3,0-0.5,0
		c-0.1,0-0.2,0-0.3,0c0,0,0,0-0.1,0c-0.2,0-0.3,0-0.5,0c-0.5,0-1-0.1-1.5-0.3c-2.1-0.5-4-1.8-5.3-3.6c-0.1-0.1-0.1-0.1-0.2-0.2
		c0,0-0.1-0.1-0.1-0.1c-1-1.5-1.6-3.3-1.6-5.1c0-0.3,0-0.6,0-0.9c0,0,0,0,0,0c0-0.3,0.1-0.5,0.1-0.8c0,0,0-0.1,0-0.1
		c0.1-0.3,0.1-0.5,0.2-0.8c0,0,0-0.1,0-0.1c0.1-0.2,0.2-0.5,0.3-0.7c0.1-0.2,0.2-0.5,0.3-0.7c0-0.1,0.1-0.1,0.1-0.2
		c0.1-0.2,0.2-0.4,0.3-0.5c0.1-0.2,0.3-0.4,0.4-0.7c0.1-0.1,0.1-0.2,0.2-0.3c0.4-0.5,0.8-0.9,1.2-1.3c0.2-0.1,0.3-0.3,0.5-0.4
		c0.2-0.1,0.4-0.3,0.6-0.4c0,0,0.1,0,0.1-0.1c0.2-0.1,0.4-0.3,0.6-0.4c0.1,0,0.1-0.1,0.2-0.1c0.2-0.1,0.4-0.2,0.6-0.3
		c0.1,0,0.1,0,0.2-0.1c0.2-0.1,0.5-0.2,0.7-0.2c0.3-0.1,0.5-0.1,0.8-0.2c0,0,0,0,0,0c0.3-0.1,0.6-0.1,0.8-0.1c0.1,0,0.3,0,0.4,0
		c0.2,0,0.3,0,0.5,0c0.1,0,0.2,0,0.3,0c0.2,0,0.3,0,0.5,0C76.2,6.7,79.8,10.8,79.8,15.6z"/>
	<path class="st0" d="M45.6,22.7c0,0.2,0,0.4,0,0.6c0,0.1,0,0.2,0,0.3c0,0.1,0,0.2,0,0.3c0,0.4-0.1,0.8-0.2,1.2
		c-0.1,0.3-0.1,0.5-0.2,0.8c0,0,0,0.1,0,0.1c0,0.1-0.1,0.3-0.2,0.4c-0.1,0.1-0.1,0.3-0.2,0.4c-0.1,0.1-0.1,0.3-0.2,0.4
		c-0.1,0.3-0.3,0.5-0.5,0.8c-0.2,0.3-0.3,0.5-0.5,0.7c-0.1,0.1-0.2,0.2-0.3,0.3c-0.1,0.1-0.2,0.2-0.3,0.3c-0.3,0.3-0.6,0.6-1,0.9
		c-1.5,1.2-3.3,1.9-5.3,1.9c-4.7,0-8.9-4.6-8.8-9.5c0-1.7,0.5-3.2,1.3-4.6c0-0.1,0.1-0.2,0.2-0.3c0,0,0-0.1,0.1-0.1
		c0,0,0.1-0.1,0.1-0.1c0.2-0.3,0.3-0.5,0.5-0.7c0.2-0.2,0.3-0.3,0.5-0.5c0.1-0.1,0.2-0.3,0.4-0.4c0.1-0.1,0.2-0.2,0.3-0.3
		c0.2-0.1,0.4-0.3,0.5-0.4c0.1,0,0.1-0.1,0.2-0.1c0.1-0.1,0.2-0.2,0.3-0.2c0.4-0.2,0.8-0.4,1.2-0.6c0.1,0,0.2-0.1,0.3-0.1
		c0.1,0,0.2-0.1,0.3-0.1c0.1,0,0.2-0.1,0.3-0.1c0.1,0,0.3-0.1,0.4-0.1c0.1,0,0.3-0.1,0.4-0.1c0.1,0,0.3-0.1,0.5-0.1
		c0.2,0,0.4-0.1,0.7-0.1c0.2,0,0.5,0,0.7,0c0.3,0,0.6,0,1,0c0.3,0,0.6,0.1,0.8,0.1c0.2,0,0.5,0.1,0.7,0.2c0.2,0,0.3,0.1,0.5,0.2
		c0.3,0.1,0.6,0.2,0.9,0.4c2.1,1,3.6,2.8,4.3,5.1c0.1,0.2,0.1,0.4,0.2,0.6c0.1,0.2,0.1,0.4,0.1,0.6c0,0.3,0.1,0.5,0.1,0.8
		C45.6,22.1,45.6,22.4,45.6,22.7z"/>
	<path class="st0" d="M113.6,23c0,1.1-0.2,2.2-0.6,3.1c0,0.1-0.1,0.1-0.1,0.2c-1.1,2.8-3.6,5-6.4,5.7c-0.6,0.1-1.2,0.2-1.9,0.2
		c-2,0-3.8-0.7-5.3-2c-2.1-1.7-3.4-4.5-3.4-7.5c0-1.7,0.4-3.3,1.2-4.6c0.1-0.2,0.2-0.4,0.3-0.5c0-0.1,0.1-0.2,0.2-0.2
		c0.1-0.1,0.2-0.2,0.2-0.3c1.6-2,4.1-3.3,6.9-3.2C110,13.9,113.8,17.9,113.6,23z"/>
	<path class="st0" d="M141.3,37.8c0,5.3-3.8,9.2-8.8,9.2c-0.2,0-0.5,0-0.7,0h-0.1c-0.2,0-0.4,0-0.5-0.1c-0.1,0-0.1,0-0.2,0
		c0,0,0,0,0,0h-0.1c0,0,0,0,0,0c-0.2,0-0.3-0.1-0.4-0.1c-0.2,0-0.4-0.1-0.5-0.2h0c-0.2-0.1-0.3-0.1-0.5-0.2
		c-0.2-0.1-0.3-0.1-0.5-0.2c0,0,0,0-0.1,0c-0.1-0.1-0.2-0.1-0.3-0.2c-0.1-0.1-0.2-0.1-0.3-0.2c-0.2-0.1-0.4-0.2-0.6-0.4
		c0,0-0.1-0.1-0.1-0.1c-0.1-0.1-0.2-0.2-0.4-0.3l0,0c-0.3-0.2-0.5-0.5-0.8-0.7c-1.6-1.7-2.5-4-2.5-6.5c0-0.1,0-0.2,0-0.3
		c0-0.1,0-0.2,0-0.3c0-0.1,0-0.2,0-0.3c0-0.1,0-0.2,0-0.3c0,0,0-0.1,0-0.1c0,0,0-0.1,0-0.1c0-0.2,0.1-0.3,0.1-0.4
		c0-0.2,0.1-0.3,0.1-0.4c0-0.1,0.1-0.2,0.1-0.3c0-0.2,0.1-0.3,0.1-0.5c0.1-0.3,0.2-0.6,0.4-0.9c0.1-0.1,0.1-0.3,0.2-0.4
		c0.1-0.1,0.1-0.3,0.2-0.4c0.1-0.1,0.1-0.2,0.2-0.4c0.1-0.1,0.2-0.2,0.3-0.4c0.1-0.1,0.2-0.2,0.3-0.3c0.1-0.1,0.2-0.2,0.3-0.3
		c0.1-0.1,0.2-0.2,0.3-0.3c0.4-0.4,0.8-0.8,1.3-1.1c0.1-0.1,0.2-0.2,0.4-0.2c0.1-0.1,0.2-0.1,0.4-0.2c0.1-0.1,0.2-0.1,0.4-0.2
		c0.1-0.1,0.3-0.1,0.4-0.2c0.1-0.1,0.3-0.1,0.4-0.2c0.1-0.1,0.3-0.1,0.4-0.1c0.1,0,0.3-0.1,0.4-0.1c0.1,0,0.3-0.1,0.4-0.1
		c0.1,0,0.1,0,0.2,0c0,0,0.1,0,0.1,0c0,0,0.1,0,0.1,0c0.2,0,0.3-0.1,0.5-0.1c0.2,0,0.3,0,0.5,0c0.1,0,0.2,0,0.3,0h0.2
		c0.2,0,0.4,0,0.5,0c0.1,0,0.1,0,0.2,0c0.2,0,0.4,0,0.6,0.1c0,0,0,0,0,0h0c0,0,0,0,0,0c0.2,0,0.4,0.1,0.6,0.1
		c0.4,0.1,0.8,0.2,1.1,0.3c0,0,0,0,0,0c0.9,0.3,1.7,0.8,2.4,1.5c0.1,0.1,0.3,0.3,0.4,0.4c0,0,0.1,0.1,0.1,0.1
		c0.1,0.1,0.1,0.1,0.2,0.2c0,0,0,0,0.1,0.1c0.1,0.1,0.2,0.3,0.3,0.5c0.2,0.3,0.4,0.6,0.6,1c0.1,0.2,0.2,0.3,0.2,0.5
		c0.1,0.2,0.2,0.4,0.2,0.6C141.1,35.3,141.3,36.5,141.3,37.8z"/>
	<path class="st0" d="M17.9,37.8c0,2.8-1.1,5.2-3,6.9c0,0,0,0,0,0c-1,1-2.3,1.7-3.7,2l0,0C10.5,46.9,9.8,47,9.1,47
		c-5,0-8.7-3.8-8.7-9.2c0-2.1,0.5-4,1.5-5.4c0.1-0.2,0.2-0.4,0.4-0.5c0.2-0.2,0.3-0.4,0.5-0.6C4,29.9,5.8,29.1,8,28.8
		c0.2,0,0.4,0,0.6,0h0c0.1,0,0.1,0,0.2,0c0,0,0.1,0,0.2,0h0.1c0.1,0,0.2,0,0.3,0c0.2,0,0.3,0,0.5,0c0.1,0,0.3,0,0.4,0.1
		s0.3,0,0.4,0.1c0.1,0,0.3,0.1,0.4,0.1c0.1,0,0.3,0.1,0.4,0.1C15.2,30.3,17.9,33.6,17.9,37.8z"/>
</g>
</svg>
