<?xml version="1.0" encoding="utf-8"?>
<!-- Generator: Adobe Illustrator 26.1.0, SVG Export Plug-In . SVG Version: 6.00 Build 0)  -->
<svg version="1.1"
	 id="Слой_1" text-rendering="geometricPrecision" shape-rendering="geometricPrecision" image-rendering="optimizeQuality" xmlns:cc="http://creativecommons.org/ns#" xmlns:dc="http://purl.org/dc/elements/1.1/" xmlns:rdf="http://www.w3.org/1999/02/22-rdf-syntax-ns#"
	 xmlns="http://www.w3.org/2000/svg" xmlns:xlink="http://www.w3.org/1999/xlink" x="0px" y="0px" viewBox="0 0 141.7 141.7"
	 style="enable-background:new 0 0 141.7 141.7;" xml:space="preserve">
<style type="text/css">
	.st0{fill:#EBEBEB;}
</style>
<g>
	<path class="st0" d="M109.4,106.5c-0.2,0.2-0.5,0.2-0.9,0.2c-12.5-0.1-25.1-0.1-37.6-0.1H33.7c-0.7,0-1.1,0-1.3-0.1
		c-0.2-0.1-0.2-0.5-0.1-1.2c0.9-6.8,1.8-13.7,2.6-20.5c0.8-6.8,1.6-13.5,2.5-20.3c0.4-3.4,0.8-6.8,1.2-10.2c0-0.1,0-0.1,0-0.2
		c0.1-0.4,0.3-0.6,0.9-0.5c4.4,0.9,8.9,0.3,13.3,0.3c2.3,0,4.7-0.1,7-0.1c9.5-0.1,19,0,28.5,0.1c3.3,0,6.4,0.1,9.6,0.3
		c1.4,0,2.9,0,4.2-0.4c0.8-0.3,1,0,1.2,0.8c0.4,3.5,0.8,7,1.2,10.6c0.8,6.8,1.6,13.5,2.5,20.3c0.8,6.8,1.7,13.4,2.6,20.2
		C109.6,106.1,109.5,106.3,109.4,106.5z"/>
	<path class="st0" d="M119.4,11.5c-0.5,4.7-1.2,9.2-1.7,13.9c-0.4,3.5-0.8,7-1,10.7c-0.3,2.7-1.2,3.6-4.2,3.6
		c-13.9-0.1-27.7-0.1-41.6-0.1H29.3c-0.2,0-0.4,0-0.5,0c-0.8,0-1.4-0.1-1.9-0.4c-0.8-0.4-1.3-1-1.5-2.2c-0.1-0.3-0.1-0.6-0.1-0.9
		c-0.5-5.6-1-11.1-1.8-16.7c-0.4-2.5-0.7-5.1-1-7.6c-0.4-2.2,0.5-3.4,2.9-4c3.6-0.9,7.6-1.3,11.3-1.7c1.6-0.1,2.3,0.3,3,1.8
		c1.2,2.6,1.7,5.5,2.5,8.2c0.8,2.8,1.6,4,3.6,4.3c0.1,0,0.1,0,0.2,0c0.2,0,0.3,0,0.5,0.1c0,0,0.1,0,0.1,0c0.5,0,1,0.1,1.6,0
		c0.1,0,0.2,0,0.3,0c0.4,0,0.9,0,1.3,0c1.7-0.1,3.3-0.2,5-0.4c1.3-0.1,2.1-0.8,2.5-1.8c0.7-1.7,0.7-3.5,0.8-5.2c0.1-2,0-3.9,0.1-5.9
		c0-2.2,0.9-3.1,3.3-3.3C66.9,3.8,72.6,4,78.5,4c1,0,2.1,0,3.1,0.1c0.3,0,0.6,0.1,0.9,0.2c0.1,0,0.1,0,0.1,0.1
		c0.7,0.3,1.2,1,1.3,1.8c0.1,0.7,0.1,1.3,0.1,2c0,2.7-0.1,5.5,0.3,8.1c0.1,0.9,0.3,2,0.8,2.7c0.2,0.3,0.4,0.7,0.7,0.9c0,0,0,0,0.1,0
		c0.2,0.1,0.4,0.2,0.7,0.2c3.1,0.4,6.3,0.8,9.4,0.5c1.8-0.3,3.1-1.2,3.6-3c0.8-2.9,1.4-5.9,2.5-8.6c0.1-0.5,0.4-1,0.7-1.6
		c0.4-0.8,1.2-1.3,2.1-1.2c4.2,0.4,8.2,0.8,12.2,1.8c0.3,0.1,0.6,0.2,0.9,0.3C119.1,9,119.6,10,119.4,11.5z"/>
	<path class="st0" d="M126.3,131.9v0.1c0,1,0,2-0.2,3c-0.3,1.7-1,2.3-2.9,2.6c-1.4,0.3-2.9,0.1-4.2,0.1c-16,0-31.9,0-47.9-0.1H35.1
		c-5,0-10,0.1-15,0.1h-1.4c-2.1-0.3-3.1-1.2-3.3-3.1c-0.1-0.4-0.1-0.8-0.1-1.2c-0.1-0.7,0-1.4,0-2.1c0,0,0,0,0,0
		c0-0.2,0.1-0.5,0.1-0.7c0.1-0.7,0.3-1.4,0.5-2c0.1-0.2,0.1-0.4,0.2-0.6c0.1-0.2,0.2-0.4,0.3-0.7c0.1-0.2,0.2-0.4,0.3-0.6
		c0.8-1.4,1.9-2.7,3.3-4c2.1-1.7,3.9-3.6,4.6-6.1c0-0.1,0.1-0.3,0.1-0.4c0.3-0.8,0.3-1.6,0.4-2.3c0-0.5,0.2-0.9,0.3-1.2
		c0.4-0.7,1.1-1.2,2.1-1.3c0.9-0.1,2-0.1,2.9-0.1c4.6,0,33.7-0.1,38.8,0h41.6c0.9,0,2,0,2.9,0.1c1.1,0,1.9,0.4,2.3,1.1
		c0.1,0.2,0.2,0.4,0.2,0.7c0,0.1,0,0.3,0,0.4c0.1,3.9,2.5,6.6,5.3,9.2C124.8,125.4,126.2,128.5,126.3,131.9z"/>
	<path class="st0" d="M109.8,44.3c-3.5,3.4-7.6,5.3-12.5,5.2c-5.9-0.1-11.9-0.3-17.7-0.4c-8.3-0.1-16.7,0-24.9,0.1
		c-3.9,0-7.8,0.3-11.6,0.1c-4.4,0-7.9-2.2-11.2-5.1H109.8z"/>
</g>
</svg>
